<svg width="706" height="463" viewBox="0 0 706 463" fill="none" xmlns="http://www.w3.org/2000/svg">
<path d="M482.375 228.945C478.499 230.205 474.521 227.315 474.521 223.239L474.521 5.99999C474.521 2.68628 477.215 -0.00801473 480.528 0.0773348C576.338 2.54588 660.78 63.9039 692.734 154.272C693.839 157.396 692.109 160.791 688.958 161.815L482.375 228.945Z" fill="url(#paint0_linear_92_64)"/>
<path d="M480.992 238.39C477.982 235.184 479.329 229.936 483.512 228.576L688.957 161.816C692.109 160.792 695.503 162.519 696.445 165.696C720.708 247.503 697.966 336.086 637.298 396.085C634.942 398.415 631.135 398.294 628.867 395.878L480.992 238.39Z" fill="url(#paint1_linear_92_64)"/>
<path d="M471.04 240.289C472.659 236.2 477.982 235.184 480.993 238.391L628.867 395.878C631.136 398.294 631.018 402.1 628.545 404.305C564.862 461.094 475.035 478.231 394.921 448.877C391.81 447.737 390.299 444.241 391.519 441.16L471.04 240.289Z" fill="url(#paint2_linear_92_64)"/>
<path d="M468.445 229.524C471.737 230.593 473.444 234.22 472.169 237.438L391.519 441.16C390.299 444.241 386.795 445.751 383.746 444.453C275.618 398.405 219.146 278.381 252.593 165.706C253.536 162.529 256.933 160.792 260.085 161.816L468.445 229.524Z" fill="url(#paint3_linear_92_64)"/>
<path d="M463.668 216.559C467.085 221.261 462.488 227.588 456.96 225.791L260.085 161.816C256.933 160.792 255.201 157.403 256.306 154.279C271.245 112.052 298.117 75.0619 333.657 47.8032C336.286 45.7864 340.045 46.3865 341.993 49.0677L463.668 216.559Z" fill="url(#paint4_linear_92_64)"/>
<path d="M474.521 213.03C474.521 218.842 467.083 221.259 463.666 216.556L341.991 49.0658C340.044 46.3851 340.634 42.6259 343.364 40.7483C380.268 15.3674 423.748 1.23839 468.521 0.0777523C471.833 -0.00811937 474.521 2.68629 474.521 6V213.03Z" fill="url(#paint5_linear_92_64)"/>
<circle cx="474.5" cy="231.5" r="171.299" fill="white"/>
<path d="M459.301 208.448H463.798V229.454H459.901L449.559 216.109V229.454H445.048V208.448H448.959L459.301 221.808V208.448ZM469.188 229.454V208.448H478.49C480.57 208.448 482.289 209.117 483.646 210.455C485.014 211.783 485.697 213.414 485.697 215.348C485.697 216.188 485.565 216.974 485.302 217.706C485.038 218.438 484.725 219.029 484.364 219.479C484.013 219.928 483.651 220.313 483.28 220.636C482.909 220.958 482.592 221.178 482.328 221.295L481.947 221.5L486.444 229.454H481.64L477.597 222.101H473.7V229.454H469.188ZM481.2 215.348C481.2 214.527 480.927 213.849 480.38 213.312C479.843 212.774 479.164 212.506 478.344 212.506H473.7V218.058H478.344C479.164 218.058 479.843 217.799 480.38 217.281C480.927 216.754 481.2 216.109 481.2 215.348ZM494.999 225.411H506.249V229.454H490.487V208.448H505.941V212.506H494.999V216.71H503.539V220.753H494.999V225.411ZM374.706 243.448H389.999V244.957H383.099V264.454H381.605V244.957H374.706V243.448ZM408.339 260.572C410.116 258.775 411.005 256.568 411.005 253.951C411.005 251.334 410.116 249.132 408.339 247.345C406.571 245.548 404.408 244.649 401.849 244.649C399.291 244.649 397.123 245.548 395.346 247.345C393.578 249.132 392.694 251.334 392.694 253.951C392.694 256.568 393.578 258.775 395.346 260.572C397.123 262.359 399.291 263.253 401.849 263.253C404.408 263.253 406.571 262.359 408.339 260.572ZM409.393 246.305C411.464 248.404 412.499 250.953 412.499 253.951C412.499 256.949 411.464 259.498 409.393 261.598C407.323 263.697 404.808 264.747 401.849 264.747C398.91 264.747 396.4 263.697 394.32 261.598C392.24 259.498 391.2 256.949 391.2 253.951C391.2 250.953 392.24 248.404 394.32 246.305C396.4 244.205 398.91 243.155 401.849 243.155C404.808 243.155 407.323 244.205 409.393 246.305ZM419.105 256.354L430.795 243.448H432.758L424.804 252.149L433.505 264.454H431.703L423.895 253.204L419.105 258.448V264.454H417.597V243.448H419.105V256.354ZM438.764 262.96H451.654V264.454H437.255V243.448H451.361V244.957H438.764V252.75H448.959V254.259H438.764V262.96ZM471.312 243.448H472.807V264.454H471.605L457.66 246.305V264.454H456.151V243.448H457.352L471.312 261.598V243.448ZM495.057 260.572C496.835 258.775 497.724 256.568 497.724 253.951C497.724 251.334 496.835 249.132 495.057 247.345C493.29 245.548 491.127 244.649 488.568 244.649C486.01 244.649 483.842 245.548 482.064 247.345C480.297 249.132 479.413 251.334 479.413 253.951C479.413 256.568 480.297 258.775 482.064 260.572C483.842 262.359 486.01 263.253 488.568 263.253C491.127 263.253 493.29 262.359 495.057 260.572ZM496.112 246.305C498.182 248.404 499.218 250.953 499.218 253.951C499.218 256.949 498.182 259.498 496.112 261.598C494.042 263.697 491.527 264.747 488.568 264.747C485.629 264.747 483.119 263.697 481.039 261.598C478.959 259.498 477.919 256.949 477.919 253.951C477.919 250.953 478.959 248.404 481.039 246.305C483.119 244.205 485.629 243.155 488.568 243.155C491.527 243.155 494.042 244.205 496.112 246.305ZM514.818 258.302L505.824 246.305V264.454H504.315V243.448H505.516L514.818 255.753L524.12 243.448H525.321V264.454H523.812V246.305L514.818 258.302ZM531.913 264.454V243.448H533.422V264.454H531.913ZM541.625 261.598C539.545 259.498 538.505 256.949 538.505 253.951C538.505 250.953 539.545 248.404 541.625 246.305C543.705 244.205 546.215 243.155 549.154 243.155C550.219 243.155 551.239 243.312 552.216 243.624C553.192 243.927 553.998 244.303 554.633 244.752C555.277 245.191 555.839 245.631 556.317 246.07C556.806 246.51 557.157 246.876 557.372 247.169L557.709 247.652L556.654 248.561C556.596 248.463 556.498 248.321 556.361 248.136C556.234 247.95 555.941 247.633 555.482 247.184C555.023 246.734 554.52 246.344 553.974 246.012C553.436 245.67 552.733 245.357 551.864 245.074C550.995 244.791 550.092 244.649 549.154 244.649C546.596 244.649 544.428 245.548 542.65 247.345C540.883 249.132 539.999 251.334 539.999 253.951C539.999 256.568 540.883 258.775 542.65 260.572C544.428 262.359 546.596 263.253 549.154 263.253C550.111 263.253 551.024 263.121 551.893 262.857C552.763 262.584 553.48 262.257 554.047 261.876C554.623 261.495 555.126 261.114 555.556 260.733C555.985 260.353 556.303 260.035 556.508 259.781L556.801 259.356L557.855 260.25C557.777 260.367 557.655 260.528 557.489 260.733C557.333 260.938 556.976 261.3 556.42 261.817C555.873 262.335 555.287 262.794 554.662 263.194C554.047 263.595 553.236 263.956 552.23 264.278C551.234 264.591 550.209 264.747 549.154 264.747C546.215 264.747 543.705 263.697 541.625 261.598ZM572.855 258.902C572.855 257.867 572.455 257.032 571.654 256.397C570.853 255.753 569.877 255.255 568.724 254.903C567.572 254.552 566.42 254.181 565.267 253.79C564.125 253.399 563.153 252.784 562.352 251.944C561.552 251.104 561.151 250.025 561.151 248.707C561.151 247.164 561.762 245.855 562.982 244.781C564.203 243.697 565.795 243.155 567.758 243.155C568.48 243.155 569.179 243.248 569.852 243.434C570.536 243.609 571.102 243.819 571.552 244.063C572.001 244.298 572.401 244.542 572.753 244.796C573.104 245.04 573.358 245.255 573.515 245.44L573.749 245.704L572.709 246.759C572.67 246.7 572.601 246.627 572.504 246.539C572.416 246.441 572.216 246.275 571.903 246.041C571.6 245.797 571.273 245.582 570.922 245.396C570.57 245.201 570.106 245.03 569.53 244.884C568.964 244.728 568.373 244.649 567.758 244.649C566.156 244.649 564.906 245.03 564.008 245.792C563.109 246.554 562.66 247.525 562.66 248.707C562.66 249.742 563.056 250.582 563.847 251.227C564.647 251.861 565.624 252.354 566.776 252.706C567.929 253.058 569.076 253.429 570.219 253.819C571.371 254.21 572.348 254.825 573.148 255.665C573.949 256.505 574.349 257.584 574.349 258.902C574.349 260.602 573.729 262.003 572.489 263.106C571.249 264.2 569.569 264.747 567.45 264.747C566.591 264.747 565.761 264.64 564.96 264.425C564.159 264.2 563.505 263.941 562.997 263.648C562.489 263.346 562.04 263.038 561.649 262.726C561.259 262.413 560.985 262.149 560.829 261.935L560.551 261.598L561.605 260.558C561.644 260.636 561.713 260.738 561.81 260.865C561.908 260.982 562.133 261.197 562.484 261.51C562.836 261.812 563.222 262.086 563.641 262.33C564.061 262.564 564.608 262.779 565.282 262.975C565.966 263.16 566.688 263.253 567.45 263.253C569.188 263.253 570.521 262.857 571.449 262.066C572.387 261.275 572.855 260.221 572.855 258.902Z" fill="url(#paint6_linear_92_64)"/>
<rect opacity="0.3" width="397" height="1" transform="matrix(-1 0 0 1 397 49)" fill="url(#paint7_linear_92_64)"/>
<circle cx="396.5" cy="49.5" r="2.5" fill="#5F5F77"/>
<path d="M8.8 50H138L129.2 80H0L8.8 50Z" fill="url(#paint8_linear_92_64)" fill-opacity="0.15"/>
<path d="M37.4526 60.3506C37.9849 60.3506 38.4951 60.4214 38.9834 60.563C39.4717 60.6997 39.8745 60.8682 40.1919 61.0684C40.5142 61.2686 40.7949 61.4663 41.0342 61.6616C41.2734 61.8569 41.4492 62.0254 41.5615 62.167L41.7227 62.3721L40.6753 63.4268C40.646 63.3877 40.6021 63.334 40.5435 63.2656C40.4897 63.1924 40.3628 63.063 40.1626 62.8774C39.9624 62.6919 39.7476 62.5332 39.5181 62.4014C39.2886 62.2646 38.9883 62.1401 38.6172 62.0278C38.251 61.9106 37.8628 61.8521 37.4526 61.8521C36.3638 61.8521 35.4409 62.2305 34.6841 62.9873C33.9272 63.7393 33.5488 64.6597 33.5488 65.7485C33.5488 66.8374 33.9248 67.7603 34.6768 68.5171C35.4336 69.2739 36.3589 69.6523 37.4526 69.6523C37.8628 69.6523 38.2534 69.5962 38.6245 69.4839C39.0005 69.3667 39.3105 69.2275 39.5547 69.0664C39.8037 68.9053 40.021 68.7466 40.2065 68.5903C40.397 68.4292 40.5386 68.2925 40.6313 68.1802L40.7485 67.9971L41.8032 69.0518C41.7642 69.1104 41.7031 69.1885 41.6201 69.2861C41.542 69.3789 41.3638 69.5449 41.0854 69.7842C40.812 70.0234 40.519 70.2358 40.2065 70.4214C39.8989 70.6069 39.4937 70.7754 38.9907 70.9268C38.4927 71.0732 37.98 71.1465 37.4526 71.1465C35.8804 71.1465 34.562 70.624 33.4976 69.5791C32.4331 68.5342 31.9009 67.2573 31.9009 65.7485C31.9009 64.2397 32.4331 62.9629 33.4976 61.918C34.562 60.873 35.8804 60.3506 37.4526 60.3506ZM48.2559 69.103C48.7002 68.6392 48.9224 68.0728 48.9224 67.4038C48.9224 66.73 48.7002 66.1611 48.2559 65.6973C47.8115 65.2334 47.2842 65.0015 46.6738 65.0015C46.0635 65.0015 45.5337 65.2334 45.0845 65.6973C44.6401 66.1611 44.418 66.73 44.418 67.4038C44.418 68.0728 44.6401 68.6392 45.0845 69.103C45.5337 69.5669 46.0635 69.7988 46.6738 69.7988C47.2842 69.7988 47.8115 69.5669 48.2559 69.103ZM44.0371 70.0332C43.2949 69.2861 42.9238 68.4097 42.9238 67.4038C42.9238 66.3931 43.2949 65.5142 44.0371 64.7671C44.7842 64.02 45.6631 63.6465 46.6738 63.6465C47.6846 63.6465 48.561 64.02 49.3032 64.7671C50.0503 65.5142 50.4238 66.3931 50.4238 67.4038C50.4238 68.4097 50.0503 69.2861 49.3032 70.0332C48.561 70.7754 47.6846 71.1465 46.6738 71.1465C45.6631 71.1465 44.7842 70.7754 44.0371 70.0332ZM61.3735 71V66.8032C61.3735 66.2124 61.2368 65.7656 60.9634 65.4629C60.6948 65.1553 60.3311 65.0015 59.8721 65.0015C59.4033 65.0015 59.0103 65.1895 58.6929 65.5654C58.3804 65.9365 58.2241 66.4492 58.2241 67.1035V71H56.7227V66.8032C56.7227 66.2124 56.5859 65.7656 56.3125 65.4629C56.0439 65.1553 55.6802 65.0015 55.2212 65.0015C54.7524 65.0015 54.3594 65.1895 54.042 65.5654C53.7295 65.9365 53.5732 66.4492 53.5732 67.1035V71H52.0718V63.8003H53.5732V64.5474C53.6318 64.479 53.7124 64.396 53.8149 64.2983C53.9224 64.1958 54.1421 64.0615 54.4741 63.8955C54.811 63.7295 55.1602 63.6465 55.5215 63.6465C55.8096 63.6465 56.083 63.688 56.3418 63.771C56.6055 63.8491 56.8154 63.9492 56.9717 64.0713C57.1279 64.1885 57.2622 64.3081 57.3745 64.4302C57.4917 64.5522 57.5747 64.6523 57.6235 64.7305L57.6968 64.8477C57.7163 64.8184 57.748 64.7769 57.792 64.7231C57.8408 64.6694 57.9409 64.5718 58.0923 64.4302C58.2485 64.2886 58.4146 64.1665 58.5903 64.064C58.7661 63.9565 58.9956 63.8613 59.2788 63.7783C59.5669 63.6904 59.8647 63.6465 60.1724 63.6465C61.0122 63.6465 61.6714 63.915 62.1499 64.4521C62.6333 64.9893 62.875 65.7729 62.875 66.8032V71H61.3735ZM74.2788 71V66.8032C74.2788 66.2124 74.1421 65.7656 73.8687 65.4629C73.6001 65.1553 73.2363 65.0015 72.7773 65.0015C72.3086 65.0015 71.9155 65.1895 71.5981 65.5654C71.2856 65.9365 71.1294 66.4492 71.1294 67.1035V71H69.6279V66.8032C69.6279 66.2124 69.4912 65.7656 69.2178 65.4629C68.9492 65.1553 68.5854 65.0015 68.1265 65.0015C67.6577 65.0015 67.2646 65.1895 66.9473 65.5654C66.6348 65.9365 66.4785 66.4492 66.4785 67.1035V71H64.9771V63.8003H66.4785V64.5474C66.5371 64.479 66.6177 64.396 66.7202 64.2983C66.8276 64.1958 67.0474 64.0615 67.3794 63.8955C67.7163 63.7295 68.0654 63.6465 68.4268 63.6465C68.7148 63.6465 68.9883 63.688 69.2471 63.771C69.5107 63.8491 69.7207 63.9492 69.877 64.0713C70.0332 64.1885 70.1675 64.3081 70.2798 64.4302C70.397 64.5522 70.48 64.6523 70.5288 64.7305L70.6021 64.8477C70.6216 64.8184 70.6533 64.7769 70.6973 64.7231C70.7461 64.6694 70.8462 64.5718 70.9976 64.4302C71.1538 64.2886 71.3198 64.1665 71.4956 64.064C71.6714 63.9565 71.9009 63.8613 72.1841 63.7783C72.4722 63.6904 72.77 63.6465 73.0776 63.6465C73.9175 63.6465 74.5767 63.915 75.0552 64.4521C75.5386 64.9893 75.7803 65.7729 75.7803 66.8032V71H74.2788ZM82.98 71V70.2529L82.8848 70.3481C82.8408 70.3921 82.748 70.4653 82.6064 70.5679C82.4697 70.6655 82.3208 70.7559 82.1597 70.8389C81.9985 70.917 81.7959 70.9878 81.5518 71.0513C81.3076 71.1147 81.0586 71.1465 80.8047 71.1465C79.9355 71.1465 79.23 70.8633 78.688 70.2969C78.1509 69.7256 77.8823 68.959 77.8823 67.9971V63.8003H79.3838V67.9971C79.3838 68.5146 79.5474 68.9443 79.8745 69.2861C80.2065 69.6279 80.6167 69.7988 81.105 69.7988C81.6763 69.7988 82.1304 69.6157 82.4673 69.2495C82.8091 68.8784 82.98 68.3608 82.98 67.6968V63.8003H84.4814V71H82.98ZM88.1582 63.8003V64.5474L88.2534 64.4521C88.2974 64.4082 88.3901 64.3374 88.5317 64.2397C88.6733 64.1372 88.8223 64.0469 88.9785 63.9688C89.1396 63.8857 89.3423 63.8125 89.5864 63.749C89.8354 63.6807 90.0845 63.6465 90.3335 63.6465C91.2026 63.6465 91.9058 63.9321 92.4429 64.5034C92.9849 65.0747 93.2559 65.8413 93.2559 66.8032V71H91.7544V66.8032C91.7544 66.2856 91.5884 65.856 91.2563 65.5142C90.9292 65.1724 90.5215 65.0015 90.0332 65.0015C89.4619 65.0015 89.0054 65.187 88.6636 65.5581C88.3267 65.9243 88.1582 66.4395 88.1582 67.1035V71H86.6567V63.8003H88.1582ZM96.9326 63.8003V71H95.4312V63.8003H96.9326ZM96.8301 60.9072C97.001 61.0781 97.0864 61.293 97.0864 61.5518C97.0864 61.8105 97.001 62.0254 96.8301 62.1963C96.6592 62.3672 96.4443 62.4526 96.1855 62.4526C95.9268 62.4526 95.7119 62.3672 95.541 62.1963C95.3701 62.0254 95.2847 61.8105 95.2847 61.5518C95.2847 61.293 95.3701 61.0781 95.541 60.9072C95.7119 60.7363 95.9268 60.6509 96.1855 60.6509C96.4443 60.6509 96.6592 60.7363 96.8301 60.9072ZM100.009 62.8994V61.3979H101.356V63.8003H102.858V65.1479H101.356V68.8833C101.356 69.1519 101.442 69.3716 101.613 69.5425C101.784 69.7134 101.999 69.7988 102.257 69.7988C102.37 69.7988 102.487 69.7866 102.609 69.7622C102.736 69.7378 102.833 69.7109 102.902 69.6816L103.012 69.6523V71C102.714 71.0977 102.362 71.1465 101.957 71.1465C100.556 71.1465 99.8574 70.397 99.8623 68.8979V65.1479H98.5073V63.8003H99.2617C99.7598 63.8003 100.009 63.5 100.009 62.8994ZM106.535 71.7471L106.835 71L103.905 63.8003H105.48L107.582 69.0518L109.684 63.8003H111.259L108.029 71.7471C107.658 72.6357 107.289 73.2583 106.923 73.6147C106.562 73.9712 106.107 74.1494 105.561 74.1494C105.36 74.1494 105.172 74.1372 104.997 74.1128C104.821 74.0884 104.691 74.0615 104.608 74.0322L104.506 74.0029V72.6479C104.755 72.7456 105.006 72.7969 105.26 72.8018C105.832 72.7969 106.256 72.4453 106.535 71.7471Z" fill="#6F81B0"/>
<path d="M148.776 60.4971H150.651V71H148.402V63.3535H146.601V61.9253C146.923 61.8862 147.218 61.8105 147.487 61.6982C147.755 61.5811 147.963 61.4565 148.109 61.3247C148.261 61.1929 148.388 61.0659 148.49 60.9438C148.598 60.8169 148.673 60.7095 148.717 60.6216L148.776 60.4971ZM155.749 63.1997C155.304 63.8003 155.082 64.6499 155.082 65.7485C155.082 66.8472 155.304 67.6968 155.749 68.2974C156.193 68.8979 156.72 69.1982 157.331 69.1982C157.941 69.1982 158.468 68.8979 158.913 68.2974C159.357 67.6968 159.579 66.8472 159.579 65.7485C159.579 64.6499 159.357 63.8003 158.913 63.1997C158.468 62.5991 157.941 62.2988 157.331 62.2988C156.72 62.2988 156.193 62.5991 155.749 63.1997ZM160.517 61.7861C161.391 62.7871 161.828 64.1079 161.828 65.7485C161.828 67.3892 161.391 68.7124 160.517 69.7183C159.643 70.7241 158.581 71.2271 157.331 71.2271C156.081 71.2271 155.019 70.7241 154.145 69.7183C153.271 68.7124 152.833 67.3892 152.833 65.7485C152.833 64.1079 153.271 62.7871 154.145 61.7861C155.019 60.7803 156.081 60.2773 157.331 60.2773C158.581 60.2773 159.643 60.7803 160.517 61.7861ZM164.904 61.9985C164.704 62.1987 164.604 62.4502 164.604 62.7529C164.604 63.0508 164.704 63.2998 164.904 63.5C165.104 63.7002 165.353 63.8003 165.651 63.8003C165.954 63.8003 166.205 63.7002 166.405 63.5C166.605 63.2998 166.706 63.0508 166.706 62.7529C166.706 62.4502 166.605 62.1987 166.405 61.9985C166.205 61.7983 165.954 61.6982 165.651 61.6982C165.353 61.6982 165.104 61.7983 164.904 61.9985ZM164.53 71L171.129 60.4971H173.004L166.405 71H164.53ZM167.453 61.0244C167.956 61.5225 168.207 62.0986 168.207 62.7529C168.207 63.4023 167.956 63.9785 167.453 64.4814C166.955 64.9795 166.354 65.2285 165.651 65.2285C164.953 65.2285 164.352 64.9795 163.849 64.4814C163.351 63.9785 163.102 63.4023 163.102 62.7529C163.102 62.0986 163.351 61.5225 163.849 61.0244C164.352 60.5264 164.953 60.2773 165.651 60.2773C166.354 60.2773 166.955 60.5264 167.453 61.0244ZM172.631 69.4985C172.831 69.2983 172.931 69.0493 172.931 68.7515C172.931 68.4487 172.831 68.1973 172.631 67.9971C172.431 67.7969 172.179 67.6968 171.876 67.6968C171.579 67.6968 171.33 67.7969 171.129 67.9971C170.929 68.1973 170.829 68.4487 170.829 68.7515C170.829 69.0493 170.929 69.2983 171.129 69.4985C171.33 69.6987 171.579 69.7988 171.876 69.7988C172.179 69.7988 172.431 69.6987 172.631 69.4985ZM170.075 70.48C169.577 69.9771 169.328 69.4009 169.328 68.7515C169.328 68.1021 169.577 67.5283 170.075 67.0303C170.578 66.5273 171.178 66.2759 171.876 66.2759C172.58 66.2759 173.18 66.5273 173.678 67.0303C174.181 67.5283 174.433 68.1021 174.433 68.7515C174.433 69.4009 174.181 69.9771 173.678 70.48C173.18 70.978 172.58 71.2271 171.876 71.2271C171.178 71.2271 170.578 70.978 170.075 70.48Z" fill="#22293B"/>
<path d="M8.66667 50H13L4.33333 80H0L8.66667 50Z" fill="#6F81B0"/>
<rect opacity="0.3" width="307" height="1" transform="matrix(-1 0 0 1 307 116)" fill="url(#paint9_linear_92_64)"/>
<circle cx="306.5" cy="116.5" r="2.5" fill="#5F5F77"/>
<path d="M8.8 117H96L87.2 147H0L8.8 117Z" fill="url(#paint10_linear_92_64)" fill-opacity="0.15"/>
<path d="M31.3003 127.497H39.2471V128.999H36.0977V138H34.4497V128.999H31.3003V127.497ZM47.2012 134.924H41.5762C41.6543 135.432 41.9033 135.871 42.3232 136.242C42.748 136.613 43.251 136.799 43.832 136.799C44.252 136.799 44.6426 136.704 45.0039 136.513C45.3701 136.323 45.6289 136.137 45.7803 135.957L46.0073 135.678L46.9814 136.652C46.9521 136.691 46.9058 136.748 46.8423 136.821C46.7837 136.889 46.6543 137.009 46.4541 137.18C46.2539 137.346 46.0415 137.495 45.8169 137.626C45.5923 137.753 45.2993 137.873 44.938 137.985C44.5815 138.093 44.2129 138.146 43.832 138.146C42.8115 138.146 41.9302 137.773 41.188 137.026C40.4507 136.274 40.082 135.373 40.082 134.323C40.082 133.312 40.4409 132.448 41.1587 131.73C41.8813 131.008 42.7456 130.646 43.7515 130.646C44.7622 130.646 45.6021 130.983 46.271 131.657C46.9448 132.326 47.2817 133.166 47.2817 134.177L47.2012 134.924ZM43.7515 131.928C43.2095 131.928 42.7529 132.089 42.3818 132.412C42.0156 132.729 41.769 133.142 41.6421 133.649H45.8096C45.7217 133.142 45.4946 132.729 45.1284 132.412C44.7622 132.089 44.3032 131.928 43.7515 131.928ZM54.7012 138H53.1997V137.253C53.1802 137.272 53.146 137.304 53.0972 137.348C53.0532 137.392 52.9604 137.465 52.8188 137.568C52.6821 137.666 52.5332 137.756 52.3721 137.839C52.2109 137.917 52.0083 137.988 51.7642 138.051C51.52 138.115 51.2734 138.146 51.0244 138.146C50.292 138.146 49.6841 137.934 49.2007 137.509C48.7173 137.084 48.4756 136.599 48.4756 136.052C48.4756 135.461 48.6611 134.965 49.0322 134.565C49.4082 134.165 49.9209 133.911 50.5703 133.803L53.1997 133.349C53.1997 132.968 53.0581 132.648 52.7749 132.39C52.4966 132.131 52.1377 132.001 51.6982 132.001C51.3174 132.001 50.9707 132.082 50.6582 132.243C50.3506 132.399 50.1382 132.558 50.021 132.719L49.8232 132.976L48.8491 132.001C48.8784 131.962 48.9175 131.914 48.9663 131.855C49.02 131.792 49.1348 131.684 49.3105 131.533C49.4912 131.376 49.6816 131.237 49.8818 131.115C50.082 130.993 50.3457 130.886 50.6729 130.793C51.0049 130.695 51.3467 130.646 51.6982 130.646C52.5771 130.646 53.2974 130.908 53.8589 131.43C54.4204 131.948 54.7012 132.587 54.7012 133.349V138ZM51.2515 136.799C51.8618 136.799 52.3379 136.618 52.6797 136.257C53.0264 135.891 53.1997 135.371 53.1997 134.697V134.55L50.8706 134.924C50.6021 134.973 50.3848 135.083 50.2188 135.253C50.0527 135.424 49.9697 135.639 49.9697 135.898C49.9697 136.137 50.0845 136.347 50.314 136.528C50.5483 136.708 50.8608 136.799 51.2515 136.799ZM66.105 138V133.803C66.105 133.212 65.9683 132.766 65.6948 132.463C65.4263 132.155 65.0625 132.001 64.6035 132.001C64.1348 132.001 63.7417 132.189 63.4243 132.565C63.1118 132.937 62.9556 133.449 62.9556 134.104V138H61.4541V133.803C61.4541 133.212 61.3174 132.766 61.0439 132.463C60.7754 132.155 60.4116 132.001 59.9526 132.001C59.4839 132.001 59.0908 132.189 58.7734 132.565C58.4609 132.937 58.3047 133.449 58.3047 134.104V138H56.8032V130.8H58.3047V131.547C58.3633 131.479 58.4438 131.396 58.5464 131.298C58.6538 131.196 58.8735 131.062 59.2056 130.896C59.5425 130.729 59.8916 130.646 60.2529 130.646C60.541 130.646 60.8145 130.688 61.0732 130.771C61.3369 130.849 61.5469 130.949 61.7031 131.071C61.8594 131.188 61.9937 131.308 62.106 131.43C62.2231 131.552 62.3062 131.652 62.355 131.73L62.4282 131.848C62.4478 131.818 62.4795 131.777 62.5234 131.723C62.5723 131.669 62.6724 131.572 62.8237 131.43C62.98 131.289 63.146 131.167 63.3218 131.064C63.4976 130.957 63.7271 130.861 64.0103 130.778C64.2983 130.69 64.5962 130.646 64.9038 130.646C65.7437 130.646 66.4028 130.915 66.8813 131.452C67.3647 131.989 67.6064 132.773 67.6064 133.803V138H66.105Z" fill="#6FB085"/>
<path d="M108.776 127.497H110.651V138H108.402V130.354H106.601V128.925C106.923 128.886 107.218 128.811 107.487 128.698C107.755 128.581 107.963 128.457 108.109 128.325C108.261 128.193 108.388 128.066 108.49 127.944C108.598 127.817 108.673 127.709 108.717 127.622L108.776 127.497ZM115.749 130.2C115.304 130.8 115.082 131.65 115.082 132.749C115.082 133.847 115.304 134.697 115.749 135.297C116.193 135.898 116.72 136.198 117.331 136.198C117.941 136.198 118.468 135.898 118.913 135.297C119.357 134.697 119.579 133.847 119.579 132.749C119.579 131.65 119.357 130.8 118.913 130.2C118.468 129.599 117.941 129.299 117.331 129.299C116.72 129.299 116.193 129.599 115.749 130.2ZM120.517 128.786C121.391 129.787 121.828 131.108 121.828 132.749C121.828 134.389 121.391 135.712 120.517 136.718C119.643 137.724 118.581 138.227 117.331 138.227C116.081 138.227 115.019 137.724 114.145 136.718C113.271 135.712 112.833 134.389 112.833 132.749C112.833 131.108 113.271 129.787 114.145 128.786C115.019 127.78 116.081 127.277 117.331 127.277C118.581 127.277 119.643 127.78 120.517 128.786ZM124.904 128.999C124.704 129.199 124.604 129.45 124.604 129.753C124.604 130.051 124.704 130.3 124.904 130.5C125.104 130.7 125.353 130.8 125.651 130.8C125.954 130.8 126.205 130.7 126.405 130.5C126.605 130.3 126.706 130.051 126.706 129.753C126.706 129.45 126.605 129.199 126.405 128.999C126.205 128.798 125.954 128.698 125.651 128.698C125.353 128.698 125.104 128.798 124.904 128.999ZM124.53 138L131.129 127.497H133.004L126.405 138H124.53ZM127.453 128.024C127.956 128.522 128.207 129.099 128.207 129.753C128.207 130.402 127.956 130.979 127.453 131.481C126.955 131.979 126.354 132.229 125.651 132.229C124.953 132.229 124.352 131.979 123.849 131.481C123.351 130.979 123.102 130.402 123.102 129.753C123.102 129.099 123.351 128.522 123.849 128.024C124.352 127.526 124.953 127.277 125.651 127.277C126.354 127.277 126.955 127.526 127.453 128.024ZM132.631 136.499C132.831 136.298 132.931 136.049 132.931 135.751C132.931 135.449 132.831 135.197 132.631 134.997C132.431 134.797 132.179 134.697 131.876 134.697C131.579 134.697 131.33 134.797 131.129 134.997C130.929 135.197 130.829 135.449 130.829 135.751C130.829 136.049 130.929 136.298 131.129 136.499C131.33 136.699 131.579 136.799 131.876 136.799C132.179 136.799 132.431 136.699 132.631 136.499ZM130.075 137.48C129.577 136.977 129.328 136.401 129.328 135.751C129.328 135.102 129.577 134.528 130.075 134.03C130.578 133.527 131.178 133.276 131.876 133.276C132.58 133.276 133.18 133.527 133.678 134.03C134.181 134.528 134.433 135.102 134.433 135.751C134.433 136.401 134.181 136.977 133.678 137.48C133.18 137.978 132.58 138.227 131.876 138.227C131.178 138.227 130.578 137.978 130.075 137.48Z" fill="#22293B"/>
<path d="M8.66667 117H13L4.33333 147H0L8.66667 117Z" fill="#6FB085"/>
<g opacity="0.3">
<path d="M599 183H0V184H599V183Z" fill="url(#paint11_linear_92_64)"/>
<path d="M598 77H599V184H598V77Z" fill="url(#paint12_linear_92_64)"/>
</g>
<circle cx="598.5" cy="76.5" r="2.5" fill="#5F5F77"/>
<path d="M8.8 184H129L120.2 214H0L8.8 184Z" fill="url(#paint13_linear_92_64)" fill-opacity="0.15"/>
<path d="M37.9727 199.602L42.0229 194.497H43.4512V205H41.8032V197.354L37.9727 202.151L34.1494 197.354V205H32.5015V194.497H33.9224L37.9727 199.602ZM51.6982 205H50.1968V204.253C50.1772 204.272 50.1431 204.304 50.0942 204.348C50.0503 204.392 49.9575 204.465 49.8159 204.568C49.6792 204.666 49.5303 204.756 49.3691 204.839C49.208 204.917 49.0054 204.988 48.7612 205.051C48.5171 205.115 48.2705 205.146 48.0215 205.146C47.2891 205.146 46.6812 204.934 46.1978 204.509C45.7144 204.084 45.4727 203.599 45.4727 203.052C45.4727 202.461 45.6582 201.965 46.0293 201.565C46.4053 201.165 46.918 200.911 47.5674 200.803L50.1968 200.349C50.1968 199.968 50.0552 199.648 49.772 199.39C49.4937 199.131 49.1348 199.001 48.6953 199.001C48.3145 199.001 47.9678 199.082 47.6553 199.243C47.3477 199.399 47.1353 199.558 47.0181 199.719L46.8203 199.976L45.8462 199.001C45.8755 198.962 45.9146 198.914 45.9634 198.855C46.0171 198.792 46.1318 198.684 46.3076 198.533C46.4883 198.376 46.6787 198.237 46.8789 198.115C47.0791 197.993 47.3428 197.886 47.6699 197.793C48.002 197.695 48.3438 197.646 48.6953 197.646C49.5742 197.646 50.2944 197.908 50.856 198.43C51.4175 198.948 51.6982 199.587 51.6982 200.349V205ZM48.2485 203.799C48.8589 203.799 49.335 203.618 49.6768 203.257C50.0234 202.891 50.1968 202.371 50.1968 201.697V201.55L47.8677 201.924C47.5991 201.973 47.3818 202.083 47.2158 202.253C47.0498 202.424 46.9668 202.639 46.9668 202.898C46.9668 203.137 47.0815 203.347 47.311 203.528C47.5454 203.708 47.8579 203.799 48.2485 203.799ZM57.8506 199.075C57.6504 199.026 57.4258 199.001 57.1768 199.001C56.6055 199.001 56.1489 199.187 55.8071 199.558C55.4702 199.924 55.3018 200.439 55.3018 201.104V205H53.8003V197.8H55.3018V198.547L55.397 198.452C55.4409 198.408 55.5337 198.337 55.6753 198.24C55.8169 198.137 55.9658 198.047 56.1221 197.969C56.2832 197.886 56.4858 197.812 56.73 197.749C56.979 197.681 57.228 197.646 57.4771 197.646H57.8506V199.075ZM65.5703 197.8L62.7944 200.803L65.7974 205H64.1421L61.8203 201.777L60.6924 202.979V205H59.1982V194.497H60.6924V201.023L63.7686 197.8H65.5703ZM73.6709 201.924H68.0459C68.124 202.432 68.373 202.871 68.793 203.242C69.2178 203.613 69.7207 203.799 70.3018 203.799C70.7217 203.799 71.1123 203.704 71.4736 203.513C71.8398 203.323 72.0986 203.137 72.25 202.957L72.4771 202.678L73.4512 203.652C73.4219 203.691 73.3755 203.748 73.312 203.821C73.2534 203.889 73.124 204.009 72.9238 204.18C72.7236 204.346 72.5112 204.495 72.2866 204.626C72.062 204.753 71.769 204.873 71.4077 204.985C71.0513 205.093 70.6826 205.146 70.3018 205.146C69.2812 205.146 68.3999 204.773 67.6577 204.026C66.9204 203.274 66.5518 202.373 66.5518 201.323C66.5518 200.312 66.9106 199.448 67.6284 198.73C68.3511 198.008 69.2153 197.646 70.2212 197.646C71.2319 197.646 72.0718 197.983 72.7407 198.657C73.4146 199.326 73.7515 200.166 73.7515 201.177L73.6709 201.924ZM70.2212 198.928C69.6792 198.928 69.2227 199.089 68.8516 199.412C68.4854 199.729 68.2388 200.142 68.1118 200.649H72.2793C72.1914 200.142 71.9644 199.729 71.5981 199.412C71.2319 199.089 70.7729 198.928 70.2212 198.928ZM76.293 196.899V195.398H77.6406V197.8H79.1421V199.148H77.6406V202.883C77.6406 203.152 77.7261 203.372 77.897 203.542C78.0679 203.713 78.2827 203.799 78.5415 203.799C78.6538 203.799 78.771 203.787 78.8931 203.762C79.02 203.738 79.1177 203.711 79.186 203.682L79.2959 203.652V205C78.998 205.098 78.6465 205.146 78.2412 205.146C76.8398 205.146 76.1416 204.397 76.1465 202.898V199.148H74.7915V197.8H75.5459C76.0439 197.8 76.293 197.5 76.293 196.899ZM82.665 197.8V205H81.1636V197.8H82.665ZM82.5625 194.907C82.7334 195.078 82.8188 195.293 82.8188 195.552C82.8188 195.811 82.7334 196.025 82.5625 196.196C82.3916 196.367 82.1768 196.453 81.918 196.453C81.6592 196.453 81.4443 196.367 81.2734 196.196C81.1025 196.025 81.0171 195.811 81.0171 195.552C81.0171 195.293 81.1025 195.078 81.2734 194.907C81.4443 194.736 81.6592 194.651 81.918 194.651C82.1768 194.651 82.3916 194.736 82.5625 194.907ZM86.3418 197.8V198.547L86.437 198.452C86.481 198.408 86.5737 198.337 86.7153 198.24C86.8569 198.137 87.0059 198.047 87.1621 197.969C87.3232 197.886 87.5259 197.812 87.77 197.749C88.019 197.681 88.2681 197.646 88.5171 197.646C89.3862 197.646 90.0894 197.932 90.6265 198.503C91.1685 199.075 91.4395 199.841 91.4395 200.803V205H89.938V200.803C89.938 200.286 89.772 199.856 89.4399 199.514C89.1128 199.172 88.7051 199.001 88.2168 199.001C87.6455 199.001 87.189 199.187 86.8472 199.558C86.5103 199.924 86.3418 200.439 86.3418 201.104V205H84.8403V197.8H86.3418ZM98.6392 204.568V203.953L98.5439 204.048C98.5 204.092 98.4072 204.165 98.2656 204.268C98.1289 204.365 97.98 204.456 97.8188 204.539C97.6577 204.617 97.4551 204.69 97.2109 204.758C96.9668 204.822 96.7178 204.854 96.4639 204.854C95.5557 204.854 94.7671 204.504 94.0981 203.806C93.4292 203.103 93.0947 202.251 93.0947 201.25C93.0947 200.249 93.4292 199.399 94.0981 198.701C94.7671 197.998 95.5557 197.646 96.4639 197.646C96.8643 197.646 97.2451 197.722 97.6064 197.874C97.9678 198.025 98.229 198.176 98.3901 198.328L98.6392 198.547V197.8H100.141V204.553C100.141 205.564 99.7939 206.416 99.1006 207.109C98.4072 207.803 97.5552 208.149 96.5444 208.149C96.1343 208.149 95.7437 208.096 95.3726 207.988C95.0015 207.886 94.6963 207.761 94.457 207.615C94.2178 207.473 94.0078 207.329 93.8271 207.183C93.6465 207.036 93.5171 206.909 93.439 206.802L93.3145 206.648L94.2959 205.674C94.3154 205.703 94.3472 205.742 94.3911 205.791C94.4351 205.845 94.5278 205.935 94.6694 206.062C94.8159 206.194 94.9697 206.309 95.1309 206.406C95.292 206.509 95.4995 206.599 95.7534 206.677C96.0073 206.76 96.271 206.802 96.5444 206.802C97.1548 206.802 97.6553 206.594 98.0459 206.179C98.4414 205.764 98.6392 205.227 98.6392 204.568ZM95.1968 199.653C94.7915 200.088 94.5889 200.62 94.5889 201.25C94.5889 201.88 94.7915 202.412 95.1968 202.847C95.6021 203.281 96.0757 203.499 96.6177 203.499C97.1597 203.499 97.6309 203.281 98.0312 202.847C98.4365 202.412 98.6392 201.88 98.6392 201.25C98.6392 200.62 98.4365 200.088 98.0312 199.653C97.6309 199.219 97.1597 199.001 96.6177 199.001C96.0757 199.001 95.6021 199.219 95.1968 199.653Z" fill="#55474B"/>
<path d="M146.874 205H139.527C139.527 204.229 139.652 203.53 139.901 202.905C140.15 202.28 140.46 201.787 140.831 201.426C141.202 201.06 141.605 200.713 142.04 200.386C142.474 200.054 142.875 199.773 143.241 199.543C143.612 199.309 143.922 199.038 144.171 198.73C144.425 198.418 144.552 198.083 144.552 197.727C144.552 197.307 144.42 196.978 144.156 196.738C143.897 196.494 143.529 196.372 143.05 196.372C142.669 196.372 142.34 196.479 142.062 196.694C141.788 196.909 141.607 197.122 141.52 197.332L141.402 197.646L139.527 196.753C139.547 196.685 139.579 196.594 139.623 196.482C139.667 196.37 139.784 196.172 139.974 195.889C140.165 195.601 140.384 195.349 140.633 195.134C140.882 194.919 141.234 194.724 141.688 194.548C142.147 194.368 142.65 194.277 143.197 194.277C144.266 194.277 145.145 194.602 145.833 195.251C146.527 195.901 146.874 196.699 146.874 197.646C146.874 198.179 146.759 198.662 146.529 199.097C146.3 199.531 146 199.902 145.628 200.21C145.257 200.513 144.876 200.793 144.486 201.052C144.1 201.306 143.705 201.597 143.299 201.924C142.894 202.246 142.586 202.571 142.376 202.898H146.874V205ZM151.444 197.2C151 197.8 150.777 198.65 150.777 199.749C150.777 200.847 151 201.697 151.444 202.297C151.888 202.898 152.416 203.198 153.026 203.198C153.636 203.198 154.164 202.898 154.608 202.297C155.052 201.697 155.274 200.847 155.274 199.749C155.274 198.65 155.052 197.8 154.608 197.2C154.164 196.599 153.636 196.299 153.026 196.299C152.416 196.299 151.888 196.599 151.444 197.2ZM156.212 195.786C157.086 196.787 157.523 198.108 157.523 199.749C157.523 201.389 157.086 202.712 156.212 203.718C155.338 204.724 154.276 205.227 153.026 205.227C151.776 205.227 150.714 204.724 149.84 203.718C148.966 202.712 148.529 201.389 148.529 199.749C148.529 198.108 148.966 196.787 149.84 195.786C150.714 194.78 151.776 194.277 153.026 194.277C154.276 194.277 155.338 194.78 156.212 195.786ZM160.599 195.999C160.399 196.199 160.299 196.45 160.299 196.753C160.299 197.051 160.399 197.3 160.599 197.5C160.799 197.7 161.048 197.8 161.346 197.8C161.649 197.8 161.9 197.7 162.101 197.5C162.301 197.3 162.401 197.051 162.401 196.753C162.401 196.45 162.301 196.199 162.101 195.999C161.9 195.798 161.649 195.698 161.346 195.698C161.048 195.698 160.799 195.798 160.599 195.999ZM160.226 205L166.825 194.497H168.7L162.101 205H160.226ZM163.148 195.024C163.651 195.522 163.902 196.099 163.902 196.753C163.902 197.402 163.651 197.979 163.148 198.481C162.65 198.979 162.049 199.229 161.346 199.229C160.648 199.229 160.047 198.979 159.544 198.481C159.046 197.979 158.797 197.402 158.797 196.753C158.797 196.099 159.046 195.522 159.544 195.024C160.047 194.526 160.648 194.277 161.346 194.277C162.049 194.277 162.65 194.526 163.148 195.024ZM168.326 203.499C168.526 203.298 168.626 203.049 168.626 202.751C168.626 202.449 168.526 202.197 168.326 201.997C168.126 201.797 167.875 201.697 167.572 201.697C167.274 201.697 167.025 201.797 166.825 201.997C166.625 202.197 166.524 202.449 166.524 202.751C166.524 203.049 166.625 203.298 166.825 203.499C167.025 203.699 167.274 203.799 167.572 203.799C167.875 203.799 168.126 203.699 168.326 203.499ZM165.77 204.48C165.272 203.977 165.023 203.401 165.023 202.751C165.023 202.102 165.272 201.528 165.77 201.03C166.273 200.527 166.874 200.276 167.572 200.276C168.275 200.276 168.875 200.527 169.374 201.03C169.876 201.528 170.128 202.102 170.128 202.751C170.128 203.401 169.876 203.977 169.374 204.48C168.875 204.978 168.275 205.227 167.572 205.227C166.874 205.227 166.273 204.978 165.77 204.48Z" fill="#22293B"/>
<path d="M8.66667 184H13L4.33333 214H0L8.66667 184Z" fill="#55474B"/>
<rect opacity="0.3" width="286" height="1" transform="matrix(-1 0 0 1 286 250)" fill="url(#paint14_linear_92_64)"/>
<circle cx="286.5" cy="250.5" r="2.5" fill="#5F5F77"/>
<path d="M8.8 251H88L79.2 281H0L8.8 251Z" fill="url(#paint15_linear_92_64)" fill-opacity="0.15"/>
<path d="M37.4526 268.997C37.4526 268.675 37.3501 268.406 37.145 268.191C36.9399 267.972 36.6738 267.801 36.3467 267.679C36.0244 267.552 35.6655 267.439 35.27 267.342C34.8745 267.239 34.479 267.115 34.0835 266.968C33.688 266.822 33.3267 266.646 32.9995 266.441C32.6772 266.236 32.4136 265.945 32.2085 265.569C32.0034 265.188 31.9009 264.732 31.9009 264.2C31.9009 263.389 32.2109 262.713 32.8311 262.171C33.4512 261.624 34.291 261.351 35.3506 261.351C35.7412 261.351 36.1147 261.399 36.4712 261.497C36.8325 261.59 37.1304 261.702 37.3647 261.834C37.604 261.961 37.8115 262.09 37.9873 262.222C38.168 262.349 38.2998 262.459 38.3828 262.552L38.5 262.698L37.4526 263.753C37.4331 263.733 37.4038 263.702 37.3647 263.658C37.3306 263.609 37.2476 263.536 37.1157 263.438C36.9888 263.335 36.8496 263.245 36.6982 263.167C36.5518 263.084 36.3564 263.011 36.1123 262.947C35.873 262.884 35.6191 262.852 35.3506 262.852C34.8086 262.852 34.3716 262.986 34.0396 263.255C33.7124 263.523 33.5488 263.838 33.5488 264.2C33.5488 264.522 33.6514 264.793 33.8564 265.013C34.0615 265.232 34.3252 265.406 34.6475 265.533C34.9746 265.655 35.3359 265.767 35.7314 265.87C36.127 265.967 36.5225 266.089 36.918 266.236C37.3135 266.377 37.6724 266.551 37.9946 266.756C38.3218 266.961 38.5879 267.254 38.793 267.635C38.998 268.016 39.1006 268.47 39.1006 268.997C39.1006 269.925 38.7686 270.682 38.1045 271.268C37.4404 271.854 36.5225 272.146 35.3506 272.146C34.8721 272.146 34.4155 272.09 33.981 271.978C33.5513 271.861 33.1973 271.724 32.9189 271.568C32.6406 271.407 32.3989 271.246 32.1938 271.084C31.9888 270.923 31.8398 270.789 31.7471 270.682L31.6006 270.499L32.6479 269.451C32.6675 269.48 32.6992 269.524 32.7432 269.583C32.792 269.637 32.897 269.734 33.0581 269.876C33.2241 270.013 33.4023 270.135 33.5928 270.242C33.7832 270.345 34.0347 270.44 34.3472 270.528C34.6646 270.611 34.999 270.652 35.3506 270.652C36 270.652 36.5127 270.494 36.8887 270.176C37.2646 269.859 37.4526 269.466 37.4526 268.997ZM46.6006 272H45.0991V271.253C45.0796 271.272 45.0454 271.304 44.9966 271.348C44.9526 271.392 44.8599 271.465 44.7183 271.568C44.5815 271.666 44.4326 271.756 44.2715 271.839C44.1104 271.917 43.9077 271.988 43.6636 272.051C43.4194 272.115 43.1729 272.146 42.9238 272.146C42.1914 272.146 41.5835 271.934 41.1001 271.509C40.6167 271.084 40.375 270.599 40.375 270.052C40.375 269.461 40.5605 268.965 40.9316 268.565C41.3076 268.165 41.8203 267.911 42.4697 267.803L45.0991 267.349C45.0991 266.968 44.9575 266.648 44.6743 266.39C44.396 266.131 44.0371 266.001 43.5977 266.001C43.2168 266.001 42.8701 266.082 42.5576 266.243C42.25 266.399 42.0376 266.558 41.9204 266.719L41.7227 266.976L40.7485 266.001C40.7778 265.962 40.8169 265.914 40.8657 265.855C40.9194 265.792 41.0342 265.684 41.21 265.533C41.3906 265.376 41.5811 265.237 41.7812 265.115C41.9814 264.993 42.2451 264.886 42.5723 264.793C42.9043 264.695 43.2461 264.646 43.5977 264.646C44.4766 264.646 45.1968 264.908 45.7583 265.43C46.3198 265.948 46.6006 266.587 46.6006 267.349V272ZM43.1509 270.799C43.7612 270.799 44.2373 270.618 44.5791 270.257C44.9258 269.891 45.0991 269.371 45.0991 268.697V268.55L42.77 268.924C42.5015 268.973 42.2842 269.083 42.1182 269.253C41.9521 269.424 41.8691 269.639 41.8691 269.898C41.8691 270.137 41.9839 270.347 42.2134 270.528C42.4478 270.708 42.7603 270.799 43.1509 270.799ZM50.3506 261.497V272H48.8564V261.497H50.3506ZM59.2715 268.924H53.6465C53.7246 269.432 53.9736 269.871 54.3936 270.242C54.8184 270.613 55.3213 270.799 55.9023 270.799C56.3223 270.799 56.7129 270.704 57.0742 270.513C57.4404 270.323 57.6992 270.137 57.8506 269.957L58.0776 269.678L59.0518 270.652C59.0225 270.691 58.9761 270.748 58.9126 270.821C58.854 270.889 58.7246 271.009 58.5244 271.18C58.3242 271.346 58.1118 271.495 57.8872 271.626C57.6626 271.753 57.3696 271.873 57.0083 271.985C56.6519 272.093 56.2832 272.146 55.9023 272.146C54.8818 272.146 54.0005 271.773 53.2583 271.026C52.521 270.274 52.1523 269.373 52.1523 268.323C52.1523 267.312 52.5112 266.448 53.229 265.73C53.9517 265.008 54.8159 264.646 55.8218 264.646C56.8325 264.646 57.6724 264.983 58.3413 265.657C59.0151 266.326 59.3521 267.166 59.3521 268.177L59.2715 268.924ZM55.8218 265.928C55.2798 265.928 54.8232 266.089 54.4521 266.412C54.0859 266.729 53.8394 267.142 53.7124 267.649H57.8799C57.792 267.142 57.5649 266.729 57.1987 266.412C56.8325 266.089 56.3735 265.928 55.8218 265.928Z" fill="#DEB161"/>
<path d="M105.874 272H98.5273C98.5273 271.229 98.6519 270.53 98.9009 269.905C99.1499 269.28 99.46 268.787 99.8311 268.426C100.202 268.06 100.605 267.713 101.04 267.386C101.474 267.054 101.875 266.773 102.241 266.543C102.612 266.309 102.922 266.038 103.171 265.73C103.425 265.418 103.552 265.083 103.552 264.727C103.552 264.307 103.42 263.978 103.156 263.738C102.897 263.494 102.529 263.372 102.05 263.372C101.669 263.372 101.34 263.479 101.062 263.694C100.788 263.909 100.607 264.122 100.52 264.332L100.402 264.646L98.5273 263.753C98.5469 263.685 98.5786 263.594 98.6226 263.482C98.6665 263.37 98.7837 263.172 98.9741 262.889C99.1646 262.601 99.3843 262.349 99.6333 262.134C99.8823 261.919 100.234 261.724 100.688 261.548C101.147 261.368 101.65 261.277 102.197 261.277C103.266 261.277 104.145 261.602 104.833 262.251C105.527 262.901 105.874 263.699 105.874 264.646C105.874 265.179 105.759 265.662 105.529 266.097C105.3 266.531 105 266.902 104.628 267.21C104.257 267.513 103.876 267.793 103.486 268.052C103.1 268.306 102.705 268.597 102.299 268.924C101.894 269.246 101.586 269.571 101.376 269.898H105.874V272ZM114.348 268.177H115.549V270.125H114.348V272H112.099V270.125H107.148V267.876L111.726 261.497H114.348V268.177ZM112.099 268.177V264.126L109.25 268.177H112.099ZM118.105 262.999C117.905 263.199 117.805 263.45 117.805 263.753C117.805 264.051 117.905 264.3 118.105 264.5C118.305 264.7 118.554 264.8 118.852 264.8C119.155 264.8 119.406 264.7 119.606 264.5C119.807 264.3 119.907 264.051 119.907 263.753C119.907 263.45 119.807 263.199 119.606 262.999C119.406 262.798 119.155 262.698 118.852 262.698C118.554 262.698 118.305 262.798 118.105 262.999ZM117.731 272L124.331 261.497H126.206L119.606 272H117.731ZM120.654 262.024C121.157 262.522 121.408 263.099 121.408 263.753C121.408 264.402 121.157 264.979 120.654 265.481C120.156 265.979 119.555 266.229 118.852 266.229C118.154 266.229 117.553 265.979 117.05 265.481C116.552 264.979 116.303 264.402 116.303 263.753C116.303 263.099 116.552 262.522 117.05 262.024C117.553 261.526 118.154 261.277 118.852 261.277C119.555 261.277 120.156 261.526 120.654 262.024ZM125.832 270.499C126.032 270.298 126.132 270.049 126.132 269.751C126.132 269.449 126.032 269.197 125.832 268.997C125.632 268.797 125.38 268.697 125.078 268.697C124.78 268.697 124.531 268.797 124.331 268.997C124.13 269.197 124.03 269.449 124.03 269.751C124.03 270.049 124.13 270.298 124.331 270.499C124.531 270.699 124.78 270.799 125.078 270.799C125.38 270.799 125.632 270.699 125.832 270.499ZM123.276 271.48C122.778 270.977 122.529 270.401 122.529 269.751C122.529 269.102 122.778 268.528 123.276 268.03C123.779 267.527 124.379 267.276 125.078 267.276C125.781 267.276 126.381 267.527 126.879 268.03C127.382 268.528 127.634 269.102 127.634 269.751C127.634 270.401 127.382 270.977 126.879 271.48C126.381 271.978 125.781 272.227 125.078 272.227C124.379 272.227 123.779 271.978 123.276 271.48Z" fill="#22293B"/>
<path d="M8.66667 251H13L4.33333 281H0L8.66667 251Z" fill="#FFCD75"/>
<g opacity="0.3">
<path d="M667 317H0V318H667V317Z" fill="url(#paint16_linear_92_64)"/>
<path d="M666 288H667V318H666V288Z" fill="url(#paint17_linear_92_64)"/>
</g>
<circle cx="666.5" cy="287.5" r="2.5" fill="#5F5F77"/>
<path d="M8.8 318H109L100.2 348H0L8.8 318Z" fill="url(#paint18_linear_92_64)" fill-opacity="0.15"/>
<path d="M32.5015 328.497H36.6982C37.6992 328.497 38.5366 328.827 39.2104 329.486C39.8892 330.14 40.2285 330.938 40.2285 331.881C40.2285 332.818 39.8892 333.614 39.2104 334.269C38.5366 334.923 37.6992 335.25 36.6982 335.25H34.1494V339H32.5015V328.497ZM36.6982 329.999H34.1494V333.749H36.6982C37.2158 333.749 37.6577 333.57 38.0239 333.214C38.3901 332.853 38.5732 332.408 38.5732 331.881C38.5732 331.349 38.3901 330.902 38.0239 330.541C37.6577 330.179 37.2158 329.999 36.6982 329.999ZM46.1465 333.075C45.9463 333.026 45.7217 333.001 45.4727 333.001C44.9014 333.001 44.4448 333.187 44.103 333.558C43.7661 333.924 43.5977 334.439 43.5977 335.104V339H42.0962V331.8H43.5977V332.547L43.6929 332.452C43.7368 332.408 43.8296 332.337 43.9712 332.24C44.1128 332.137 44.2617 332.047 44.418 331.969C44.5791 331.886 44.7817 331.812 45.0259 331.749C45.2749 331.681 45.5239 331.646 45.7729 331.646H46.1465V333.075ZM54.0127 335.924H48.3877C48.4658 336.432 48.7148 336.871 49.1348 337.242C49.5596 337.613 50.0625 337.799 50.6436 337.799C51.0635 337.799 51.4541 337.704 51.8154 337.513C52.1816 337.323 52.4404 337.137 52.5918 336.957L52.8188 336.678L53.793 337.652C53.7637 337.691 53.7173 337.748 53.6538 337.821C53.5952 337.889 53.4658 338.009 53.2656 338.18C53.0654 338.346 52.853 338.495 52.6284 338.626C52.4038 338.753 52.1108 338.873 51.7495 338.985C51.3931 339.093 51.0244 339.146 50.6436 339.146C49.623 339.146 48.7417 338.773 47.9995 338.026C47.2622 337.274 46.8936 336.373 46.8936 335.323C46.8936 334.312 47.2524 333.448 47.9702 332.73C48.6929 332.008 49.5571 331.646 50.563 331.646C51.5737 331.646 52.4136 331.983 53.0825 332.657C53.7563 333.326 54.0933 334.166 54.0933 335.177L54.0127 335.924ZM50.563 332.928C50.021 332.928 49.5645 333.089 49.1934 333.412C48.8271 333.729 48.5806 334.142 48.4536 334.649H52.6211C52.5332 334.142 52.3062 333.729 51.9399 333.412C51.5737 333.089 51.1147 332.928 50.563 332.928ZM60.3115 332.628L59.3374 333.602C59.2983 333.563 59.2397 333.509 59.1616 333.441C59.0884 333.368 58.9321 333.277 58.6929 333.17C58.4585 333.058 58.2217 333.001 57.9824 333.001C57.6602 333.001 57.4038 333.077 57.2134 333.229C57.0278 333.375 56.9351 333.548 56.9351 333.749C56.9351 333.958 57.0254 334.134 57.2061 334.276C57.3867 334.417 57.6138 334.525 57.8872 334.598C58.1606 334.671 58.4536 334.764 58.7661 334.876C59.0835 334.984 59.3789 335.106 59.6523 335.243C59.9307 335.379 60.1602 335.589 60.3408 335.873C60.5215 336.156 60.6118 336.498 60.6118 336.898C60.6118 337.518 60.3604 338.048 59.8574 338.487C59.3594 338.927 58.71 339.146 57.9092 339.146C57.5576 339.146 57.2207 339.103 56.8984 339.015C56.5811 338.927 56.3198 338.822 56.1147 338.7C55.9097 338.578 55.729 338.456 55.5728 338.333C55.4214 338.207 55.3115 338.099 55.2432 338.011L55.1333 337.872L56.1074 336.898C56.1562 336.966 56.2271 337.052 56.3198 337.154C56.4175 337.257 56.6226 337.391 56.9351 337.557C57.2524 337.718 57.5771 337.799 57.9092 337.799C58.3096 337.799 58.6099 337.718 58.8101 337.557C59.0103 337.391 59.1104 337.171 59.1104 336.898C59.1104 336.688 59.02 336.515 58.8394 336.378C58.6587 336.236 58.4316 336.129 58.1582 336.056C57.8848 335.978 57.5894 335.885 57.272 335.777C56.9595 335.665 56.6641 335.543 56.3857 335.411C56.1123 335.274 55.8853 335.064 55.7046 334.781C55.5239 334.493 55.4336 334.149 55.4336 333.749C55.4336 333.197 55.6753 332.708 56.1587 332.284C56.647 331.859 57.2549 331.646 57.9824 331.646C58.2705 331.646 58.5488 331.681 58.8174 331.749C59.0908 331.812 59.313 331.893 59.4839 331.991C59.6548 332.083 59.8037 332.181 59.9307 332.284C60.0625 332.381 60.1577 332.459 60.2163 332.518L60.3115 332.628ZM68.0312 339H66.5298V338.253C66.5103 338.272 66.4761 338.304 66.4272 338.348C66.3833 338.392 66.2905 338.465 66.1489 338.568C66.0122 338.666 65.8633 338.756 65.7021 338.839C65.541 338.917 65.3384 338.988 65.0942 339.051C64.8501 339.115 64.6035 339.146 64.3545 339.146C63.6221 339.146 63.0142 338.934 62.5308 338.509C62.0474 338.084 61.8057 337.599 61.8057 337.052C61.8057 336.461 61.9912 335.965 62.3623 335.565C62.7383 335.165 63.251 334.911 63.9004 334.803L66.5298 334.349C66.5298 333.968 66.3882 333.648 66.105 333.39C65.8267 333.131 65.4678 333.001 65.0283 333.001C64.6475 333.001 64.3008 333.082 63.9883 333.243C63.6807 333.399 63.4683 333.558 63.3511 333.719L63.1533 333.976L62.1792 333.001C62.2085 332.962 62.2476 332.914 62.2964 332.855C62.3501 332.792 62.4648 332.684 62.6406 332.533C62.8213 332.376 63.0117 332.237 63.2119 332.115C63.4121 331.993 63.6758 331.886 64.0029 331.793C64.335 331.695 64.6768 331.646 65.0283 331.646C65.9072 331.646 66.6274 331.908 67.189 332.43C67.7505 332.948 68.0312 333.587 68.0312 334.349V339ZM64.5815 337.799C65.1919 337.799 65.668 337.618 66.0098 337.257C66.3564 336.891 66.5298 336.371 66.5298 335.697V335.55L64.2007 335.924C63.9321 335.973 63.7148 336.083 63.5488 336.253C63.3828 336.424 63.2998 336.639 63.2998 336.898C63.2998 337.137 63.4146 337.347 63.644 337.528C63.8784 337.708 64.1909 337.799 64.5815 337.799ZM71.7812 328.497V339H70.2871V328.497H71.7812ZM80.7021 335.924H75.0771C75.1553 336.432 75.4043 336.871 75.8242 337.242C76.249 337.613 76.752 337.799 77.333 337.799C77.7529 337.799 78.1436 337.704 78.5049 337.513C78.8711 337.323 79.1299 337.137 79.2812 336.957L79.5083 336.678L80.4824 337.652C80.4531 337.691 80.4067 337.748 80.3433 337.821C80.2847 337.889 80.1553 338.009 79.9551 338.18C79.7549 338.346 79.5425 338.495 79.3179 338.626C79.0933 338.753 78.8003 338.873 78.439 338.985C78.0825 339.093 77.7139 339.146 77.333 339.146C76.3125 339.146 75.4312 338.773 74.689 338.026C73.9517 337.274 73.583 336.373 73.583 335.323C73.583 334.312 73.9419 333.448 74.6597 332.73C75.3823 332.008 76.2466 331.646 77.2524 331.646C78.2632 331.646 79.103 331.983 79.772 332.657C80.4458 333.326 80.7827 334.166 80.7827 335.177L80.7021 335.924ZM77.2524 332.928C76.7104 332.928 76.2539 333.089 75.8828 333.412C75.5166 333.729 75.27 334.142 75.1431 334.649H79.3105C79.2227 334.142 78.9956 333.729 78.6294 333.412C78.2632 333.089 77.8042 332.928 77.2524 332.928Z" fill="#5F5F77"/>
<path d="M121.776 328.497H123.651V339H121.402V331.354H119.601V329.925C119.923 329.886 120.218 329.811 120.487 329.698C120.755 329.581 120.963 329.457 121.109 329.325C121.261 329.193 121.388 329.066 121.49 328.944C121.598 328.817 121.673 328.709 121.717 328.622L121.776 328.497ZM128.36 336.898C128.702 337.201 129.107 337.352 129.576 337.352C130.05 337.352 130.455 337.201 130.792 336.898C131.134 336.59 131.305 336.241 131.305 335.851C131.305 335.46 131.134 335.113 130.792 334.811C130.455 334.503 130.05 334.349 129.576 334.349C129.107 334.349 128.702 334.503 128.36 334.811C128.023 335.113 127.855 335.46 127.855 335.851C127.855 336.241 128.023 336.59 128.36 336.898ZM128.602 332.203C128.856 332.433 129.183 332.547 129.583 332.547C129.984 332.547 130.309 332.433 130.558 332.203C130.807 331.974 130.931 331.69 130.931 331.354C130.931 331.012 130.807 330.726 130.558 330.497C130.309 330.267 129.984 330.152 129.583 330.152C129.183 330.152 128.856 330.267 128.602 330.497C128.353 330.726 128.229 331.012 128.229 331.354C128.229 331.69 128.353 331.974 128.602 332.203ZM132.315 338.231C131.593 338.895 130.68 339.227 129.576 339.227C128.478 339.227 127.564 338.895 126.837 338.231C126.114 337.562 125.753 336.769 125.753 335.851C125.753 335.528 125.807 335.221 125.914 334.928C126.026 334.635 126.158 334.393 126.31 334.203C126.461 334.012 126.612 333.846 126.764 333.705C126.92 333.563 127.054 333.458 127.167 333.39L127.328 333.302C127.298 333.282 127.257 333.255 127.203 333.221C127.149 333.182 127.052 333.099 126.91 332.972C126.769 332.84 126.644 332.701 126.537 332.555C126.434 332.403 126.341 332.208 126.258 331.969C126.175 331.725 126.134 331.468 126.134 331.2C126.134 330.418 126.463 329.737 127.123 329.156C127.782 328.57 128.6 328.277 129.576 328.277C130.558 328.277 131.378 328.57 132.037 329.156C132.701 329.737 133.033 330.418 133.033 331.2C133.033 331.62 132.933 332.005 132.733 332.357C132.533 332.704 132.333 332.948 132.132 333.089L131.832 333.302C131.871 333.321 131.925 333.353 131.993 333.397C132.066 333.441 132.193 333.541 132.374 333.697C132.56 333.854 132.721 334.024 132.857 334.21C132.994 334.396 133.119 334.635 133.231 334.928C133.348 335.221 133.407 335.528 133.407 335.851C133.407 336.769 133.043 337.562 132.315 338.231ZM136.41 329.999C136.209 330.199 136.109 330.45 136.109 330.753C136.109 331.051 136.209 331.3 136.41 331.5C136.61 331.7 136.859 331.8 137.157 331.8C137.459 331.8 137.711 331.7 137.911 331.5C138.111 331.3 138.211 331.051 138.211 330.753C138.211 330.45 138.111 330.199 137.911 329.999C137.711 329.798 137.459 329.698 137.157 329.698C136.859 329.698 136.61 329.798 136.41 329.999ZM136.036 339L142.635 328.497H144.51L137.911 339H136.036ZM138.958 329.024C139.461 329.522 139.713 330.099 139.713 330.753C139.713 331.402 139.461 331.979 138.958 332.481C138.46 332.979 137.86 333.229 137.157 333.229C136.458 333.229 135.858 332.979 135.355 332.481C134.857 331.979 134.608 331.402 134.608 330.753C134.608 330.099 134.857 329.522 135.355 329.024C135.858 328.526 136.458 328.277 137.157 328.277C137.86 328.277 138.46 328.526 138.958 329.024ZM144.137 337.499C144.337 337.298 144.437 337.049 144.437 336.751C144.437 336.449 144.337 336.197 144.137 335.997C143.937 335.797 143.685 335.697 143.382 335.697C143.084 335.697 142.835 335.797 142.635 335.997C142.435 336.197 142.335 336.449 142.335 336.751C142.335 337.049 142.435 337.298 142.635 337.499C142.835 337.699 143.084 337.799 143.382 337.799C143.685 337.799 143.937 337.699 144.137 337.499ZM141.581 338.48C141.083 337.977 140.833 337.401 140.833 336.751C140.833 336.102 141.083 335.528 141.581 335.03C142.083 334.527 142.684 334.276 143.382 334.276C144.085 334.276 144.686 334.527 145.184 335.03C145.687 335.528 145.938 336.102 145.938 336.751C145.938 337.401 145.687 337.977 145.184 338.48C144.686 338.978 144.085 339.227 143.382 339.227C142.684 339.227 142.083 338.978 141.581 338.48Z" fill="#22293B"/>
<path d="M8.66667 318H13L4.33333 348H0L8.66667 318Z" fill="#5F5F77"/>
<g opacity="0.3">
<path d="M513 385H0V384H513V385Z" fill="url(#paint19_linear_92_64)"/>
<path d="M512 428H513V384H512V428Z" fill="url(#paint20_linear_92_64)"/>
</g>
<circle cx="512.5" cy="428.5" r="2.5" fill="#5F5F77"/>
<path d="M8.8 385H150L141.2 415H0L8.8 385Z" fill="url(#paint21_linear_92_64)" fill-opacity="0.15"/>
<path d="M32.5015 395.497H36.1782C37.6382 395.497 38.8906 396.015 39.9355 397.05C40.9805 398.085 41.5029 399.318 41.5029 400.749C41.5029 402.179 40.9805 403.412 39.9355 404.447C38.8906 405.482 37.6382 406 36.1782 406H32.5015V395.497ZM36.1782 396.999H34.1494V404.499H36.1782C37.1987 404.499 38.0654 404.137 38.7783 403.415C39.4912 402.687 39.8477 401.798 39.8477 400.749C39.8477 399.699 39.4912 398.812 38.7783 398.09C38.0654 397.362 37.1987 396.999 36.1782 396.999ZM50.043 402.924H44.418C44.4961 403.432 44.7451 403.871 45.165 404.242C45.5898 404.613 46.0928 404.799 46.6738 404.799C47.0938 404.799 47.4844 404.704 47.8457 404.513C48.2119 404.323 48.4707 404.137 48.6221 403.957L48.8491 403.678L49.8232 404.652C49.7939 404.691 49.7476 404.748 49.6841 404.821C49.6255 404.889 49.4961 405.009 49.2959 405.18C49.0957 405.346 48.8833 405.495 48.6587 405.626C48.4341 405.753 48.1411 405.873 47.7798 405.985C47.4233 406.093 47.0547 406.146 46.6738 406.146C45.6533 406.146 44.772 405.773 44.0298 405.026C43.2925 404.274 42.9238 403.373 42.9238 402.323C42.9238 401.312 43.2827 400.448 44.0005 399.73C44.7231 399.008 45.5874 398.646 46.5933 398.646C47.604 398.646 48.4438 398.983 49.1128 399.657C49.7866 400.326 50.1235 401.166 50.1235 402.177L50.043 402.924ZM46.5933 399.928C46.0513 399.928 45.5947 400.089 45.2236 400.412C44.8574 400.729 44.6108 401.142 44.4839 401.649H48.6514C48.5635 401.142 48.3364 400.729 47.9702 400.412C47.604 400.089 47.145 399.928 46.5933 399.928ZM55.2871 406H53.793L50.8633 398.8H52.438L54.54 404.052L56.6421 398.8H58.2168L55.2871 406ZM66.083 402.924H60.458C60.5361 403.432 60.7852 403.871 61.2051 404.242C61.6299 404.613 62.1328 404.799 62.7139 404.799C63.1338 404.799 63.5244 404.704 63.8857 404.513C64.252 404.323 64.5107 404.137 64.6621 403.957L64.8892 403.678L65.8633 404.652C65.834 404.691 65.7876 404.748 65.7241 404.821C65.6655 404.889 65.5361 405.009 65.3359 405.18C65.1357 405.346 64.9233 405.495 64.6987 405.626C64.4741 405.753 64.1812 405.873 63.8198 405.985C63.4634 406.093 63.0947 406.146 62.7139 406.146C61.6934 406.146 60.812 405.773 60.0698 405.026C59.3325 404.274 58.9639 403.373 58.9639 402.323C58.9639 401.312 59.3228 400.448 60.0405 399.73C60.7632 399.008 61.6274 398.646 62.6333 398.646C63.644 398.646 64.4839 398.983 65.1528 399.657C65.8267 400.326 66.1636 401.166 66.1636 402.177L66.083 402.924ZM62.6333 399.928C62.0913 399.928 61.6348 400.089 61.2637 400.412C60.8975 400.729 60.6509 401.142 60.5239 401.649H64.6914C64.6035 401.142 64.3765 400.729 64.0103 400.412C63.644 400.089 63.1851 399.928 62.6333 399.928ZM69.4521 395.497V406H67.958V395.497H69.4521ZM76.5859 404.103C77.0303 403.639 77.2524 403.073 77.2524 402.404C77.2524 401.73 77.0303 401.161 76.5859 400.697C76.1416 400.233 75.6143 400.001 75.0039 400.001C74.3936 400.001 73.8638 400.233 73.4146 400.697C72.9702 401.161 72.748 401.73 72.748 402.404C72.748 403.073 72.9702 403.639 73.4146 404.103C73.8638 404.567 74.3936 404.799 75.0039 404.799C75.6143 404.799 76.1416 404.567 76.5859 404.103ZM72.3672 405.033C71.625 404.286 71.2539 403.41 71.2539 402.404C71.2539 401.393 71.625 400.514 72.3672 399.767C73.1143 399.02 73.9932 398.646 75.0039 398.646C76.0146 398.646 76.8911 399.02 77.6333 399.767C78.3804 400.514 78.7539 401.393 78.7539 402.404C78.7539 403.41 78.3804 404.286 77.6333 405.033C76.8911 405.775 76.0146 406.146 75.0039 406.146C73.9932 406.146 73.1143 405.775 72.3672 405.033ZM84.2251 406.146C83.9565 406.146 83.6953 406.115 83.4414 406.051C83.1875 405.988 82.9702 405.91 82.7896 405.817C82.6089 405.719 82.4478 405.622 82.3062 405.524C82.1694 405.421 82.0693 405.341 82.0059 405.282L81.9033 405.172V409.149H80.4019V398.8H81.9033V399.628C81.9717 399.56 82.0669 399.469 82.189 399.357C82.3159 399.245 82.582 399.098 82.9873 398.917C83.3926 398.737 83.8052 398.646 84.2251 398.646C85.1772 398.646 86.0024 399.013 86.7007 399.745C87.4038 400.473 87.7554 401.356 87.7554 402.396C87.7554 403.437 87.4038 404.323 86.7007 405.055C86.0024 405.783 85.1772 406.146 84.2251 406.146ZM85.5947 400.705C85.1553 400.236 84.6499 400.001 84.0786 400.001C83.5073 400.001 83.002 400.236 82.5625 400.705C82.123 401.173 81.9033 401.74 81.9033 402.404C81.9033 403.063 82.123 403.627 82.5625 404.096C83.002 404.564 83.5073 404.799 84.0786 404.799C84.6499 404.799 85.1553 404.564 85.5947 404.096C86.0342 403.627 86.2539 403.063 86.2539 402.404C86.2539 401.74 86.0342 401.173 85.5947 400.705ZM98.6978 406V401.803C98.6978 401.212 98.561 400.766 98.2876 400.463C98.019 400.155 97.6553 400.001 97.1963 400.001C96.7275 400.001 96.3345 400.189 96.0171 400.565C95.7046 400.937 95.5483 401.449 95.5483 402.104V406H94.0469V401.803C94.0469 401.212 93.9102 400.766 93.6367 400.463C93.3682 400.155 93.0044 400.001 92.5454 400.001C92.0767 400.001 91.6836 400.189 91.3662 400.565C91.0537 400.937 90.8975 401.449 90.8975 402.104V406H89.396V398.8H90.8975V399.547C90.9561 399.479 91.0366 399.396 91.1392 399.298C91.2466 399.196 91.4663 399.062 91.7983 398.896C92.1353 398.729 92.4844 398.646 92.8457 398.646C93.1338 398.646 93.4072 398.688 93.666 398.771C93.9297 398.849 94.1396 398.949 94.2959 399.071C94.4521 399.188 94.5864 399.308 94.6987 399.43C94.8159 399.552 94.8989 399.652 94.9478 399.73L95.021 399.848C95.0405 399.818 95.0723 399.777 95.1162 399.723C95.165 399.669 95.2651 399.572 95.4165 399.43C95.5728 399.289 95.7388 399.167 95.9146 399.064C96.0903 398.957 96.3198 398.861 96.603 398.778C96.8911 398.69 97.189 398.646 97.4966 398.646C98.3364 398.646 98.9956 398.915 99.4741 399.452C99.9575 399.989 100.199 400.773 100.199 401.803V406H98.6978ZM108.974 402.924H103.349C103.427 403.432 103.676 403.871 104.096 404.242C104.521 404.613 105.023 404.799 105.604 404.799C106.024 404.799 106.415 404.704 106.776 404.513C107.143 404.323 107.401 404.137 107.553 403.957L107.78 403.678L108.754 404.652C108.725 404.691 108.678 404.748 108.615 404.821C108.556 404.889 108.427 405.009 108.227 405.18C108.026 405.346 107.814 405.495 107.589 405.626C107.365 405.753 107.072 405.873 106.71 405.985C106.354 406.093 105.985 406.146 105.604 406.146C104.584 406.146 103.703 405.773 102.96 405.026C102.223 404.274 101.854 403.373 101.854 402.323C101.854 401.312 102.213 400.448 102.931 399.73C103.654 399.008 104.518 398.646 105.524 398.646C106.535 398.646 107.375 398.983 108.043 399.657C108.717 400.326 109.054 401.166 109.054 402.177L108.974 402.924ZM105.524 399.928C104.982 399.928 104.525 400.089 104.154 400.412C103.788 400.729 103.542 401.142 103.415 401.649H107.582C107.494 401.142 107.267 400.729 106.901 400.412C106.535 400.089 106.076 399.928 105.524 399.928ZM112.196 398.8V399.547L112.292 399.452C112.335 399.408 112.428 399.337 112.57 399.24C112.711 399.137 112.86 399.047 113.017 398.969C113.178 398.886 113.38 398.812 113.625 398.749C113.874 398.681 114.123 398.646 114.372 398.646C115.241 398.646 115.944 398.932 116.481 399.503C117.023 400.075 117.294 400.841 117.294 401.803V406H115.792V401.803C115.792 401.286 115.626 400.856 115.294 400.514C114.967 400.172 114.56 400.001 114.071 400.001C113.5 400.001 113.043 400.187 112.702 400.558C112.365 400.924 112.196 401.439 112.196 402.104V406H110.695V398.8H112.196ZM120.297 397.899V396.398H121.645V398.8H123.146V400.148H121.645V403.883C121.645 404.152 121.73 404.372 121.901 404.542C122.072 404.713 122.287 404.799 122.545 404.799C122.658 404.799 122.775 404.787 122.897 404.762C123.024 404.738 123.122 404.711 123.19 404.682L123.3 404.652V406C123.002 406.098 122.65 406.146 122.245 406.146C120.844 406.146 120.146 405.397 120.15 403.898V400.148H118.795V398.8H119.55C120.048 398.8 120.297 398.5 120.297 397.899Z" fill="#805D81"/>
<path d="M162.776 395.497H164.651V406H162.402V398.354H160.601V396.925C160.923 396.886 161.218 396.811 161.487 396.698C161.755 396.581 161.963 396.457 162.109 396.325C162.261 396.193 162.388 396.066 162.49 395.944C162.598 395.817 162.673 395.709 162.717 395.622L162.776 395.497ZM169.36 403.898C169.702 404.201 170.107 404.352 170.576 404.352C171.05 404.352 171.455 404.201 171.792 403.898C172.134 403.59 172.305 403.241 172.305 402.851C172.305 402.46 172.134 402.113 171.792 401.811C171.455 401.503 171.05 401.349 170.576 401.349C170.107 401.349 169.702 401.503 169.36 401.811C169.023 402.113 168.855 402.46 168.855 402.851C168.855 403.241 169.023 403.59 169.36 403.898ZM169.602 399.203C169.856 399.433 170.183 399.547 170.583 399.547C170.984 399.547 171.309 399.433 171.558 399.203C171.807 398.974 171.931 398.69 171.931 398.354C171.931 398.012 171.807 397.726 171.558 397.497C171.309 397.267 170.984 397.152 170.583 397.152C170.183 397.152 169.856 397.267 169.602 397.497C169.353 397.726 169.229 398.012 169.229 398.354C169.229 398.69 169.353 398.974 169.602 399.203ZM173.315 405.231C172.593 405.895 171.68 406.227 170.576 406.227C169.478 406.227 168.564 405.895 167.837 405.231C167.114 404.562 166.753 403.769 166.753 402.851C166.753 402.528 166.807 402.221 166.914 401.928C167.026 401.635 167.158 401.393 167.31 401.203C167.461 401.012 167.612 400.846 167.764 400.705C167.92 400.563 168.054 400.458 168.167 400.39L168.328 400.302C168.298 400.282 168.257 400.255 168.203 400.221C168.149 400.182 168.052 400.099 167.91 399.972C167.769 399.84 167.644 399.701 167.537 399.555C167.434 399.403 167.341 399.208 167.258 398.969C167.175 398.725 167.134 398.468 167.134 398.2C167.134 397.418 167.463 396.737 168.123 396.156C168.782 395.57 169.6 395.277 170.576 395.277C171.558 395.277 172.378 395.57 173.037 396.156C173.701 396.737 174.033 397.418 174.033 398.2C174.033 398.62 173.933 399.005 173.733 399.357C173.533 399.704 173.333 399.948 173.132 400.089L172.832 400.302C172.871 400.321 172.925 400.353 172.993 400.397C173.066 400.441 173.193 400.541 173.374 400.697C173.56 400.854 173.721 401.024 173.857 401.21C173.994 401.396 174.119 401.635 174.231 401.928C174.348 402.221 174.407 402.528 174.407 402.851C174.407 403.769 174.043 404.562 173.315 405.231ZM177.41 396.999C177.209 397.199 177.109 397.45 177.109 397.753C177.109 398.051 177.209 398.3 177.41 398.5C177.61 398.7 177.859 398.8 178.157 398.8C178.459 398.8 178.711 398.7 178.911 398.5C179.111 398.3 179.211 398.051 179.211 397.753C179.211 397.45 179.111 397.199 178.911 396.999C178.711 396.798 178.459 396.698 178.157 396.698C177.859 396.698 177.61 396.798 177.41 396.999ZM177.036 406L183.635 395.497H185.51L178.911 406H177.036ZM179.958 396.024C180.461 396.522 180.713 397.099 180.713 397.753C180.713 398.402 180.461 398.979 179.958 399.481C179.46 399.979 178.86 400.229 178.157 400.229C177.458 400.229 176.858 399.979 176.355 399.481C175.857 398.979 175.608 398.402 175.608 397.753C175.608 397.099 175.857 396.522 176.355 396.024C176.858 395.526 177.458 395.277 178.157 395.277C178.86 395.277 179.46 395.526 179.958 396.024ZM185.137 404.499C185.337 404.298 185.437 404.049 185.437 403.751C185.437 403.449 185.337 403.197 185.137 402.997C184.937 402.797 184.685 402.697 184.382 402.697C184.084 402.697 183.835 402.797 183.635 402.997C183.435 403.197 183.335 403.449 183.335 403.751C183.335 404.049 183.435 404.298 183.635 404.499C183.835 404.699 184.084 404.799 184.382 404.799C184.685 404.799 184.937 404.699 185.137 404.499ZM182.581 405.48C182.083 404.977 181.833 404.401 181.833 403.751C181.833 403.102 182.083 402.528 182.581 402.03C183.083 401.527 183.684 401.276 184.382 401.276C185.085 401.276 185.686 401.527 186.184 402.03C186.687 402.528 186.938 403.102 186.938 403.751C186.938 404.401 186.687 404.977 186.184 405.48C185.686 405.978 185.085 406.227 184.382 406.227C183.684 406.227 183.083 405.978 182.581 405.48Z" fill="#22293B"/>
<path d="M8.66667 385H13L4.33333 415H0L8.66667 385Z" fill="#805D81"/>
<defs>
<linearGradient id="paint0_linear_92_64" x1="475.047" y1="30.1005" x2="669.332" y2="165.826" gradientUnits="userSpaceOnUse">
<stop stop-color="#55474B"/>
<stop offset="1" stop-color="#55474B" stop-opacity="0"/>
</linearGradient>
<linearGradient id="paint1_linear_92_64" x1="666.049" y1="168.563" x2="611.513" y2="378.056" gradientUnits="userSpaceOnUse">
<stop stop-color="#5F5F77"/>
<stop offset="1" stop-color="#5F5F77" stop-opacity="0"/>
</linearGradient>
<linearGradient id="paint2_linear_92_64" x1="610.773" y1="377.624" x2="399.019" y2="400.099" gradientUnits="userSpaceOnUse">
<stop stop-color="#805D81"/>
<stop offset="1" stop-color="#805D81" stop-opacity="0"/>
</linearGradient>
<linearGradient id="paint3_linear_92_64" x1="398.428" y1="424.143" x2="245.404" y2="191.647" gradientUnits="userSpaceOnUse">
<stop stop-color="#FFCD75"/>
<stop offset="1" stop-color="#FFCD75" stop-opacity="0"/>
</linearGradient>
<linearGradient id="paint4_linear_92_64" x1="280.763" y1="169.11" x2="363.42" y2="72.4803" gradientUnits="userSpaceOnUse">
<stop stop-color="#6FB085"/>
<stop offset="1" stop-color="#6FB085" stop-opacity="0"/>
</linearGradient>
<linearGradient id="paint5_linear_92_64" x1="357.382" y1="68.4102" x2="448.124" y2="101.575" gradientUnits="userSpaceOnUse">
<stop stop-color="#6F81B0"/>
<stop offset="1" stop-color="#6F81B0" stop-opacity="0"/>
</linearGradient>
<linearGradient id="paint6_linear_92_64" x1="356.835" y1="267.712" x2="593.26" y2="267.712" gradientUnits="userSpaceOnUse">
<stop stop-color="#55474B"/>
<stop offset="1" stop-color="#5F5F77"/>
</linearGradient>
<linearGradient id="paint7_linear_92_64" x1="0" y1="1" x2="388.962" y2="1" gradientUnits="userSpaceOnUse">
<stop stop-color="#5F5F77"/>
<stop offset="1" stop-color="#5F5F77" stop-opacity="0"/>
</linearGradient>
<linearGradient id="paint8_linear_92_64" x1="9.21999e-08" y1="65" x2="138" y2="65" gradientUnits="userSpaceOnUse">
<stop stop-color="#6F81B0"/>
<stop offset="1" stop-color="#6F81B0" stop-opacity="0"/>
</linearGradient>
<linearGradient id="paint9_linear_92_64" x1="0" y1="1" x2="300.784" y2="1" gradientUnits="userSpaceOnUse">
<stop stop-color="#5F5F77"/>
<stop offset="1" stop-color="#5F5F77" stop-opacity="0"/>
</linearGradient>
<linearGradient id="paint10_linear_92_64" x1="9.21998e-08" y1="132" x2="96" y2="132" gradientUnits="userSpaceOnUse">
<stop stop-color="#6FB085"/>
<stop offset="1" stop-color="#6FB085" stop-opacity="0"/>
</linearGradient>
<linearGradient id="paint11_linear_92_64" x1="0" y1="184" x2="599" y2="184" gradientUnits="userSpaceOnUse">
<stop stop-color="#5F5F77" stop-opacity="0"/>
<stop offset="1" stop-color="#5F5F77"/>
</linearGradient>
<linearGradient id="paint12_linear_92_64" x1="0" y1="184" x2="599" y2="184" gradientUnits="userSpaceOnUse">
<stop stop-color="#5F5F77" stop-opacity="0"/>
<stop offset="1" stop-color="#5F5F77"/>
</linearGradient>
<linearGradient id="paint13_linear_92_64" x1="9.21991e-08" y1="199" x2="129" y2="199" gradientUnits="userSpaceOnUse">
<stop stop-color="#55474B"/>
<stop offset="1" stop-color="#55474B" stop-opacity="0"/>
</linearGradient>
<linearGradient id="paint14_linear_92_64" x1="0" y1="1" x2="280.209" y2="1" gradientUnits="userSpaceOnUse">
<stop stop-color="#5F5F77"/>
<stop offset="1" stop-color="#5F5F77" stop-opacity="0"/>
</linearGradient>
<linearGradient id="paint15_linear_92_64" x1="9.21991e-08" y1="266" x2="88" y2="266" gradientUnits="userSpaceOnUse">
<stop stop-color="#FFCD75"/>
<stop offset="1" stop-color="#FFCD75" stop-opacity="0"/>
</linearGradient>
<linearGradient id="paint16_linear_92_64" x1="0" y1="318" x2="666.5" y2="318" gradientUnits="userSpaceOnUse">
<stop stop-color="#5F5F77" stop-opacity="0"/>
<stop offset="1" stop-color="#5F5F77"/>
</linearGradient>
<linearGradient id="paint17_linear_92_64" x1="0" y1="318" x2="666.5" y2="318" gradientUnits="userSpaceOnUse">
<stop stop-color="#5F5F77" stop-opacity="0"/>
<stop offset="1" stop-color="#5F5F77"/>
</linearGradient>
<linearGradient id="paint18_linear_92_64" x1="9.22003e-08" y1="333" x2="109" y2="333" gradientUnits="userSpaceOnUse">
<stop stop-color="#5F5F77"/>
<stop offset="1" stop-color="#5F5F77" stop-opacity="0"/>
</linearGradient>
<linearGradient id="paint19_linear_92_64" x1="0" y1="384" x2="512.5" y2="384" gradientUnits="userSpaceOnUse">
<stop stop-color="#5F5F77" stop-opacity="0"/>
<stop offset="1" stop-color="#5F5F77"/>
</linearGradient>
<linearGradient id="paint20_linear_92_64" x1="0" y1="384" x2="512.5" y2="384" gradientUnits="userSpaceOnUse">
<stop stop-color="#5F5F77" stop-opacity="0"/>
<stop offset="1" stop-color="#5F5F77"/>
</linearGradient>
<linearGradient id="paint21_linear_92_64" x1="9.22015e-08" y1="400" x2="150" y2="400" gradientUnits="userSpaceOnUse">
<stop stop-color="#805D81"/>
<stop offset="1" stop-color="#805D81" stop-opacity="0"/>
</linearGradient>
</defs>
</svg>
