<svg width="52" height="52" viewBox="0 0 52 52" fill="none" xmlns="http://www.w3.org/2000/svg">
<rect width="52" height="52" rx="4" fill="url(#paint0_linear_81_1134)"/>
<g clip-path="url(#clip0_81_1134)">
<path d="M25.3334 26.0003H26.6667M21.3334 26.0003H22.6667M29.3334 26.0003H30.6667M35.3334 35.3337H26C24.1541 35.3337 22.3496 34.7863 20.8147 33.7607C19.2798 32.7352 18.0836 31.2775 17.3771 29.572C16.6707 27.8666 16.4859 25.99 16.846 24.1795C17.2062 22.369 18.0951 20.706 19.4004 19.4007C20.7057 18.0954 22.3687 17.2065 24.1792 16.8463C25.9897 16.4862 27.8663 16.671 29.5717 17.3775C31.2772 18.0839 32.7348 19.2801 33.7604 20.815C34.786 22.3499 35.3334 24.1544 35.3334 26.0003V35.3337Z" stroke="#19171D" stroke-opacity="0.5" stroke-width="1.33333"/>
</g>
<defs>
<linearGradient id="paint0_linear_81_1134" x1="-6.43829e-07" y1="52" x2="36.7455" y2="-9.16438" gradientUnits="userSpaceOnUse">
<stop stop-color="#FFCD75"/>
<stop offset="1" stop-color="#D0A45B"/>
</linearGradient>
<clipPath id="clip0_81_1134">
<rect width="20" height="20" fill="white" transform="translate(16 16)"/>
</clipPath>
</defs>
</svg>
