<svg width="57" height="56" viewBox="0 0 57 56" fill="none" xmlns="http://www.w3.org/2000/svg">
<path d="M48.1372 54.25H11.3872C10.9042 54.25 10.5122 53.858 10.5122 53.375C10.5122 52.892 10.9042 52.5 11.3872 52.5H47.2622V6.125C47.2622 5.642 47.6542 5.25 48.1372 5.25C48.6202 5.25 49.0122 5.642 49.0122 6.125V53.375C49.0122 53.858 48.6202 54.25 48.1372 54.25Z" fill="url(#paint0_linear_70_181)"/>
<path d="M44.6372 50.75H7.88721C7.40421 50.75 7.01221 50.358 7.01221 49.875V15.2788C7.01221 14.7958 7.40421 14.4038 7.88721 14.4038C8.37021 14.4038 8.76221 14.7958 8.76221 15.2788V49H43.7622V3.5H21.8872C21.4042 3.5 21.0122 3.108 21.0122 2.625C21.0122 2.142 21.4042 1.75 21.8872 1.75H44.6372C45.1202 1.75 45.5122 2.142 45.5122 2.625V49.875C45.5122 50.358 45.1202 50.75 44.6372 50.75Z" fill="url(#paint1_linear_70_181)" fill-opacity="0.9"/>
<path d="M18.2833 2.50323L7.90698 12.0936C7.13181 12.81 7.7051 14 8.82545 14H19.2017C19.9043 14 20.4739 13.4955 20.4739 12.8732V3.28286C20.4739 2.2674 19.0765 1.77008 18.2833 2.50323Z" fill="#FFCD75"/>
<path fill-rule="evenodd" clip-rule="evenodd" d="M39 19H14L14 38H39V19ZM14 17C12.8954 17 12 17.8954 12 19V38C12 39.1046 12.8954 40 14 40H39C40.1046 40 41 39.1046 41 38V19C41 17.8954 40.1046 17 39 17H14Z" fill="url(#paint2_linear_70_181)" fill-opacity="0.9"/>
<path d="M19.875 24.75H33.875C34.358 24.75 34.75 24.358 34.75 23.875C34.75 23.392 34.358 23 33.875 23H19.875C19.392 23 19 23.392 19 23.875C19 24.358 19.392 24.75 19.875 24.75Z" fill="url(#paint3_linear_70_181)" fill-opacity="0.9"/>
<path d="M19.875 28.75H33.875C34.358 28.75 34.75 28.358 34.75 27.875C34.75 27.392 34.358 27 33.875 27H19.875C19.392 27 19 27.392 19 27.875C19 28.358 19.392 28.75 19.875 28.75Z" fill="url(#paint4_linear_70_181)" fill-opacity="0.9"/>
<path d="M24.5972 32.75H34.1528C34.4824 32.75 34.75 32.358 34.75 31.875C34.75 31.392 34.4824 31 34.1528 31H24.5972C24.2676 31 24 31.392 24 31.875C24 32.358 24.2676 32.75 24.5972 32.75Z" fill="url(#paint5_linear_70_181)" fill-opacity="0.9"/>
<defs>
<linearGradient id="paint0_linear_70_181" x1="29.7622" y1="5.25" x2="29.7622" y2="54.25" gradientUnits="userSpaceOnUse">
<stop stop-color="#55474B" stop-opacity="0.2"/>
<stop offset="1" stop-color="#55474B"/>
</linearGradient>
<linearGradient id="paint1_linear_70_181" x1="26.2622" y1="1.75" x2="26.2622" y2="50.75" gradientUnits="userSpaceOnUse">
<stop stop-color="#DADADA"/>
<stop offset="1" stop-color="#DADADA" stop-opacity="0.2"/>
</linearGradient>
<linearGradient id="paint2_linear_70_181" x1="24.7659" y1="30.3935" x2="41.0784" y2="30.3935" gradientUnits="userSpaceOnUse">
<stop stop-color="#DADADA"/>
<stop offset="1" stop-color="#DADADA" stop-opacity="0"/>
</linearGradient>
<linearGradient id="paint3_linear_70_181" x1="19.0757" y1="23.7098" x2="34.8257" y2="23.7098" gradientUnits="userSpaceOnUse">
<stop stop-color="#DADADA"/>
<stop offset="1" stop-color="#DADADA" stop-opacity="0"/>
</linearGradient>
<linearGradient id="paint4_linear_70_181" x1="19.0757" y1="27.7098" x2="34.8257" y2="27.7098" gradientUnits="userSpaceOnUse">
<stop stop-color="#DADADA"/>
<stop offset="1" stop-color="#DADADA" stop-opacity="0"/>
</linearGradient>
<linearGradient id="paint5_linear_70_181" x1="24.0517" y1="31.7098" x2="34.8017" y2="31.7098" gradientUnits="userSpaceOnUse">
<stop stop-color="#DADADA"/>
<stop offset="1" stop-color="#DADADA" stop-opacity="0"/>
</linearGradient>
</defs>
</svg>
