<svg width="57" height="56" viewBox="0 0 57 56" fill="none" xmlns="http://www.w3.org/2000/svg">
<path d="M48.1372 54.25H11.3872C10.9042 54.25 10.5122 53.858 10.5122 53.375C10.5122 52.892 10.9042 52.5 11.3872 52.5H47.2622V6.125C47.2622 5.642 47.6542 5.25 48.1372 5.25C48.6202 5.25 49.0122 5.642 49.0122 6.125V53.375C49.0122 53.858 48.6202 54.25 48.1372 54.25Z" fill="url(#paint0_linear_72_193)"/>
<path d="M44.6372 50.75H7.88721C7.40421 50.75 7.01221 50.358 7.01221 49.875V15.2788C7.01221 14.7958 7.40421 14.4038 7.88721 14.4038C8.37021 14.4038 8.76221 14.7958 8.76221 15.2788V49H43.7622V3.5H21.8872C21.4042 3.5 21.0122 3.108 21.0122 2.625C21.0122 2.142 21.4042 1.75 21.8872 1.75H44.6372C45.1202 1.75 45.5122 2.142 45.5122 2.625V49.875C45.5122 50.358 45.1202 50.75 44.6372 50.75Z" fill="url(#paint1_linear_72_193)" fill-opacity="0.9"/>
<path d="M18.2833 2.50323L7.90698 12.0936C7.13181 12.81 7.7051 14 8.82545 14H19.2017C19.9043 14 20.4739 13.4955 20.4739 12.8732V3.28286C20.4739 2.2674 19.0765 1.77008 18.2833 2.50323Z" fill="#FFCD75"/>
<path d="M13.1372 26.25H27.1372C27.6202 26.25 28.0122 25.858 28.0122 25.375C28.0122 24.892 27.6202 24.5 27.1372 24.5H13.1372C12.6542 24.5 12.2622 24.892 12.2622 25.375C12.2622 25.858 12.6542 26.25 13.1372 26.25Z" fill="url(#paint2_linear_72_193)" fill-opacity="0.9"/>
<path d="M13.1372 29.75H21.8872C22.3702 29.75 22.7622 29.358 22.7622 28.875C22.7622 28.392 22.3702 28 21.8872 28H13.1372C12.6542 28 12.2622 28.392 12.2622 28.875C12.2622 29.358 12.6542 29.75 13.1372 29.75Z" fill="url(#paint3_linear_72_193)" fill-opacity="0.9"/>
<path d="M13.1372 36.75H25.3872C25.8702 36.75 26.2622 36.358 26.2622 35.875C26.2622 35.392 25.8702 35 25.3872 35H13.1372C12.6542 35 12.2622 35.392 12.2622 35.875C12.2622 36.358 12.6542 36.75 13.1372 36.75Z" fill="url(#paint4_linear_72_193)" fill-opacity="0.9"/>
<path d="M13.1372 33.25H30.6372C31.1202 33.25 31.5122 32.858 31.5122 32.375C31.5122 31.892 31.1202 31.5 30.6372 31.5H13.1372C12.6542 31.5 12.2622 31.892 12.2622 32.375C12.2622 32.858 12.6542 33.25 13.1372 33.25Z" fill="url(#paint5_linear_72_193)" fill-opacity="0.9"/>
<path d="M34.1372 33.25H39.3872C39.8702 33.25 40.2622 32.858 40.2622 32.375C40.2622 31.892 39.8702 31.5 39.3872 31.5H34.1372C33.6542 31.5 33.2622 31.892 33.2622 32.375C33.2622 32.858 33.6542 33.25 34.1372 33.25Z" fill="url(#paint6_linear_72_193)" fill-opacity="0.9"/>
<path d="M30.6372 26.25H39.3872C39.8702 26.25 40.2622 25.858 40.2622 25.375C40.2622 24.892 39.8702 24.5 39.3872 24.5H30.6372C30.1542 24.5 29.7622 24.892 29.7622 25.375C29.7622 25.858 30.1542 26.25 30.6372 26.25Z" fill="url(#paint7_linear_72_193)" fill-opacity="0.9"/>
<path d="M16.6372 19.25H39.3872C39.8702 19.25 40.2622 18.858 40.2622 18.375C40.2622 17.892 39.8702 17.5 39.3872 17.5H16.6372C16.1542 17.5 15.7622 17.892 15.7622 18.375C15.7622 18.858 16.1542 19.25 16.6372 19.25Z" fill="url(#paint8_linear_72_193)" fill-opacity="0.9"/>
<path d="M13.1372 22.75H39.3872C39.8702 22.75 40.2622 22.358 40.2622 21.875C40.2622 21.392 39.8702 21 39.3872 21H13.1372C12.6542 21 12.2622 21.392 12.2622 21.875C12.2622 22.358 12.6542 22.75 13.1372 22.75Z" fill="url(#paint9_linear_72_193)" fill-opacity="0.9"/>
<path d="M25.3872 29.75H39.3872C39.8702 29.75 40.2622 29.358 40.2622 28.875C40.2622 28.392 39.8702 28 39.3872 28H25.3872C24.9042 28 24.5122 28.392 24.5122 28.875C24.5122 29.358 24.9042 29.75 25.3872 29.75Z" fill="url(#paint10_linear_72_193)" fill-opacity="0.9"/>
<defs>
<linearGradient id="paint0_linear_72_193" x1="29.7622" y1="5.25" x2="29.7622" y2="54.25" gradientUnits="userSpaceOnUse">
<stop stop-color="#55474B" stop-opacity="0.2"/>
<stop offset="1" stop-color="#55474B"/>
</linearGradient>
<linearGradient id="paint1_linear_72_193" x1="26.2622" y1="1.75" x2="26.2622" y2="50.75" gradientUnits="userSpaceOnUse">
<stop stop-color="#DADADA"/>
<stop offset="1" stop-color="#DADADA" stop-opacity="0.2"/>
</linearGradient>
<linearGradient id="paint2_linear_72_193" x1="24.5879" y1="28.7098" x2="40.3379" y2="28.7098" gradientUnits="userSpaceOnUse">
<stop stop-color="#DADADA"/>
<stop offset="1" stop-color="#DADADA" stop-opacity="0"/>
</linearGradient>
<linearGradient id="paint3_linear_72_193" x1="24.5879" y1="28.7098" x2="40.3379" y2="28.7098" gradientUnits="userSpaceOnUse">
<stop stop-color="#DADADA"/>
<stop offset="1" stop-color="#DADADA" stop-opacity="0"/>
</linearGradient>
<linearGradient id="paint4_linear_72_193" x1="24.5879" y1="28.7098" x2="40.3379" y2="28.7098" gradientUnits="userSpaceOnUse">
<stop stop-color="#DADADA"/>
<stop offset="1" stop-color="#DADADA" stop-opacity="0"/>
</linearGradient>
<linearGradient id="paint5_linear_72_193" x1="24.5879" y1="28.7098" x2="40.3379" y2="28.7098" gradientUnits="userSpaceOnUse">
<stop stop-color="#DADADA"/>
<stop offset="1" stop-color="#DADADA" stop-opacity="0"/>
</linearGradient>
<linearGradient id="paint6_linear_72_193" x1="24.5879" y1="28.7098" x2="40.3379" y2="28.7098" gradientUnits="userSpaceOnUse">
<stop stop-color="#DADADA"/>
<stop offset="1" stop-color="#DADADA" stop-opacity="0"/>
</linearGradient>
<linearGradient id="paint7_linear_72_193" x1="24.5879" y1="28.7098" x2="40.3379" y2="28.7098" gradientUnits="userSpaceOnUse">
<stop stop-color="#DADADA"/>
<stop offset="1" stop-color="#DADADA" stop-opacity="0"/>
</linearGradient>
<linearGradient id="paint8_linear_72_193" x1="24.5879" y1="28.7098" x2="40.3379" y2="28.7098" gradientUnits="userSpaceOnUse">
<stop stop-color="#DADADA"/>
<stop offset="1" stop-color="#DADADA" stop-opacity="0"/>
</linearGradient>
<linearGradient id="paint9_linear_72_193" x1="24.5879" y1="28.7098" x2="40.3379" y2="28.7098" gradientUnits="userSpaceOnUse">
<stop stop-color="#DADADA"/>
<stop offset="1" stop-color="#DADADA" stop-opacity="0"/>
</linearGradient>
<linearGradient id="paint10_linear_72_193" x1="24.5879" y1="28.7098" x2="40.3379" y2="28.7098" gradientUnits="userSpaceOnUse">
<stop stop-color="#DADADA"/>
<stop offset="1" stop-color="#DADADA" stop-opacity="0"/>
</linearGradient>
</defs>
</svg>
