<svg width="72" height="72" viewBox="0 0 72 72" fill="none" xmlns="http://www.w3.org/2000/svg">
<path d="M46.298 22.8229V6.70752H27.2526V9.63759H43.368V36.0082H37.5078V38.9383H52.1582V36.0082H46.298V25.753H62.4134V62.3789H46.298V49.1936H43.368V62.3789H9.67214V38.9383H19.9274V36.0082H9.67214V9.63759H19.9274V6.70752H6.74207V65.309H65.3435V22.8229H46.298Z" fill="url(#paint0_linear_81_454)"/>
<path d="M46.298 22.8229V6.70752H27.2526V9.63759H43.368V36.0082H37.5078V38.9383H52.1582V36.0082H46.298V25.753H62.4134V62.3789H46.298V49.1936H43.368V62.3789H9.67214V38.9383H19.9274V36.0082H9.67214V9.63759H19.9274V6.70752H6.74207V65.309H65.3435V22.8229H46.298Z" fill="url(#paint1_linear_81_454)" fill-opacity="0.6"/>
<path d="M58.0184 28.6833V57.984H46.2981V62.3791H62.4135V28.6833H58.0184ZM38.973 57.984H9.67224V62.3791H43.3681V52.1238H38.973V57.984ZM38.973 12.5679H43.3681V36.0084H38.973V12.5679Z" fill="#FFCD75"/>
<defs>
<linearGradient id="paint0_linear_81_454" x1="36.0428" y1="6.70752" x2="36.0428" y2="65.309" gradientUnits="userSpaceOnUse">
<stop stop-color="#5F5F77"/>
<stop offset="1" stop-color="#55474B" stop-opacity="0.35"/>
</linearGradient>
<linearGradient id="paint1_linear_81_454" x1="64.8281" y1="35.4731" x2="8.27317" y2="15.6623" gradientUnits="userSpaceOnUse">
<stop offset="0.435709" stop-color="white" stop-opacity="0"/>
<stop offset="0.436454" stop-color="white" stop-opacity="0.609375"/>
<stop offset="1" stop-color="white" stop-opacity="0"/>
</linearGradient>
</defs>
</svg>
