<svg width="72" height="72" viewBox="0 0 72 72" fill="none" xmlns="http://www.w3.org/2000/svg">
<path d="M33.1626 34.6074C33.1626 35.3807 33.4698 36.1224 34.0167 36.6693C34.5635 37.2161 35.3052 37.5233 36.0786 37.5233C36.8519 37.5233 37.5936 37.2161 38.1405 36.6693C38.6873 36.1224 38.9945 35.3807 38.9945 34.6074C38.9945 33.834 38.6873 33.0923 38.1405 32.5455C37.5936 31.9986 36.8519 31.6914 36.0786 31.6914C35.3052 31.6914 34.5635 31.9986 34.0167 32.5455C33.4698 33.0923 33.1626 33.834 33.1626 34.6074Z" fill="#FFCD75"/>
<path d="M46.2844 43.127V55.1613C46.2844 56.6928 47.526 57.9345 49.0576 57.9345H55.1751C56.7067 57.9345 57.9483 56.6928 57.9483 55.1613V43.127H46.2844Z" fill="#FFCD75"/>
<path d="M60.8641 17.1117H47.7424V12.7377C47.7424 10.3258 45.7804 8.36377 43.3684 8.36377H30.2467C27.8347 8.36377 25.8727 10.3258 25.8727 12.7377V17.1117H11.293C8.88106 17.1117 6.91907 19.0736 6.91907 21.4856V59.3929C6.91907 61.8049 8.88106 63.7669 11.293 63.7669H60.8641C63.2761 63.7669 65.2381 61.8049 65.2381 59.3929V21.4856C65.2381 19.0736 63.2761 17.1117 60.8641 17.1117ZM28.7887 12.7377C28.7887 11.934 29.443 11.2797 30.2467 11.2797H43.3684C44.1722 11.2797 44.8264 11.934 44.8264 12.7377V17.1117H28.7887V12.7377ZM62.3221 59.3929C62.3221 60.1967 61.6679 60.8509 60.8641 60.8509H11.293C10.4893 60.8509 9.83503 60.1967 9.83503 59.3929V29.6215L36.0437 42.0361L62.3221 30.9717V59.3929ZM62.3221 27.807L36.1135 38.8424L9.83503 26.3947V21.4855C9.83503 20.6818 10.4893 20.0275 11.293 20.0275H60.8641C61.6679 20.0275 62.3221 20.6818 62.3221 21.4855V27.807Z" fill="url(#paint0_linear_81_466)"/>
<path d="M60.8641 17.1117H47.7424V12.7377C47.7424 10.3258 45.7804 8.36377 43.3684 8.36377H30.2467C27.8347 8.36377 25.8727 10.3258 25.8727 12.7377V17.1117H11.293C8.88106 17.1117 6.91907 19.0736 6.91907 21.4856V59.3929C6.91907 61.8049 8.88106 63.7669 11.293 63.7669H60.8641C63.2761 63.7669 65.2381 61.8049 65.2381 59.3929V21.4856C65.2381 19.0736 63.2761 17.1117 60.8641 17.1117ZM28.7887 12.7377C28.7887 11.934 29.443 11.2797 30.2467 11.2797H43.3684C44.1722 11.2797 44.8264 11.934 44.8264 12.7377V17.1117H28.7887V12.7377ZM62.3221 59.3929C62.3221 60.1967 61.6679 60.8509 60.8641 60.8509H11.293C10.4893 60.8509 9.83503 60.1967 9.83503 59.3929V29.6215L36.0437 42.0361L62.3221 30.9717V59.3929ZM62.3221 27.807L36.1135 38.8424L9.83503 26.3947V21.4855C9.83503 20.6818 10.4893 20.0275 11.293 20.0275H60.8641C61.6679 20.0275 62.3221 20.6818 62.3221 21.4855V27.807Z" fill="url(#paint1_linear_81_466)" fill-opacity="0.6"/>
<path d="M56.4902 39.1693C56.4902 38.6467 56.0666 38.2231 55.5441 38.2231H54.5203C53.9978 38.2231 53.5742 38.6467 53.5742 39.1693V43.1346H56.4902V39.1693Z" fill="url(#paint2_linear_81_466)"/>
<path d="M56.4902 39.1693C56.4902 38.6467 56.0666 38.2231 55.5441 38.2231H54.5203C53.9978 38.2231 53.5742 38.6467 53.5742 39.1693V43.1346H56.4902V39.1693Z" fill="url(#paint3_linear_81_466)" fill-opacity="0.6"/>
<defs>
<linearGradient id="paint0_linear_81_466" x1="36.0786" y1="8.36377" x2="36.0786" y2="63.7669" gradientUnits="userSpaceOnUse">
<stop stop-color="#5F5F77"/>
<stop offset="1" stop-color="#55474B" stop-opacity="0.35"/>
</linearGradient>
<linearGradient id="paint1_linear_81_466" x1="64.7252" y1="35.5594" x2="9.09958" y2="15.0486" gradientUnits="userSpaceOnUse">
<stop offset="0.435709" stop-color="white" stop-opacity="0"/>
<stop offset="0.436454" stop-color="white" stop-opacity="0.609375"/>
<stop offset="1" stop-color="white" stop-opacity="0"/>
</linearGradient>
<linearGradient id="paint2_linear_81_466" x1="55.0322" y1="38.2231" x2="55.0322" y2="43.1346" gradientUnits="userSpaceOnUse">
<stop stop-color="#5F5F77"/>
<stop offset="1" stop-color="#55474B" stop-opacity="0.35"/>
</linearGradient>
<linearGradient id="paint3_linear_81_466" x1="56.4645" y1="40.634" x2="53.4361" y2="40.0042" gradientUnits="userSpaceOnUse">
<stop offset="0.435709" stop-color="white" stop-opacity="0"/>
<stop offset="0.436454" stop-color="white" stop-opacity="0.609375"/>
<stop offset="1" stop-color="white" stop-opacity="0"/>
</linearGradient>
</defs>
</svg>
