<svg width="73" height="72" viewBox="0 0 73 72" fill="none" xmlns="http://www.w3.org/2000/svg">
<path d="M59.1824 5.35205C58.6111 5.35205 58.0256 5.45651 57.4483 5.68105L38.3635 13.1028C36.5296 13.8159 35.3216 15.5819 35.3216 17.5496V24.1463L16.6043 15.7235C15.9572 15.4323 15.2927 15.2977 14.6451 15.2977C12.1327 15.2974 9.87512 17.3216 9.87512 20.0745V66.7691H41.6832V60.4075H63.9488V10.1277C63.9488 7.39129 61.7062 5.35205 59.1824 5.35205ZM38.5024 60.4075V63.5883H13.056V20.0745C13.056 19.836 13.1082 19.622 13.1923 19.4308C13.1964 19.4215 13.1987 19.41 13.203 19.4009C13.2884 19.2169 13.4088 19.0591 13.5495 18.9266C13.6434 18.8385 13.7571 18.7818 13.8669 18.7184C13.934 18.68 13.9924 18.6246 14.0635 18.5961C14.2465 18.5225 14.4408 18.4817 14.6356 18.4804C14.6387 18.4804 14.6419 18.4786 14.645 18.4786C14.8206 18.4786 14.995 18.533 15.1683 18.595C15.2115 18.6106 15.2561 18.6048 15.299 18.6242L27.0278 23.9022L34.0163 27.047L35.7112 27.8097L37.5646 28.6437C37.8438 28.7697 38.0808 28.9735 38.2471 29.2308C38.4135 29.488 38.5021 29.7878 38.5024 30.0941V60.4075H38.5024ZM60.768 57.2266H41.6832V30.094C41.6832 28.2165 40.5822 26.5135 38.8699 25.743L38.5024 25.5776V17.5496C38.5024 16.8888 38.9004 16.3069 39.5164 16.0674L58.6013 8.64547C58.7935 8.57074 58.9891 8.53287 59.1825 8.53287C59.9451 8.53287 60.7681 9.14264 60.7681 10.1277L60.768 57.2266Z" fill="url(#paint0_linear_81_480)"/>
<path d="M59.1824 5.35205C58.6111 5.35205 58.0256 5.45651 57.4483 5.68105L38.3635 13.1028C36.5296 13.8159 35.3216 15.5819 35.3216 17.5496V24.1463L16.6043 15.7235C15.9572 15.4323 15.2927 15.2977 14.6451 15.2977C12.1327 15.2974 9.87512 17.3216 9.87512 20.0745V66.7691H41.6832V60.4075H63.9488V10.1277C63.9488 7.39129 61.7062 5.35205 59.1824 5.35205ZM38.5024 60.4075V63.5883H13.056V20.0745C13.056 19.836 13.1082 19.622 13.1923 19.4308C13.1964 19.4215 13.1987 19.41 13.203 19.4009C13.2884 19.2169 13.4088 19.0591 13.5495 18.9266C13.6434 18.8385 13.7571 18.7818 13.8669 18.7184C13.934 18.68 13.9924 18.6246 14.0635 18.5961C14.2465 18.5225 14.4408 18.4817 14.6356 18.4804C14.6387 18.4804 14.6419 18.4786 14.645 18.4786C14.8206 18.4786 14.995 18.533 15.1683 18.595C15.2115 18.6106 15.2561 18.6048 15.299 18.6242L27.0278 23.9022L34.0163 27.047L35.7112 27.8097L37.5646 28.6437C37.8438 28.7697 38.0808 28.9735 38.2471 29.2308C38.4135 29.488 38.5021 29.7878 38.5024 30.0941V60.4075H38.5024ZM60.768 57.2266H41.6832V30.094C41.6832 28.2165 40.5822 26.5135 38.8699 25.743L38.5024 25.5776V17.5496C38.5024 16.8888 38.9004 16.3069 39.5164 16.0674L58.6013 8.64547C58.7935 8.57074 58.9891 8.53287 59.1825 8.53287C59.9451 8.53287 60.7681 9.14264 60.7681 10.1277L60.768 57.2266Z" fill="url(#paint1_linear_81_480)" fill-opacity="0.6"/>
<path d="M23.4607 28.1059H29.5307V34.1759H23.4607V28.1059ZM23.4607 39.4871H29.5307V45.5571H23.4607V39.4871ZM22.702 50.1095H30.2895V62.2495H22.702V50.1095ZM53.8106 19.7598H59.8806V25.8298H53.8106V19.7598ZM53.8106 31.1409H59.8806V37.2109H53.8106V31.1409ZM41.6707 44.0396H49.2581V56.1795H41.6707V44.0396Z" fill="#FFCD75"/>
<defs>
<linearGradient id="paint0_linear_81_480" x1="36.912" y1="5.35205" x2="36.912" y2="66.7691" gradientUnits="userSpaceOnUse">
<stop stop-color="#5F5F77"/>
<stop offset="1" stop-color="#55474B" stop-opacity="0.35"/>
</linearGradient>
<linearGradient id="paint1_linear_81_480" x1="63.4733" y1="35.4998" x2="9.97326" y2="18.9998" gradientUnits="userSpaceOnUse">
<stop offset="0.435709" stop-color="white" stop-opacity="0"/>
<stop offset="0.436454" stop-color="white" stop-opacity="0.609375"/>
<stop offset="1" stop-color="white" stop-opacity="0"/>
</linearGradient>
</defs>
</svg>
