<svg width="72" height="72" viewBox="0 0 72 72" fill="none" xmlns="http://www.w3.org/2000/svg">
<path d="M65.1914 16.5851C64.9557 15.3292 63.99 13.2215 60.1665 13.2215H59.3C59.2659 12.907 59.2466 12.5796 59.1738 12.2989C58.6446 10.2552 57.0877 9.0835 54.9018 9.0835H16.3633C14.1775 9.0835 12.6206 10.2552 12.0913 12.2989C12.0183 12.5808 11.9988 12.9094 11.9647 13.2256C8.1523 13.2996 7.14967 15.4927 6.90079 16.8161C5.60119 23.7544 19.1882 39.5989 30.3997 44.5038V52.4381H25.4502C23.9269 52.4381 22.692 53.673 22.692 55.1963V62.904H48.5733V55.1963C48.5733 53.673 47.3384 52.4381 45.815 52.4381H40.8656V44.1522C51.6335 39.0188 66.4951 23.5442 65.1914 16.5851ZM62.4803 17.0935C63.0896 20.3462 57.3944 28.0672 50.363 34.3002C54.8412 28.2735 58.4391 21.08 59.2056 15.9797H60.1665C62.2715 15.9797 62.4237 16.7884 62.4803 17.0935ZM9.61187 17.3238C9.68753 16.9244 9.87096 16.0022 12.0589 15.9752C12.8668 21.3599 16.8262 29.096 21.6508 35.3084C14.6493 29.0743 8.94349 20.8954 9.61187 17.3238ZM45.815 56.5755V60.1459H25.4502V56.5755C25.4502 55.8138 26.0676 55.1963 26.8293 55.1963H33.1579V42.1762L32.4481 41.7817C23.8246 36.9938 13.3196 18.5568 14.762 12.9905C14.9452 12.2814 15.2765 11.8417 16.3633 11.8417H54.9018C55.9887 11.8417 56.32 12.2814 56.5045 12.9905C57.9456 18.5575 47.4406 36.9938 38.8171 41.7816L38.1073 42.1762V55.1963H44.4359C45.1976 55.1963 45.815 55.8138 45.815 56.5755Z" fill="url(#paint0_linear_81_492)"/>
<path d="M65.1914 16.5851C64.9557 15.3292 63.99 13.2215 60.1665 13.2215H59.3C59.2659 12.907 59.2466 12.5796 59.1738 12.2989C58.6446 10.2552 57.0877 9.0835 54.9018 9.0835H16.3633C14.1775 9.0835 12.6206 10.2552 12.0913 12.2989C12.0183 12.5808 11.9988 12.9094 11.9647 13.2256C8.1523 13.2996 7.14967 15.4927 6.90079 16.8161C5.60119 23.7544 19.1882 39.5989 30.3997 44.5038V52.4381H25.4502C23.9269 52.4381 22.692 53.673 22.692 55.1963V62.904H48.5733V55.1963C48.5733 53.673 47.3384 52.4381 45.815 52.4381H40.8656V44.1522C51.6335 39.0188 66.4951 23.5442 65.1914 16.5851ZM62.4803 17.0935C63.0896 20.3462 57.3944 28.0672 50.363 34.3002C54.8412 28.2735 58.4391 21.08 59.2056 15.9797H60.1665C62.2715 15.9797 62.4237 16.7884 62.4803 17.0935ZM9.61187 17.3238C9.68753 16.9244 9.87096 16.0022 12.0589 15.9752C12.8668 21.3599 16.8262 29.096 21.6508 35.3084C14.6493 29.0743 8.94349 20.8954 9.61187 17.3238ZM45.815 56.5755V60.1459H25.4502V56.5755C25.4502 55.8138 26.0676 55.1963 26.8293 55.1963H33.1579V42.1762L32.4481 41.7817C23.8246 36.9938 13.3196 18.5568 14.762 12.9905C14.9452 12.2814 15.2765 11.8417 16.3633 11.8417H54.9018C55.9887 11.8417 56.32 12.2814 56.5045 12.9905C57.9456 18.5575 47.4406 36.9938 38.8171 41.7816L38.1073 42.1762V55.1963H44.4359C45.1976 55.1963 45.815 55.8138 45.815 56.5755Z" fill="url(#paint1_linear_81_492)" fill-opacity="0.6"/>
<path d="M41.458 56.3535H29.0459C28.2842 56.3535 27.6667 56.9709 27.6667 57.7327C27.6667 58.4943 28.2842 59.1118 29.0459 59.1118H41.458C42.2196 59.1118 42.8371 58.4944 42.8371 57.7327C42.8371 56.9709 42.2197 56.3535 41.458 56.3535ZM39.593 32.0964C40.3095 33.0467 40.9699 34.0743 41.5623 35.1742C42.6609 34.362 43.721 33.4399 44.7244 32.4111C44.0086 31.339 43.2326 30.3447 42.4089 29.4322C41.5217 30.4232 40.5768 31.3126 39.593 32.0964ZM53.7797 14.0571L49.7665 14.3497C48.9625 20.0387 46.6488 24.8795 43.5994 28.4379C44.4382 29.3443 45.2303 30.3334 45.9636 31.4008C49.9134 27.1787 52.9174 21.2012 53.8188 14.0817C53.8058 14.073 53.7926 14.0658 53.7797 14.0571Z" fill="#FFCD75"/>
<defs>
<linearGradient id="paint0_linear_81_492" x1="36.0429" y1="9.0835" x2="36.0429" y2="62.904" gradientUnits="userSpaceOnUse">
<stop stop-color="#5F5F77"/>
<stop offset="1" stop-color="#55474B" stop-opacity="0.35"/>
</linearGradient>
<linearGradient id="paint1_linear_81_492" x1="64.7575" y1="35.5023" x2="9.42842" y2="14.4511" gradientUnits="userSpaceOnUse">
<stop offset="0.435709" stop-color="white" stop-opacity="0"/>
<stop offset="0.436454" stop-color="white" stop-opacity="0.609375"/>
<stop offset="1" stop-color="white" stop-opacity="0"/>
</linearGradient>
</defs>
</svg>
