<svg width="90" height="14" viewBox="0 0 90 14" fill="none" xmlns="http://www.w3.org/2000/svg">
<g clip-path="url(#clip0_81_280)">
<path d="M13.0865 5.42316C13.0865 5.53261 13.0218 5.652 12.8924 5.78134L10.1837 8.42292L10.8254 12.154C10.8304 12.1888 10.8329 12.2385 10.8329 12.3032C10.8329 12.4077 10.8068 12.496 10.7546 12.5681C10.7023 12.6402 10.6265 12.6763 10.527 12.6763C10.4324 12.6763 10.333 12.6465 10.2285 12.5868L6.87801 10.8257L3.52753 12.5868C3.41809 12.6465 3.31859 12.6763 3.22905 12.6763C3.12458 12.6763 3.04623 12.6402 2.99399 12.5681C2.94176 12.496 2.91564 12.4077 2.91564 12.3032C2.91564 12.2734 2.92062 12.2236 2.93057 12.154L3.57231 8.42292L0.856108 5.78134C0.73174 5.64703 0.669556 5.52763 0.669556 5.42316C0.669556 5.2391 0.808848 5.12468 1.08743 5.07991L4.8334 4.53518L6.51237 1.13993C6.60688 0.935966 6.72877 0.833984 6.87801 0.833984C7.02725 0.833984 7.14913 0.935966 7.24365 1.13993L8.92262 4.53518L12.6686 5.07991C12.9472 5.12468 13.0865 5.2391 13.0865 5.42316Z" fill="url(#paint0_linear_81_280)"/>
</g>
<g clip-path="url(#clip1_81_280)">
<path d="M32.0303 5.42316C32.0303 5.53261 31.9656 5.652 31.8363 5.78134L29.1276 8.42292L29.7693 12.154C29.7743 12.1888 29.7768 12.2385 29.7768 12.3032C29.7768 12.4077 29.7506 12.496 29.6984 12.5681C29.6462 12.6402 29.5703 12.6763 29.4708 12.6763C29.3763 12.6763 29.2768 12.6465 29.1723 12.5868L25.8219 10.8257L22.4714 12.5868C22.3619 12.6465 22.2624 12.6763 22.1729 12.6763C22.0684 12.6763 21.9901 12.6402 21.9378 12.5681C21.8856 12.496 21.8595 12.4077 21.8595 12.3032C21.8595 12.2734 21.8645 12.2236 21.8744 12.154L22.5162 8.42292L19.8 5.78134C19.6756 5.64703 19.6134 5.52763 19.6134 5.42316C19.6134 5.2391 19.7527 5.12468 20.0313 5.07991L23.7772 4.53518L25.4562 1.13993C25.5507 0.935966 25.6726 0.833984 25.8219 0.833984C25.9711 0.833984 26.093 0.935966 26.1875 1.13993L27.8665 4.53518L31.6124 5.07991C31.891 5.12468 32.0303 5.2391 32.0303 5.42316Z" fill="url(#paint1_linear_81_280)"/>
</g>
<g clip-path="url(#clip2_81_280)">
<path d="M50.9739 5.42316C50.9739 5.53261 50.9092 5.652 50.7799 5.78134L48.0712 8.42292L48.7129 12.154C48.7179 12.1888 48.7204 12.2385 48.7204 12.3032C48.7204 12.4077 48.6942 12.496 48.642 12.5681C48.5898 12.6402 48.5139 12.6763 48.4144 12.6763C48.3199 12.6763 48.2204 12.6465 48.1159 12.5868L44.7655 10.8257L41.415 12.5868C41.3055 12.6465 41.206 12.6763 41.1165 12.6763C41.012 12.6763 40.9337 12.6402 40.8814 12.5681C40.8292 12.496 40.8031 12.4077 40.8031 12.3032C40.8031 12.2734 40.8081 12.2236 40.818 12.154L41.4598 8.42292L38.7436 5.78134C38.6192 5.64703 38.557 5.52763 38.557 5.42316C38.557 5.2391 38.6963 5.12468 38.9749 5.07991L42.7208 4.53518L44.3998 1.13993C44.4943 0.935966 44.6162 0.833984 44.7655 0.833984C44.9147 0.833984 45.0366 0.935966 45.1311 1.13993L46.8101 4.53518L50.556 5.07991C50.8346 5.12468 50.9739 5.2391 50.9739 5.42316Z" fill="url(#paint2_linear_81_280)"/>
</g>
<g clip-path="url(#clip3_81_280)">
<path d="M69.9178 5.42316C69.9178 5.53261 69.8531 5.652 69.7237 5.78134L67.015 8.42292L67.6567 12.154C67.6617 12.1888 67.6642 12.2385 67.6642 12.3032C67.6642 12.4077 67.6381 12.496 67.5859 12.5681C67.5336 12.6402 67.4578 12.6763 67.3583 12.6763C67.2637 12.6763 67.1642 12.6465 67.0598 12.5868L63.7093 10.8257L60.3588 12.5868C60.2494 12.6465 60.1499 12.6763 60.0603 12.6763C59.9559 12.6763 59.8775 12.6402 59.8253 12.5681C59.7731 12.496 59.7469 12.4077 59.7469 12.3032C59.7469 12.2734 59.7519 12.2236 59.7619 12.154L60.4036 8.42292L57.6874 5.78134C57.563 5.64703 57.5009 5.52763 57.5009 5.42316C57.5009 5.2391 57.6401 5.12468 57.9187 5.07991L61.6647 4.53518L63.3437 1.13993C63.4382 0.935966 63.5601 0.833984 63.7093 0.833984C63.8585 0.833984 63.9804 0.935966 64.0749 1.13993L65.7539 4.53518L69.4999 5.07991C69.7785 5.12468 69.9178 5.2391 69.9178 5.42316Z" fill="url(#paint3_linear_81_280)"/>
</g>
<g clip-path="url(#clip4_81_280)">
<path d="M88.8616 5.42316C88.8616 5.53261 88.7969 5.652 88.6676 5.78134L85.9589 8.42292L86.6006 12.154C86.6056 12.1888 86.6081 12.2385 86.6081 12.3032C86.6081 12.4077 86.5819 12.496 86.5297 12.5681C86.4775 12.6402 86.4016 12.6763 86.3021 12.6763C86.2076 12.6763 86.1081 12.6465 86.0036 12.5868L82.6532 10.8257L79.3027 12.5868C79.1932 12.6465 79.0937 12.6763 79.0042 12.6763C78.8997 12.6763 78.8214 12.6402 78.7691 12.5681C78.7169 12.496 78.6908 12.4077 78.6908 12.3032C78.6908 12.2734 78.6958 12.2236 78.7057 12.154L79.3475 8.42292L76.6313 5.78134C76.5069 5.64703 76.4447 5.52763 76.4447 5.42316C76.4447 5.2391 76.584 5.12468 76.8626 5.07991L80.6085 4.53518L82.2875 1.13993C82.382 0.935966 82.5039 0.833984 82.6532 0.833984C82.8024 0.833984 82.9243 0.935966 83.0188 1.13993L84.6978 4.53518L88.4437 5.07991C88.7223 5.12468 88.8616 5.2391 88.8616 5.42316Z" fill="url(#paint4_linear_81_280)"/>
</g>
<defs>
<linearGradient id="paint0_linear_81_280" x1="6.87801" y1="0.833984" x2="6.87801" y2="12.6763" gradientUnits="userSpaceOnUse">
<stop stop-color="#FFCD75"/>
<stop offset="1" stop-color="#CFA55B" stop-opacity="0.8"/>
</linearGradient>
<linearGradient id="paint1_linear_81_280" x1="25.8219" y1="0.833984" x2="25.8219" y2="12.6763" gradientUnits="userSpaceOnUse">
<stop stop-color="#FFCD75"/>
<stop offset="1" stop-color="#CFA55B" stop-opacity="0.8"/>
</linearGradient>
<linearGradient id="paint2_linear_81_280" x1="44.7655" y1="0.833984" x2="44.7655" y2="12.6763" gradientUnits="userSpaceOnUse">
<stop stop-color="#FFCD75"/>
<stop offset="1" stop-color="#CFA55B" stop-opacity="0.8"/>
</linearGradient>
<linearGradient id="paint3_linear_81_280" x1="63.7093" y1="0.833984" x2="63.7093" y2="12.6763" gradientUnits="userSpaceOnUse">
<stop stop-color="#FFCD75"/>
<stop offset="1" stop-color="#CFA55B" stop-opacity="0.8"/>
</linearGradient>
<linearGradient id="paint4_linear_81_280" x1="82.6532" y1="0.833984" x2="82.6532" y2="12.6763" gradientUnits="userSpaceOnUse">
<stop stop-color="#FFCD75"/>
<stop offset="1" stop-color="#CFA55B" stop-opacity="0.8"/>
</linearGradient>
<clipPath id="clip0_81_280">
<rect width="13.3721" height="13.3721" fill="white" transform="translate(0.192017 0.595215)"/>
</clipPath>
<clipPath id="clip1_81_280">
<rect width="13.3721" height="13.3721" fill="white" transform="translate(19.1359 0.595215)"/>
</clipPath>
<clipPath id="clip2_81_280">
<rect width="13.3721" height="13.3721" fill="white" transform="translate(38.0795 0.595215)"/>
</clipPath>
<clipPath id="clip3_81_280">
<rect width="13.3721" height="13.3721" fill="white" transform="translate(57.0233 0.595215)"/>
</clipPath>
<clipPath id="clip4_81_280">
<rect width="13.3721" height="13.3721" fill="white" transform="translate(75.9672 0.595215)"/>
</clipPath>
</defs>
</svg>
