<svg width="1920" height="1624" viewBox="0 0 1920 1624" fill="none" xmlns="http://www.w3.org/2000/svg">
<g clip-path="url(#clip0_101_19)">
<rect y="-29" width="1920" height="1653" fill="#F0F3F8"/>
<path d="M0 661H1920V1624H0V661Z" fill="url(#paint0_linear_101_19)"/>
<path opacity="0.2" d="M-1.58298 1.44108C-1.33446 0.587198 -0.551978 0 0.337335 0H158.337C159.669 0 160.629 1.27819 160.257 2.55768L45.8579 396.558C45.6098 397.412 44.827 398 43.9373 398H-114.335C-115.668 398 -116.628 396.721 -116.255 395.441L-1.58298 1.44108Z" fill="url(#paint1_linear_101_19)"/>
<line opacity="0.2" x1="204.171" y1="0.138283" x2="60.3569" y2="499.856" stroke="url(#paint2_linear_101_19)"/>
</g>
<defs>
<linearGradient id="paint0_linear_101_19" x1="960" y1="661" x2="960" y2="1624" gradientUnits="userSpaceOnUse">
<stop stop-color="#F0F3F8" stop-opacity="0"/>
<stop offset="1" stop-color="#FBF6F2"/>
</linearGradient>
<linearGradient id="paint1_linear_101_19" x1="256.009" y1="398" x2="256.009" y2="2.98701e-06" gradientUnits="userSpaceOnUse">
<stop stop-color="#5F5F77" stop-opacity="0"/>
<stop offset="1" stop-color="#5F5F77"/>
</linearGradient>
<linearGradient id="paint2_linear_101_19" x1="156.809" y1="0.000369196" x2="71.7189" y2="492.209" gradientUnits="userSpaceOnUse">
<stop stop-color="#5F5F77"/>
<stop offset="1" stop-color="#55474B" stop-opacity="0"/>
</linearGradient>
<clipPath id="clip0_101_19">
<rect width="1920" height="1624" fill="white"/>
</clipPath>
</defs>
</svg>
