<svg width="140" height="52" viewBox="0 0 140 52" fill="none" xmlns="http://www.w3.org/2000/svg">
<g opacity="0.8">
<mask id="mask0_93_125" style="mask-type:luminance" maskUnits="userSpaceOnUse" x="0" y="0" width="140" height="52">
<path d="M139.994 0H0.00561523V51.8519H139.994V0Z" fill="white"/>
</mask>
<g mask="url(#mask0_93_125)">
<path d="M55.9998 12.9629H61.5998V35.1859H67.1998V7.40576H61.5998C58.5198 7.40576 55.9998 9.90953 55.9998 12.9629Z" fill="#0A192B"/>
<path d="M72.7998 35.1861H78.3998V24.0718C78.3998 21.0184 75.8798 18.5146 72.7998 18.5146V35.1861Z" fill="#0A192B"/>
<path d="M83.9998 18.5202V35.1861H89.5998V24.0718H95.1998V29.6289C95.1998 32.6823 97.7198 35.1861 100.8 35.1861V24.0718C100.8 21.0184 98.2798 18.5146 95.1998 18.5146H83.9998V18.5202Z" fill="#0A192B"/>
<path d="M134.394 18.52H128.794V12.9629C128.794 9.90953 126.274 7.40576 123.194 7.40576V29.6288H111.994V24.0716H117.594V18.52H111.994C108.914 18.52 106.394 21.0183 106.394 24.0772V29.6343C106.394 32.6877 108.914 35.1915 111.994 35.1915H128.794V24.0716H134.394V29.6288C134.394 32.6822 136.914 35.1859 139.994 35.1859V24.0716C139.994 21.0183 137.474 18.52 134.394 18.52Z" fill="#0A192B"/>
<path d="M72.7998 12.9629H78.3998C78.3998 9.90953 75.8798 7.40576 72.7998 7.40576V12.9629Z" fill="#0A192B"/>
<path fill-rule="evenodd" clip-rule="evenodd" d="M64.7303 40.7433V44.3352H64.2151L62.1991 41.8481V44.3352H61.5999V40.7433H62.1151L64.1311 43.2416V40.7433H64.7303ZM76.1207 44.3297H73.9479V40.7378H76.0703V41.3263H74.5919V42.2201H75.9135V42.8085H74.5919V43.7357H76.1207V44.3297ZM85.3383 41.3318H86.5255V44.3352H87.1695V41.3318H88.3567V40.7433H85.3383V41.3318ZM102.065 40.7433H102.681L101.634 44.3352H101.029L100.145 41.7371L99.2767 44.3352H98.6719L97.5799 40.7433H98.3023L99.0415 43.3026L99.859 40.7433H100.497L101.332 43.3082L102.065 40.7433ZM112.437 41.2763C112.084 41.6316 111.905 42.0702 111.905 42.5976C111.905 43.1472 112.084 43.5913 112.442 43.9355C112.801 44.2797 113.254 44.4463 113.809 44.4463C114.357 44.4463 114.811 44.2742 115.175 43.9244C115.539 43.5747 115.718 43.1305 115.718 42.5976C115.718 42.048 115.539 41.6038 115.175 41.2596C114.817 40.9154 114.363 40.7489 113.809 40.7489C113.254 40.7433 112.795 40.921 112.437 41.2763ZM112.935 43.4969C112.7 43.2582 112.582 42.9584 112.582 42.592C112.582 42.2201 112.7 41.9203 112.929 41.6816C113.165 41.4484 113.456 41.3263 113.809 41.3263C114.156 41.3263 114.447 41.4428 114.682 41.6816C114.917 41.9203 115.041 42.2256 115.041 42.592C115.041 42.9529 114.929 43.2527 114.705 43.4969C114.486 43.7357 114.184 43.8578 113.809 43.8578C113.456 43.8578 113.165 43.7357 112.935 43.4969ZM125.58 42.9973V44.3408H124.936V40.7489C125.115 40.7489 125.317 40.7489 125.529 40.7433C125.742 40.7378 125.916 40.7378 126.05 40.7378C126.935 40.7378 127.377 41.1097 127.377 41.8481C127.377 42.1201 127.305 42.3478 127.165 42.5254C127.025 42.6975 126.857 42.8141 126.672 42.8752L127.82 44.3408H127.041L126.033 42.9973H125.58ZM126.017 41.3318C126 41.3318 125.972 41.3318 125.933 41.3374C125.893 41.3374 125.843 41.3374 125.77 41.3429H125.574V42.4088H125.994C126.201 42.4088 126.369 42.3589 126.498 42.2589C126.633 42.159 126.694 42.0258 126.694 41.8537C126.7 41.5039 126.47 41.3318 126.017 41.3318ZM137.037 44.3297H137.681V42.4754L139.177 44.3297H139.994L138.393 42.4088L139.899 40.7378H139.126L137.681 42.4421V40.7378H137.037V44.3297Z" fill="#2F7AEA"/>
<path d="M13.0029 28.2909L14.3077 18.5256L2.95654 10.709L13.3277 14.1898L15.7805 10.4647L24.7181 4.95752L44.4413 15.7332L45.4605 32.177L36.6853 44.2905L29.7413 45.3453L33.3365 38.8222V32.5434L30.7213 27.6413L28.0669 25.8981L23.9845 30.0729V34.4864L20.7981 37.4454L16.7605 37.9284L14.9629 38.9444L12.0229 38.0117L10.7965 33.637L13.0029 30.5559V28.2909Z" fill="white"/>
<path d="M31.1302 10.6259C28.9686 10.1818 26.5998 10.304 26.5998 10.304C26.5998 10.304 25.8214 13.8681 21.0054 14.8007C21.0446 14.8007 27.3726 16.9492 31.1302 10.6259Z" fill="#94A6C3"/>
<path d="M33.0903 42.9528C35.7055 40.9265 37.6655 38.134 38.5615 34.9752C38.6007 34.8531 38.9703 34.6532 39.2167 34.4866C39.6255 34.2424 40.0343 34.0425 40.1127 33.715C40.2751 32.7823 40.3591 31.8108 40.3591 30.8393C40.3591 30.4728 39.9895 30.112 39.6255 29.7456C39.3399 29.5013 39.0543 29.2182 39.0543 29.0183C38.6455 25.3321 36.9319 21.8901 34.1935 19.3752L33.9079 19.6584C36.5623 22.1288 38.2759 25.4931 38.6455 29.0572C38.6847 29.3792 39.0151 29.7067 39.3399 30.0287C39.6255 30.273 39.9503 30.6338 39.9503 30.8004C39.9503 31.7331 39.8663 32.6657 39.7039 33.5928C39.6647 33.7538 39.2951 33.9148 39.0095 34.0814C38.6007 34.2812 38.2311 34.4866 38.1527 34.8086C37.1727 38.2506 34.9271 41.2485 31.9479 43.1971C32.4799 42.0646 34.1543 38.3783 35.0503 36.513L34.8879 30.5173L29.7023 25.5375L26.7623 25.9427L23.5367 31.1279C23.5367 31.1279 25.0487 33.0321 22.9263 35.2583C20.8431 37.4456 19.2079 37.9342 19.2079 37.9342L17.6959 37.1237C18.1439 36.5574 19.0455 35.708 19.7399 35.1362C20.9215 34.1647 22.1087 34.0814 22.1087 33.0321C22.1479 30.8448 19.7791 31.4499 19.7791 31.4499L18.9223 32.2605L18.5527 35.2583L16.7551 37.4845L16.5535 37.4456L13.6135 36.7961C13.6135 36.7961 15.4111 35.8634 15.6967 34.8086C15.9823 33.7982 15.1255 30.434 15.0863 30.2286C15.1255 30.2674 15.9431 30.9558 16.3127 32.0939C16.9679 30.3118 17.8247 28.6075 18.0711 28.4465C18.3175 28.2855 21.6215 26.5423 21.6215 26.5423L20.5127 29.4236L21.3303 28.9795L23.2903 24.1996C23.2903 24.1996 25.2111 23.2669 26.6391 23.2669C29.2095 23.228 33.0063 20.108 31.2927 14.5176C31.7855 14.7174 40.2751 18.9311 41.7479 27.1974C42.8511 33.554 39.2167 39.5108 33.0903 42.9528Z" fill="#94A6C3"/>
<path d="M23.3742 11.5194C24.315 10.4258 23.9454 8.80469 23.9454 8.80469L21.2126 12.8129C21.1678 12.8129 22.187 12.8573 23.3742 11.5194Z" fill="#0A192B"/>
<path d="M14.1847 33.4316L14.5095 31.8105C14.5095 31.8105 13.1599 34.1589 13.0423 34.4864C12.9191 34.8528 13.1263 35.4968 13.6527 35.4579C14.1847 35.4191 14.8343 34.6474 14.8343 34.0811C14.8399 33.3539 14.1847 33.4316 14.1847 33.4316Z" fill="#0A192B"/>
<path d="M38.4382 7.67236C38.4382 7.67236 40.4822 7.75563 42.6046 7.99435C37.8278 4.26923 33.2974 3.17557 29.6182 3.17557C24.5558 3.17557 21.123 5.24076 20.9214 5.3629L22.5118 2.85358C22.5118 2.85358 16.1446 2.24845 13.899 8.93257C13.3278 7.50581 12.7958 5.44062 12.7958 5.44062C12.7958 5.44062 9.48624 8.31634 11.0374 13.0963C7.24064 11.7195 1.80864 9.81527 1.60704 9.77641C1.32144 9.73755 1.23744 9.85968 1.23744 9.85968C1.23744 9.85968 1.15344 9.98182 1.39984 10.1817C1.84784 10.5481 10.4214 16.8269 12.303 18.0427C11.8942 19.5028 11.8942 20.1912 12.303 20.8796C12.8742 21.8123 12.9134 22.2952 12.835 22.9836C12.751 23.672 12.0174 29.6289 11.855 30.3562C11.6926 31.0834 9.97904 33.676 10.0574 34.4477C10.1414 35.2194 11.1998 38.5003 12.1406 38.8612C12.835 39.1055 14.5486 39.6329 15.691 39.6329C16.0998 39.6329 16.4694 39.5496 16.6318 39.3886C17.3262 38.7835 17.5278 38.6613 18.0206 38.6613C18.0598 38.6613 18.1046 38.6613 18.1438 38.6613C18.3454 38.6613 18.5918 38.7002 18.8774 38.7002C19.5326 38.7002 20.3894 38.5781 20.9998 38.0118C21.8958 37.1235 23.447 35.9077 23.9398 35.3359C24.5502 34.5643 24.8806 33.515 24.7182 32.4602C24.595 31.4887 25.127 30.6393 25.7374 29.7843C26.5158 28.774 27.9438 26.9475 27.9438 26.9475C30.7606 29.0515 32.519 32.2548 32.519 35.8189C32.519 42.1366 26.9638 47.2441 20.1038 47.2441C19.0398 47.2441 18.0206 47.122 17.0014 46.8777C20.143 47.9714 22.7974 48.3378 24.9646 48.3378C29.579 48.3378 32.0262 46.6778 32.0262 46.6778C32.0262 46.6778 31.1694 47.7715 29.7806 49.0262C29.8198 49.0262 29.8198 49.0262 29.8198 49.0262C37.4526 47.9714 41.171 41.7369 41.171 41.7369C41.171 41.7369 40.8854 43.7632 40.5158 45.14C50.6798 37.5621 48.9662 28.0856 48.927 27.7636C49.011 27.8857 50.0302 29.1015 50.5622 29.751C52.1974 13.0574 38.4382 7.67236 38.4382 7.67236ZM22.803 34.3255C22.6406 34.5254 21.9462 35.1361 21.4534 35.5802C20.9606 36.0243 20.4342 36.474 20.0254 36.8737C19.863 37.0347 19.5382 37.118 19.0454 37.118C18.883 37.118 18.7206 37.118 18.5974 37.118C18.5134 37.118 18.435 37.118 18.351 37.118C18.267 37.118 18.2278 37.118 18.1886 37.118C18.0654 37.118 17.9422 37.118 17.819 37.118C18.4294 36.3075 20.227 34.4421 20.843 34.0369C21.5766 33.5483 21.9462 33.0653 21.4982 32.2159C21.0502 31.3665 19.863 31.5664 19.863 31.5664C19.863 31.5664 20.5574 31.2833 21.1678 31.2833C20.3894 31.0834 19.4094 31.2833 18.9614 31.7274C18.4686 32.1715 18.5526 33.7537 18.351 34.7641C18.1494 35.8189 17.455 36.3463 16.391 37.3179C15.8198 37.8453 15.411 38.0062 15.0862 38.0062C14.3918 37.8841 13.5742 37.6843 13.003 37.4788C12.5942 36.9514 11.9838 35.2082 11.8214 34.481C11.9446 34.0757 12.4318 33.2263 12.6782 32.7378C13.171 31.8051 13.4566 31.2777 13.535 30.7947C13.6974 30.1063 14.2294 25.8538 14.431 24.0718C14.963 24.7602 15.6966 25.8927 15.5342 26.6255C16.7158 24.9656 15.859 23.3445 15.4502 22.695C15.0806 22.0454 14.5934 20.7519 15.0022 19.3751C15.411 17.9983 16.8782 14.1899 16.8782 14.1899C16.8782 14.1899 17.3654 15.0393 18.0598 14.8783C18.7542 14.7173 24.3486 6.37329 24.3486 6.37329C24.3486 6.37329 25.8606 9.65428 24.2646 12.047C22.6294 14.4397 21.039 14.8839 21.039 14.8839C21.039 14.8839 23.2846 15.2891 25.3678 13.7902C26.2246 15.7777 27.0422 17.8429 27.0814 18.126C26.9582 18.4091 25.323 22.3008 25.1606 22.5395C25.0766 22.6228 24.5054 22.7838 24.0966 22.8615C23.4022 23.0614 22.9934 23.1835 22.831 23.3056C22.5454 23.5499 21.2406 27.114 20.6246 28.8572C19.891 29.0571 19.1574 29.4623 18.6254 30.2729C18.911 30.0675 19.807 29.9509 20.4622 29.8676C21.0334 29.8288 22.7918 30.7614 23.2398 32.4991C23.2398 32.5379 23.2398 32.5379 23.2398 32.5823C23.3294 33.2319 23.1278 33.837 22.803 34.3255ZM18.9614 34.8141C19.331 34.2867 19.2862 33.3984 19.331 33.1153C19.3702 32.8322 19.4542 32.3048 19.779 32.227C20.1038 32.1438 20.8822 32.2659 20.8822 32.8322C20.8822 33.3596 20.311 33.4817 19.9022 33.8426C19.6166 34.1257 19.0454 34.7308 18.9614 34.8141ZM35.2518 27.0752C35.6606 25.01 35.6998 23.2279 35.5766 21.7678C37.167 23.8719 38.147 26.4256 38.4326 29.0571C38.4718 29.3791 38.8022 29.7066 39.127 30.0286C39.4126 30.2729 39.7374 30.5949 39.7374 30.8003C39.7374 31.7329 39.6534 32.6656 39.491 33.5983C39.4518 33.7204 39.0822 33.9203 38.7966 34.0868C38.3878 34.2867 38.0182 34.4921 37.9398 34.8141C37.0438 37.9341 35.123 40.6877 32.547 42.6307C36.355 38.7002 38.1918 32.2215 35.2518 27.0752ZM32.6814 42.9971C35.3358 40.9708 37.3742 38.1339 38.2758 34.9362C38.315 34.8141 38.6846 34.6142 38.931 34.4477C39.3398 34.2478 39.7486 34.0036 39.827 33.676C39.9894 32.7433 40.0734 31.7718 40.0734 30.8003C40.0734 30.4339 39.7038 30.073 39.3398 29.7066C39.1382 29.4623 38.8078 29.1792 38.8078 28.9794C38.483 26.0204 37.2958 23.2279 35.459 20.9185C34.6414 16.0553 31.3766 14.5563 31.2926 14.5175C31.3766 14.6396 33.499 17.6763 32.0262 21.2404C30.5142 24.8434 26.639 24.2772 26.3086 24.3216C25.9838 24.3216 24.7182 25.9426 23.1222 28.9405C22.9206 28.8572 22.0582 28.6574 21.0782 28.8184C21.8118 26.792 22.915 23.9163 23.1222 23.672C23.2062 23.5888 23.8166 23.4278 24.2254 23.3056C25.0038 23.1058 25.3678 22.9836 25.491 22.8171C25.575 22.695 25.9782 21.7623 26.387 20.7908C26.7566 20.7908 27.6918 20.7075 27.7758 20.6686C27.8598 20.5854 28.6326 18.6034 28.6326 18.3592C28.6326 18.1593 27.0422 14.2288 26.4262 12.7299C26.7118 12.4079 26.9974 12.0026 27.283 11.5529C35.655 12.4412 42.1846 19.4917 42.1846 28.0411C42.1958 34.6087 38.315 40.3213 32.6814 42.9971Z" fill="#0A192B"/>
<path d="M21.823 21.1181C22.6014 20.2299 22.1926 18.5644 20.759 18.2813C21.1286 17.4319 21.655 15.7275 21.655 15.7275C21.655 15.7275 17.4886 22.2062 17.1246 22.3284C16.755 22.4505 16.391 21.0349 16.391 21.0349C15.6126 23.9939 17.6958 24.3991 17.9422 23.4665C19.0846 23.1833 21.0446 21.9675 21.823 21.1181Z" fill="#0A192B"/>
<path d="M18.2671 22.7006L20.3895 19.0977C20.3895 19.0977 21.6159 19.7028 20.9999 20.6799C20.2271 21.8068 18.2671 22.7006 18.2671 22.7006Z" fill="#FFD923"/>
<path d="M44.5255 39.3887C43.9151 40.1993 43.2207 41.0487 42.4031 41.8592C47.6727 31.8108 42.6495 22.6174 42.4423 22.251C42.8119 22.6174 43.1759 23.0226 43.5063 23.3835C47.5439 27.847 48.0367 34.5311 44.5255 39.3887Z" fill="#D82122"/>
<path d="M49.4198 26.4645C47.583 21.5624 44.9678 17.3876 39.211 13.6237C33.6558 9.97627 27.6974 10.2594 27.3726 10.3038C27.3334 10.3038 27.2886 10.3038 27.2886 10.3038C27.4902 10.2205 27.6974 10.1817 27.899 10.1428C29.1646 9.73755 30.7998 9.41556 32.4294 9.21015C36.7582 8.59947 41.1262 10.0595 44.1054 13.1795C44.1446 13.2184 44.1446 13.2184 44.1894 13.2628C47.583 16.8269 49.3414 21.2793 49.4198 26.4645Z" fill="#D82122"/>
<path d="M37.9062 6.41236C31.8246 5.27983 27.9046 5.8461 25.0878 6.9009C25.0038 6.57891 24.7182 5.92937 24.4774 5.40197C23.6206 6.41236 22.719 7.62816 22.1478 8.39983C20.5966 9.45463 19.9414 10.465 19.9414 10.465C20.8374 7.4283 23.4526 5.1577 26.639 4.59144C27.535 4.43044 28.515 4.34717 29.579 4.34717C32.3958 4.39158 35.2126 5.07998 37.9062 6.41236Z" fill="#D82122"/>
<path d="M15.411 14.1954C10.6342 14.0344 12.2246 8.5217 12.3086 8.19971C12.3086 8.23857 12.6334 12.5299 15.411 14.1954Z" fill="#D82122"/>
<path d="M20.1039 4.26904C16.4303 6.45637 17.1639 11.6804 17.1639 11.6804C13.6527 6.3731 19.8183 4.39118 20.1039 4.26904Z" fill="#D82122"/>
<path d="M14.0615 15.6499C14.3079 15.8554 14.5487 16.2162 14.2631 16.7436C14.1007 17.0267 13.8543 16.9879 13.4847 16.8269C12.9975 16.5826 10.0575 14.8838 7.40308 13.1406C10.4271 14.1954 13.4847 15.328 13.9775 15.5722C13.9831 15.5722 14.0223 15.6111 14.0615 15.6499Z" fill="white"/>
</g>
</g>
</svg>
