<svg width="140" height="52" viewBox="0 0 140 52" fill="none" xmlns="http://www.w3.org/2000/svg">
<g opacity="0.5">
<mask id="mask0_70_957" style="mask-type:luminance" maskUnits="userSpaceOnUse" x="0" y="0" width="140" height="52">
<path d="M139.995 0H0.0057373V51.8519H139.995V0Z" fill="white"/>
</mask>
<g mask="url(#mask0_70_957)">
<path d="M56 12.9629H61.6V35.1859H67.2V7.40576H61.6C58.52 7.40576 56 9.90953 56 12.9629Z" fill="#5F5F77"/>
<path d="M72.8 35.1861H78.4V24.0718C78.4 21.0184 75.88 18.5146 72.8 18.5146V35.1861Z" fill="#5F5F77"/>
<path d="M84 18.5202V35.1861H89.6V24.0718H95.2V29.6289C95.2 32.6823 97.72 35.1861 100.8 35.1861V24.0718C100.8 21.0184 98.28 18.5146 95.2 18.5146H84V18.5202Z" fill="#5F5F77"/>
<path d="M134.394 18.52H128.794V12.9629C128.794 9.90953 126.274 7.40576 123.194 7.40576V29.6288H111.994V24.0716H117.594V18.52H111.994C108.914 18.52 106.394 21.0183 106.394 24.0772V29.6343C106.394 32.6877 108.914 35.1915 111.994 35.1915H128.794V24.0716H134.394V29.6288C134.394 32.6822 136.914 35.1859 139.994 35.1859V24.0716C139.994 21.0183 137.474 18.52 134.394 18.52Z" fill="#5F5F77"/>
<path d="M72.8 12.9629H78.4C78.4 9.90953 75.88 7.40576 72.8 7.40576V12.9629Z" fill="#5F5F77"/>
<path fill-rule="evenodd" clip-rule="evenodd" d="M64.7304 40.7433V44.3352H64.2152L62.1992 41.8481V44.3352H61.6V40.7433H62.1152L64.1312 43.2416V40.7433H64.7304ZM76.1208 44.3297H73.948V40.7378H76.0704V41.3263H74.592V42.2201H75.9136V42.8085H74.592V43.7357H76.1208V44.3297ZM85.3384 41.3318H86.5256V44.3352H87.1696V41.3318H88.3568V40.7433H85.3384V41.3318ZM102.066 40.7433H102.682L101.634 44.3352H101.03L100.145 41.7371L99.2768 44.3352H98.672L97.58 40.7433H98.3024L99.0416 43.3026L99.8592 40.7433H100.498L101.332 43.3082L102.066 40.7433ZM112.437 41.2763C112.084 41.6316 111.905 42.0702 111.905 42.5976C111.905 43.1472 112.084 43.5913 112.442 43.9355C112.801 44.2797 113.254 44.4463 113.809 44.4463C114.358 44.4463 114.811 44.2742 115.175 43.9244C115.539 43.5747 115.718 43.1305 115.718 42.5976C115.718 42.048 115.539 41.6038 115.175 41.2596C114.817 40.9154 114.363 40.7489 113.809 40.7489C113.254 40.7433 112.795 40.921 112.437 41.2763ZM112.935 43.4969C112.7 43.2582 112.582 42.9584 112.582 42.592C112.582 42.2201 112.7 41.9203 112.93 41.6816C113.165 41.4484 113.456 41.3263 113.809 41.3263C114.156 41.3263 114.447 41.4428 114.682 41.6816C114.918 41.9203 115.041 42.2256 115.041 42.592C115.041 42.9529 114.929 43.2527 114.705 43.4969C114.486 43.7357 114.184 43.8578 113.809 43.8578C113.456 43.8578 113.165 43.7357 112.935 43.4969ZM125.58 42.9973V44.3408H124.936V40.7489C125.115 40.7489 125.317 40.7489 125.53 40.7433C125.742 40.7378 125.916 40.7378 126.05 40.7378C126.935 40.7378 127.378 41.1097 127.378 41.8481C127.378 42.1201 127.305 42.3478 127.165 42.5254C127.025 42.6975 126.857 42.8141 126.672 42.8752L127.82 44.3408H127.042L126.034 42.9973H125.58ZM126.017 41.3318C126 41.3318 125.972 41.3318 125.933 41.3374C125.894 41.3374 125.843 41.3374 125.77 41.3429H125.574V42.4088H125.994C126.202 42.4088 126.37 42.3589 126.498 42.2589C126.633 42.159 126.694 42.0258 126.694 41.8537C126.7 41.5039 126.47 41.3318 126.017 41.3318ZM137.038 44.3297H137.682V42.4754L139.177 44.3297H139.994L138.393 42.4088L139.899 40.7378H139.126L137.682 42.4421V40.7378H137.038V44.3297Z" fill="#5F5F77"/>
<path d="M13.0032 28.2909L14.308 18.5256L2.95685 10.709L13.328 14.1898L15.7808 10.4647L24.7184 4.95752L44.4417 15.7332L45.4608 32.177L36.6856 44.2905L29.7416 45.3453L33.3368 38.8222V32.5434L30.7216 27.6413L28.0673 25.8981L23.9848 30.0729V34.4864L20.7984 37.4454L16.7608 37.9284L14.9632 38.9444L12.0232 38.0117L10.7968 33.637L13.0032 30.5559V28.2909Z" fill="white"/>
<path d="M31.1304 10.6259C28.9688 10.1818 26.6 10.304 26.6 10.304C26.6 10.304 25.8216 13.8681 21.0056 14.8007C21.0448 14.8007 27.3728 16.9492 31.1304 10.6259Z" fill="#5F5F77"/>
<path d="M33.0904 42.9528C35.7056 40.9265 37.6656 38.134 38.5616 34.9752C38.6008 34.8531 38.9704 34.6532 39.2168 34.4866C39.6256 34.2424 40.0344 34.0425 40.1128 33.715C40.2752 32.7823 40.3592 31.8108 40.3592 30.8393C40.3592 30.4728 39.9896 30.112 39.6256 29.7456C39.34 29.5013 39.0544 29.2182 39.0544 29.0183C38.6456 25.3321 36.932 21.8901 34.1936 19.3752L33.908 19.6584C36.5624 22.1288 38.276 25.4931 38.6456 29.0572C38.6848 29.3792 39.0152 29.7067 39.34 30.0287C39.6256 30.273 39.9504 30.6338 39.9504 30.8004C39.9504 31.7331 39.8664 32.6657 39.704 33.5928C39.6648 33.7538 39.2952 33.9148 39.0096 34.0814C38.6008 34.2812 38.2312 34.4866 38.1528 34.8086C37.1728 38.2506 34.9272 41.2485 31.948 43.1971C32.48 42.0646 34.1544 38.3783 35.0504 36.513L34.888 30.5173L29.7024 25.5375L26.7624 25.9427L23.5368 31.1279C23.5368 31.1279 25.0488 33.0321 22.9264 35.2583C20.8432 37.4456 19.208 37.9342 19.208 37.9342L17.696 37.1237C18.144 36.5574 19.0456 35.708 19.74 35.1362C20.9216 34.1647 22.1088 34.0814 22.1088 33.0321C22.148 30.8448 19.7792 31.4499 19.7792 31.4499L18.9224 32.2605L18.5528 35.2583L16.7552 37.4845L16.5536 37.4456L13.6136 36.7961C13.6136 36.7961 15.4112 35.8634 15.6968 34.8086C15.9824 33.7982 15.1256 30.434 15.0864 30.2286C15.1256 30.2674 15.9432 30.9558 16.3128 32.0939C16.968 30.3118 17.8248 28.6075 18.0712 28.4465C18.3176 28.2855 21.6216 26.5423 21.6216 26.5423L20.5128 29.4236L21.3304 28.9795L23.2904 24.1995C23.2904 24.1995 25.2112 23.2669 26.6392 23.2669C29.2096 23.228 33.0064 20.108 31.2928 14.5176C31.7856 14.7174 40.2752 18.9311 41.748 27.1974C42.8512 33.554 39.2169 39.5108 33.0904 42.9528Z" fill="#5F5F77"/>
<path d="M23.3744 11.5194C24.3152 10.4258 23.9457 8.80469 23.9457 8.80469L21.2128 12.8129C21.168 12.8129 22.1872 12.8573 23.3744 11.5194Z" fill="#5F5F77"/>
<path d="M14.1848 33.4316L14.5096 31.8105C14.5096 31.8105 13.16 34.1589 13.0424 34.4864C12.9192 34.8528 13.1264 35.4968 13.6528 35.4579C14.1848 35.4191 14.8344 34.6474 14.8344 34.0811C14.84 33.3539 14.1848 33.4316 14.1848 33.4316Z" fill="#5F5F77"/>
<path d="M38.4384 7.67236C38.4384 7.67236 40.4824 7.75563 42.6048 7.99435C37.828 4.26923 33.2976 3.17557 29.6184 3.17557C24.556 3.17557 21.1232 5.24076 20.9216 5.3629L22.512 2.85358C22.512 2.85358 16.1448 2.24845 13.8992 8.93257C13.328 7.50581 12.796 5.44062 12.796 5.44062C12.796 5.44062 9.48642 8.31634 11.0376 13.0963C7.24082 11.7195 1.80882 9.81527 1.60722 9.77641C1.32162 9.73755 1.23762 9.85968 1.23762 9.85968C1.23762 9.85968 1.15362 9.98182 1.40002 10.1817C1.84802 10.5481 10.4216 16.8269 12.3032 18.0427C11.8944 19.5028 11.8944 20.1912 12.3032 20.8796C12.8744 21.8123 12.9136 22.2952 12.8352 22.9836C12.7512 23.672 12.0176 29.6289 11.8552 30.3562C11.6928 31.0834 9.97922 33.676 10.0576 34.4477C10.1416 35.2193 11.2 38.5003 12.1408 38.8612C12.8352 39.1055 14.5488 39.6329 15.6912 39.6329C16.1 39.6329 16.4696 39.5496 16.632 39.3886C17.3264 38.7835 17.528 38.6613 18.0208 38.6613C18.06 38.6613 18.1048 38.6613 18.144 38.6613C18.3456 38.6613 18.592 38.7002 18.8776 38.7002C19.5328 38.7002 20.3896 38.5781 21 38.0118C21.896 37.1235 23.4472 35.9077 23.94 35.3359C24.5504 34.5643 24.8808 33.515 24.7184 32.4602C24.5952 31.4887 25.1272 30.6393 25.7376 29.7843C26.516 28.774 27.944 26.9475 27.944 26.9475C30.7608 29.0515 32.5192 32.2548 32.5192 35.8189C32.5192 42.1366 26.964 47.2441 20.104 47.2441C19.04 47.2441 18.0208 47.122 17.0016 46.8777C20.1432 47.9714 22.7976 48.3378 24.9648 48.3378C29.5792 48.3378 32.0264 46.6778 32.0264 46.6778C32.0264 46.6778 31.1696 47.7715 29.7808 49.0262C29.82 49.0262 29.82 49.0262 29.82 49.0262C37.4528 47.9714 41.1712 41.7369 41.1712 41.7369C41.1712 41.7369 40.8856 43.7632 40.516 45.14C50.68 37.5621 48.9664 28.0856 48.9272 27.7636C49.0112 27.8857 50.0304 29.1015 50.5624 29.751C52.1976 13.0574 38.4384 7.67236 38.4384 7.67236ZM22.8032 34.3255C22.6408 34.5254 21.9464 35.1361 21.4536 35.5802C20.9608 36.0243 20.4344 36.474 20.0256 36.8737C19.8632 37.0347 19.5384 37.118 19.0456 37.118C18.8832 37.118 18.7208 37.118 18.5976 37.118C18.5136 37.118 18.4352 37.118 18.3512 37.118C18.2672 37.118 18.228 37.118 18.1888 37.118C18.0656 37.118 17.9424 37.118 17.8192 37.118C18.4296 36.3075 20.2272 34.4421 20.8432 34.0369C21.5768 33.5483 21.9464 33.0653 21.4984 32.2159C21.0504 31.3665 19.8632 31.5664 19.8632 31.5664C19.8632 31.5664 20.5576 31.2833 21.168 31.2833C20.3896 31.0834 19.4096 31.2833 18.9616 31.7274C18.4688 32.1715 18.5528 33.7537 18.3512 34.7641C18.1496 35.8189 17.4552 36.3463 16.3912 37.3179C15.82 37.8453 15.4112 38.0062 15.0864 38.0062C14.392 37.8841 13.5744 37.6843 13.0032 37.4788C12.5944 36.9514 11.984 35.2082 11.8216 34.481C11.9448 34.0757 12.432 33.2263 12.6784 32.7378C13.1712 31.8051 13.4568 31.2777 13.5352 30.7947C13.6976 30.1063 14.2296 25.8538 14.4312 24.0718C14.9632 24.7602 15.6968 25.8927 15.5344 26.6255C16.716 24.9656 15.8592 23.3445 15.4504 22.695C15.0808 22.0454 14.5936 20.7519 15.0024 19.3751C15.4112 17.9983 16.8784 14.1899 16.8784 14.1899C16.8784 14.1899 17.3656 15.0393 18.06 14.8783C18.7544 14.7173 24.3488 6.37329 24.3488 6.37329C24.3488 6.37329 25.8608 9.65428 24.2648 12.047C22.6296 14.4397 21.0392 14.8839 21.0392 14.8839C21.0392 14.8839 23.2848 15.2891 25.368 13.7902C26.2248 15.7777 27.0424 17.8429 27.0816 18.126C26.9584 18.4091 25.3232 22.3008 25.1608 22.5395C25.0768 22.6228 24.5056 22.7838 24.0968 22.8615C23.4024 23.0614 22.9936 23.1835 22.8312 23.3056C22.5456 23.5499 21.2408 27.114 20.6248 28.8572C19.8912 29.0571 19.1576 29.4623 18.6256 30.2729C18.9112 30.0675 19.8072 29.9509 20.4624 29.8676C21.0336 29.8288 22.792 30.7614 23.24 32.4991C23.24 32.5379 23.24 32.5379 23.24 32.5823C23.3296 33.2319 23.128 33.837 22.8032 34.3255ZM18.9616 34.8141C19.3312 34.2867 19.2864 33.3984 19.3312 33.1153C19.3704 32.8322 19.4544 32.3048 19.7792 32.227C20.104 32.1438 20.8824 32.2659 20.8824 32.8322C20.8824 33.3596 20.3112 33.4817 19.9024 33.8426C19.6168 34.1257 19.0456 34.7308 18.9616 34.8141ZM35.252 27.0752C35.6608 25.01 35.7 23.2279 35.5768 21.7678C37.1672 23.8719 38.1472 26.4256 38.4328 29.0571C38.472 29.3791 38.8024 29.7066 39.1272 30.0286C39.4128 30.2729 39.7376 30.5949 39.7376 30.8003C39.7376 31.733 39.6536 32.6656 39.4912 33.5983C39.452 33.7204 39.0824 33.9203 38.7968 34.0868C38.388 34.2867 38.0184 34.4921 37.94 34.8141C37.044 37.9341 35.1232 40.6877 32.5472 42.6307C36.3552 38.7002 38.192 32.2215 35.252 27.0752ZM32.6816 42.9971C35.336 40.9708 37.3744 38.1339 38.276 34.9362C38.3152 34.8141 38.6848 34.6142 38.9312 34.4477C39.34 34.2478 39.7488 34.0036 39.8272 33.676C39.9896 32.7433 40.0736 31.7718 40.0736 30.8003C40.0736 30.4339 39.704 30.073 39.34 29.7066C39.1384 29.4623 38.808 29.1792 38.808 28.9794C38.4832 26.0204 37.296 23.2279 35.4592 20.9185C34.6416 16.0553 31.3768 14.5563 31.2928 14.5175C31.3768 14.6396 33.4992 17.6763 32.0264 21.2404C30.5144 24.8434 26.6392 24.2772 26.3088 24.3216C25.984 24.3216 24.7184 25.9426 23.1224 28.9405C22.9208 28.8572 22.0584 28.6574 21.0784 28.8184C21.812 26.792 22.9152 23.9163 23.1224 23.672C23.2064 23.5888 23.8168 23.4278 24.2256 23.3056C25.004 23.1058 25.368 22.9836 25.4912 22.8171C25.5752 22.695 25.9784 21.7623 26.3872 20.7908C26.7568 20.7908 27.692 20.7075 27.776 20.6686C27.86 20.5854 28.6328 18.6034 28.6328 18.3592C28.6328 18.1593 27.0424 14.2288 26.4264 12.7299C26.712 12.4079 26.9976 12.0026 27.2832 11.5529C35.6552 12.4412 42.1848 19.4917 42.1848 28.0411C42.196 34.6087 38.3152 40.3213 32.6816 42.9971Z" fill="#5F5F77"/>
<path d="M21.8232 21.1181C22.6016 20.2299 22.1928 18.5644 20.7592 18.2813C21.1288 17.4319 21.6552 15.7275 21.6552 15.7275C21.6552 15.7275 17.4888 22.2062 17.1248 22.3284C16.7552 22.4505 16.3912 21.0349 16.3912 21.0349C15.6128 23.9939 17.696 24.3991 17.9424 23.4665C19.0848 23.1833 21.0448 21.9675 21.8232 21.1181Z" fill="#5F5F77"/>
<path d="M18.2672 22.7006L20.3896 19.0977C20.3896 19.0977 21.616 19.7028 21 20.6799C20.2272 21.8068 18.2672 22.7006 18.2672 22.7006Z" fill="#FFD923"/>
<path d="M44.5256 39.3887C43.9152 40.1993 43.2208 41.0487 42.4032 41.8592C47.6728 31.8108 42.6496 22.6174 42.4424 22.251C42.812 22.6174 43.176 23.0226 43.5064 23.3835C47.544 27.847 48.0368 34.5311 44.5256 39.3887Z" fill="#5F5F77"/>
<path d="M49.42 26.4645C47.5832 21.5624 44.968 17.3876 39.2112 13.6237C33.656 9.97627 27.6976 10.2594 27.3728 10.3038C27.3336 10.3038 27.2888 10.3038 27.2888 10.3038C27.4904 10.2205 27.6976 10.1817 27.8992 10.1428C29.1648 9.73755 30.8 9.41556 32.4296 9.21015C36.7584 8.59947 41.1264 10.0595 44.1056 13.1795C44.1448 13.2184 44.1448 13.2184 44.1896 13.2628C47.5832 16.8269 49.3416 21.2793 49.42 26.4645Z" fill="#5F5F77"/>
<path d="M37.9065 6.41236C31.8249 5.27983 27.9049 5.8461 25.0881 6.9009C25.0041 6.57891 24.7185 5.92937 24.4777 5.40197C23.6209 6.41236 22.7193 7.62816 22.1481 8.39983C20.5969 9.45463 19.9417 10.465 19.9417 10.465C20.8377 7.4283 23.4529 5.1577 26.6393 4.59144C27.5353 4.43044 28.5153 4.34717 29.5793 4.34717C32.3961 4.39158 35.2129 5.07998 37.9065 6.41236Z" fill="#5F5F77"/>
<path d="M15.4112 14.1954C10.6344 14.0344 12.2248 8.5217 12.3088 8.19971C12.3088 8.23857 12.6336 12.5299 15.4112 14.1954Z" fill="#5F5F77"/>
<path d="M20.104 4.26904C16.4304 6.45637 17.164 11.6804 17.164 11.6804C13.6528 6.3731 19.8184 4.39118 20.104 4.26904Z" fill="#5F5F77"/>
<path d="M14.0616 15.6499C14.308 15.8554 14.5488 16.2162 14.2632 16.7436C14.1008 17.0267 13.8544 16.9879 13.4848 16.8269C12.9976 16.5826 10.0576 14.8838 7.4032 13.1406C10.4272 14.1954 13.4848 15.328 13.9776 15.5722C13.9832 15.5722 14.0224 15.6111 14.0616 15.6499Z" fill="white"/>
</g>
</g>
</svg>
