<svg width="52" height="52" viewBox="0 0 52 52" fill="none" xmlns="http://www.w3.org/2000/svg">
<rect width="52" height="52" rx="4" fill="url(#paint0_linear_81_895)"/>
<g clip-path="url(#clip0_81_895)">
<path d="M26 17.9998L26.2627 17.3864C26.1797 17.3509 26.0903 17.3325 26 17.3325C25.9097 17.3325 25.8204 17.3509 25.7374 17.3864L26 17.9998ZM16.6667 21.9998L16.404 21.3864C16.2838 21.4377 16.1812 21.5231 16.1092 21.6322C16.0371 21.7412 15.9987 21.8691 15.9987 21.9998C15.9987 22.1305 16.0371 22.2583 16.1092 22.3674C16.1812 22.4764 16.2838 22.5619 16.404 22.6131L16.6667 21.9998ZM26 25.9998L25.7374 26.6131C25.8204 26.6487 25.9097 26.667 26 26.667C26.0903 26.667 26.1797 26.6487 26.2627 26.6131L26 25.9998ZM35.3334 21.9998L35.596 22.6131C35.7163 22.5619 35.8188 22.4764 35.8909 22.3674C35.963 22.2583 36.0014 22.1305 36.0014 21.9998C36.0014 21.8691 35.963 21.7412 35.8909 21.6322C35.8188 21.5231 35.7163 21.4377 35.596 21.3864L35.3334 21.9998ZM26 29.9998L25.7374 30.6131L26 30.7251L26.2627 30.6131L26 29.9998ZM26 33.9998L25.7374 34.6131L26 34.7251L26.2627 34.6131L26 33.9998ZM25.7374 17.3864L16.404 21.3864L16.9294 22.6131L26.2627 18.6131L25.7374 17.3864ZM16.404 22.6131L25.7374 26.6131L26.2627 25.3864L16.9294 21.3864L16.404 22.6131ZM26.2627 26.6131L35.596 22.6131L35.0707 21.3864L25.7374 25.3864L26.2627 26.6131ZM35.596 21.3864L26.2627 17.3864L25.7374 18.6131L35.0707 22.6131L35.596 21.3864ZM16.404 26.6131L25.7374 30.6131L26.2627 29.3864L16.9294 25.3864L16.404 26.6131ZM26.2627 30.6131L35.596 26.6131L35.0707 25.3864L25.7374 29.3864L26.2627 30.6131ZM16.404 30.6131L25.7374 34.6131L26.2627 33.3864L16.9294 29.3864L16.404 30.6131ZM26.2627 34.6131L35.596 30.6131L35.0707 29.3864L25.7374 33.3864L26.2627 34.6131Z" fill="#19171D" fill-opacity="0.5"/>
</g>
<defs>
<linearGradient id="paint0_linear_81_895" x1="-6.43829e-07" y1="52" x2="36.7455" y2="-9.16438" gradientUnits="userSpaceOnUse">
<stop stop-color="#FFCD75"/>
<stop offset="1" stop-color="#D0A45B"/>
</linearGradient>
<clipPath id="clip0_81_895">
<rect width="20" height="20" fill="white" transform="translate(16 16)"/>
</clipPath>
</defs>
</svg>
