<svg width="52" height="52" viewBox="0 0 52 52" fill="none" xmlns="http://www.w3.org/2000/svg">
<rect width="52" height="52" rx="4" fill="url(#paint0_linear_81_931)"/>
<path d="M21.3333 21.9998H30.6667M21.3333 27.3332H22.6667M25.3333 27.3332H26.6667M29.3333 27.3332H30.6667M21.3333 31.3332H22.6667M25.3333 31.3332H26.6667M29.3333 31.3332H30.6667M19.3333 35.3332H32.6667C33.0203 35.3332 33.3594 35.1927 33.6095 34.9426C33.8595 34.6926 34 34.3535 34 33.9998V17.9998C34 17.6462 33.8595 17.3071 33.6095 17.057C33.3594 16.807 33.0203 16.6665 32.6667 16.6665H19.3333C18.9797 16.6665 18.6406 16.807 18.3905 17.057C18.1405 17.3071 18 17.6462 18 17.9998V33.9998C18 34.3535 18.1405 34.6926 18.3905 34.9426C18.6406 35.1927 18.9797 35.3332 19.3333 35.3332Z" stroke="#19171D" stroke-opacity="0.5" stroke-width="1.33333"/>
<defs>
<linearGradient id="paint0_linear_81_931" x1="-6.43829e-07" y1="52" x2="36.7455" y2="-9.16438" gradientUnits="userSpaceOnUse">
<stop stop-color="#FFCD75"/>
<stop offset="1" stop-color="#D0A45B"/>
</linearGradient>
</defs>
</svg>
