<svg width="56" height="56" viewBox="0 0 56 56" fill="none" xmlns="http://www.w3.org/2000/svg">
<path d="M39 28C39 28.5304 39.2634 29.0391 39.7322 29.4142C40.2011 29.7893 40.837 30 41.5 30C42.163 30 42.7989 29.7893 43.2678 29.4142C43.7366 29.0391 44 28.5304 44 28C44 27.4696 43.7366 26.9609 43.2678 26.5858C42.7989 26.2107 42.163 26 41.5 26C40.837 26 40.2011 26.2107 39.7322 26.5858C39.2634 26.9609 39 27.4696 39 28Z" fill="#FFCD75"/>
<path d="M41.5946 36L38 40H45L41.5946 36Z" fill="#FFCD75"/>
<path d="M50.3064 48H32.6935C31.6774 48 31 47.4737 31 46.6842V44.3158C31 43.5263 31.6774 43 32.6935 43H50.3064C51.3226 43 52 43.5263 52 44.3158V46.6842C52 47.2105 51.3226 48 50.3064 48Z" fill="#FFCD75"/>
<path d="M23.2 49.1998H7.60003C4.80002 49.1998 2.40002 46.7998 2.40002 43.9998V7.99981C2.40002 5.19981 4.80002 2.7998 7.60003 2.7998H37.6C40.4 2.7998 42.8 5.19981 42.8 7.99981V19.9998C42.8 20.7998 42 21.5998 41.2 21.5998C40.4 21.5998 40 19.9998 40 19.1998V7.19981C40 5.99981 38.8 4.7998 37.6 4.7998H7.60003C6.40002 4.7998 5.20002 5.99981 5.20002 7.19981V43.1998C5.20002 44.3998 6.40002 45.5998 7.60003 45.5998H23.2C24 45.5998 24.8 46.3998 24.8 47.1998C24.8 47.9998 24 49.1998 23.2 49.1998Z" fill="url(#paint0_linear_81_1536)"/>
<path d="M23.2 49.1998H7.60003C4.80002 49.1998 2.40002 46.7998 2.40002 43.9998V7.99981C2.40002 5.19981 4.80002 2.7998 7.60003 2.7998H37.6C40.4 2.7998 42.8 5.19981 42.8 7.99981V19.9998C42.8 20.7998 42 21.5998 41.2 21.5998C40.4 21.5998 40 19.9998 40 19.1998V7.19981C40 5.99981 38.8 4.7998 37.6 4.7998H7.60003C6.40002 4.7998 5.20002 5.99981 5.20002 7.19981V43.1998C5.20002 44.3998 6.40002 45.5998 7.60003 45.5998H23.2C24 45.5998 24.8 46.3998 24.8 47.1998C24.8 47.9998 24 49.1998 23.2 49.1998Z" fill="url(#paint1_linear_81_1536)" fill-opacity="0.6"/>
<path d="M35.6 13.9998H9.60002C8.80002 13.9998 8.00002 13.1998 8.00002 12.3998C8.00002 11.5998 8.80002 10.7998 9.60002 10.7998H35.6C36.4 10.7998 37.2 11.5998 37.2 12.3998C37.2 13.1998 36.4 13.9998 35.6 13.9998ZM24.8 28.7998H9.60002C8.80002 28.7998 8.00002 27.9998 8.00002 27.1998C8.00002 26.3998 8.80002 25.5998 9.60002 25.5998H24.8C25.6 25.5998 26.4 26.3998 26.4 27.1998C26.4 27.9998 25.6 28.7998 24.8 28.7998ZM24.8 37.5998H9.60002C8.80002 37.5998 8.00002 36.7998 8.00002 35.9998C8.00002 35.1998 8.80002 34.3998 9.60002 34.3998H24.8C25.6 34.3998 26.4 35.1998 26.4 35.9998C26.4 36.7998 25.6 37.5998 24.8 37.5998ZM35.6 20.7998H9.60002C8.80002 20.7998 8.00002 20.3998 8.00002 19.5998C8.00002 18.7998 8.80002 17.9998 9.60002 17.9998H35.6C36.4 17.9998 37.2 18.7998 37.2 19.5998C37.2 20.3998 36.4 20.7998 35.6 20.7998Z" fill="url(#paint2_linear_81_1536)"/>
<path d="M35.6 13.9998H9.60002C8.80002 13.9998 8.00002 13.1998 8.00002 12.3998C8.00002 11.5998 8.80002 10.7998 9.60002 10.7998H35.6C36.4 10.7998 37.2 11.5998 37.2 12.3998C37.2 13.1998 36.4 13.9998 35.6 13.9998ZM24.8 28.7998H9.60002C8.80002 28.7998 8.00002 27.9998 8.00002 27.1998C8.00002 26.3998 8.80002 25.5998 9.60002 25.5998H24.8C25.6 25.5998 26.4 26.3998 26.4 27.1998C26.4 27.9998 25.6 28.7998 24.8 28.7998ZM24.8 37.5998H9.60002C8.80002 37.5998 8.00002 36.7998 8.00002 35.9998C8.00002 35.1998 8.80002 34.3998 9.60002 34.3998H24.8C25.6 34.3998 26.4 35.1998 26.4 35.9998C26.4 36.7998 25.6 37.5998 24.8 37.5998ZM35.6 20.7998H9.60002C8.80002 20.7998 8.00002 20.3998 8.00002 19.5998C8.00002 18.7998 8.80002 17.9998 9.60002 17.9998H35.6C36.4 17.9998 37.2 18.7998 37.2 19.5998C37.2 20.3998 36.4 20.7998 35.6 20.7998Z" fill="url(#paint3_linear_81_1536)" fill-opacity="0.6"/>
<path d="M41.6 33.5998C38.4 33.5998 35.6 31.1998 35.6 27.9998C35.6 24.7998 38 22.3998 41.2 22.3998C44.4 22.3998 46.8 24.7998 46.8 27.9998C47.2 31.1998 44.8 33.5998 41.6 33.5998ZM41.6 25.1998C40 25.1998 38.8 26.3998 38.8 27.9998C38.8 29.5998 40 30.7998 41.6 30.7998C43.2 30.7998 44 29.5998 44 27.9998C44 26.3998 42.8 25.1998 41.6 25.1998Z" fill="url(#paint4_linear_81_1536)"/>
<path d="M41.6 33.5998C38.4 33.5998 35.6 31.1998 35.6 27.9998C35.6 24.7998 38 22.3998 41.2 22.3998C44.4 22.3998 46.8 24.7998 46.8 27.9998C47.2 31.1998 44.8 33.5998 41.6 33.5998ZM41.6 25.1998C40 25.1998 38.8 26.3998 38.8 27.9998C38.8 29.5998 40 30.7998 41.6 30.7998C43.2 30.7998 44 29.5998 44 27.9998C44 26.3998 42.8 25.1998 41.6 25.1998Z" fill="url(#paint5_linear_81_1536)" fill-opacity="0.6"/>
<path d="M52.4 43.1998H30.8L41.6 30.7998L52.4 43.1998ZM37.2 39.9998H45.6L41.6 35.1998L37.2 39.9998Z" fill="url(#paint6_linear_81_1536)"/>
<path d="M52.4 43.1998H30.8L41.6 30.7998L52.4 43.1998ZM37.2 39.9998H45.6L41.6 35.1998L37.2 39.9998Z" fill="url(#paint7_linear_81_1536)" fill-opacity="0.6"/>
<path d="M52 51.1998H31.2C29.2 51.1998 27.6 49.5998 27.6 47.5998V43.9998C27.6 41.9998 29.2 40.3998 31.2 40.3998H52C54 40.3998 55.6 41.9998 55.6 43.9998V47.5998C55.6 49.1998 54 51.1998 52 51.1998ZM31.2 42.7998C30.8 42.7998 30.4 43.1998 30.4 43.5998V47.1998C30.4 47.5998 30.8 47.9998 31.2 47.9998H52C52.4 47.9998 52.8 47.5998 52.8 47.1998V43.5998C52.8 43.1998 52.4 42.7998 52 42.7998H31.2Z" fill="url(#paint8_linear_81_1536)"/>
<path d="M52 51.1998H31.2C29.2 51.1998 27.6 49.5998 27.6 47.5998V43.9998C27.6 41.9998 29.2 40.3998 31.2 40.3998H52C54 40.3998 55.6 41.9998 55.6 43.9998V47.5998C55.6 49.1998 54 51.1998 52 51.1998ZM31.2 42.7998C30.8 42.7998 30.4 43.1998 30.4 43.5998V47.1998C30.4 47.5998 30.8 47.9998 31.2 47.9998H52C52.4 47.9998 52.8 47.5998 52.8 47.1998V43.5998C52.8 43.1998 52.4 42.7998 52 42.7998H31.2Z" fill="url(#paint9_linear_81_1536)" fill-opacity="0.6"/>
<defs>
<linearGradient id="paint0_linear_81_1536" x1="29" y1="2.7998" x2="29" y2="51.1998" gradientUnits="userSpaceOnUse">
<stop stop-color="#5F5F77"/>
<stop offset="1" stop-color="#55474B" stop-opacity="0.35"/>
</linearGradient>
<linearGradient id="paint1_linear_81_1536" x1="55.1321" y1="26.5579" x2="4.93222" y2="7.22918" gradientUnits="userSpaceOnUse">
<stop offset="0.435709" stop-color="white" stop-opacity="0"/>
<stop offset="0.436454" stop-color="white" stop-opacity="0.609375"/>
<stop offset="1" stop-color="white" stop-opacity="0"/>
</linearGradient>
<linearGradient id="paint2_linear_81_1536" x1="29" y1="2.7998" x2="29" y2="51.1998" gradientUnits="userSpaceOnUse">
<stop stop-color="#5F5F77"/>
<stop offset="1" stop-color="#55474B" stop-opacity="0.35"/>
</linearGradient>
<linearGradient id="paint3_linear_81_1536" x1="55.1321" y1="26.5579" x2="4.93222" y2="7.22918" gradientUnits="userSpaceOnUse">
<stop offset="0.435709" stop-color="white" stop-opacity="0"/>
<stop offset="0.436454" stop-color="white" stop-opacity="0.609375"/>
<stop offset="1" stop-color="white" stop-opacity="0"/>
</linearGradient>
<linearGradient id="paint4_linear_81_1536" x1="29" y1="2.7998" x2="29" y2="51.1998" gradientUnits="userSpaceOnUse">
<stop stop-color="#5F5F77"/>
<stop offset="1" stop-color="#55474B" stop-opacity="0.35"/>
</linearGradient>
<linearGradient id="paint5_linear_81_1536" x1="55.1321" y1="26.5579" x2="4.93222" y2="7.22918" gradientUnits="userSpaceOnUse">
<stop offset="0.435709" stop-color="white" stop-opacity="0"/>
<stop offset="0.436454" stop-color="white" stop-opacity="0.609375"/>
<stop offset="1" stop-color="white" stop-opacity="0"/>
</linearGradient>
<linearGradient id="paint6_linear_81_1536" x1="29" y1="2.7998" x2="29" y2="51.1998" gradientUnits="userSpaceOnUse">
<stop stop-color="#5F5F77"/>
<stop offset="1" stop-color="#55474B" stop-opacity="0.35"/>
</linearGradient>
<linearGradient id="paint7_linear_81_1536" x1="55.1321" y1="26.5579" x2="4.93222" y2="7.22918" gradientUnits="userSpaceOnUse">
<stop offset="0.435709" stop-color="white" stop-opacity="0"/>
<stop offset="0.436454" stop-color="white" stop-opacity="0.609375"/>
<stop offset="1" stop-color="white" stop-opacity="0"/>
</linearGradient>
<linearGradient id="paint8_linear_81_1536" x1="29" y1="2.7998" x2="29" y2="51.1998" gradientUnits="userSpaceOnUse">
<stop stop-color="#5F5F77"/>
<stop offset="1" stop-color="#55474B" stop-opacity="0.35"/>
</linearGradient>
<linearGradient id="paint9_linear_81_1536" x1="55.1321" y1="26.5579" x2="4.93222" y2="7.22918" gradientUnits="userSpaceOnUse">
<stop offset="0.435709" stop-color="white" stop-opacity="0"/>
<stop offset="0.436454" stop-color="white" stop-opacity="0.609375"/>
<stop offset="1" stop-color="white" stop-opacity="0"/>
</linearGradient>
</defs>
</svg>
