<svg width="56" height="56" viewBox="0 0 56 56" fill="none" xmlns="http://www.w3.org/2000/svg">
<path d="M43.6667 37H13.3333C12 37 11 35.8409 11 34.2955V20.3864C11 20.3864 11 20 11.3333 20H47V33.1364C47 35.4545 45.3333 37 43.6667 37Z" fill="#FFCD75"/>
<path d="M29.2 5.20039C28.4 5.20039 27.6 4.40039 27.6 3.60039V2.00039C27.6 1.20039 28.4 0.400391 29.2 0.400391C30 0.400391 30.8 1.20039 30.8 2.00039V3.60039C30.8 4.40039 30 5.20039 29.2 5.20039ZM18.8 51.2004C18.4 51.2004 17.6 50.8004 17.6 50.4004C17.2 49.6004 17.6 48.8004 18.4 48.4004L28 44.4004V38.4004C28 37.6004 28.8 36.8004 29.6 36.8004C30.4 36.8004 31.2 37.6004 31.2 38.4004V46.4004L19.6 51.2004H18.8Z" fill="url(#paint0_linear_81_1547)"/>
<path d="M29.2 5.20039C28.4 5.20039 27.6 4.40039 27.6 3.60039V2.00039C27.6 1.20039 28.4 0.400391 29.2 0.400391C30 0.400391 30.8 1.20039 30.8 2.00039V3.60039C30.8 4.40039 30 5.20039 29.2 5.20039ZM18.8 51.2004C18.4 51.2004 17.6 50.8004 17.6 50.4004C17.2 49.6004 17.6 48.8004 18.4 48.4004L28 44.4004V38.4004C28 37.6004 28.8 36.8004 29.6 36.8004C30.4 36.8004 31.2 37.6004 31.2 38.4004V46.4004L19.6 51.2004H18.8Z" fill="url(#paint1_linear_81_1547)" fill-opacity="0.6"/>
<path d="M33.2 26.0004L43.6 14.0004L42 12.8004L32.4 23.6004L22.8 18.4004L12.4 30.4004L14 31.6004L23.2 20.8004L32.8 26.0004H33.2Z" fill="url(#paint2_linear_81_1547)"/>
<path d="M33.2 26.0004L43.6 14.0004L42 12.8004L32.4 23.6004L22.8 18.4004L12.4 30.4004L14 31.6004L23.2 20.8004L32.8 26.0004H33.2Z" fill="url(#paint3_linear_81_1547)" fill-opacity="0.6"/>
<path d="M46.4 39.6006H11.6C8.4 39.6006 6 37.2006 6 34.0006V8.80059C6 5.60059 8.4 3.20059 11.6 3.20059H46.8C50 3.20059 52.4 5.60059 52.4 8.80059V34.0006C52 37.2006 49.6 39.6006 46.4 39.6006ZM11.6 6.40059C10.4 6.40059 9.2 7.60059 9.2 8.80059V34.0006C9.2 35.2006 10.4 36.4006 11.6 36.4006H46.8C48 36.4006 49.2 35.2006 49.2 34.0006V8.80059C49.2 7.60059 48 6.40059 46.8 6.40059H11.6Z" fill="url(#paint4_linear_81_1547)"/>
<path d="M46.4 39.6006H11.6C8.4 39.6006 6 37.2006 6 34.0006V8.80059C6 5.60059 8.4 3.20059 11.6 3.20059H46.8C50 3.20059 52.4 5.60059 52.4 8.80059V34.0006C52 37.2006 49.6 39.6006 46.4 39.6006ZM11.6 6.40059C10.4 6.40059 9.2 7.60059 9.2 8.80059V34.0006C9.2 35.2006 10.4 36.4006 11.6 36.4006H46.8C48 36.4006 49.2 35.2006 49.2 34.0006V8.80059C49.2 7.60059 48 6.40059 46.8 6.40059H11.6Z" fill="url(#paint5_linear_81_1547)" fill-opacity="0.6"/>
<path d="M41.0428 50.4003C41.0428 50.8003 40.2428 51.2003 39.8428 51.2003H39.0428L29.253 47.2061L31.2 46.4004V44.5945L40.2428 48.4003C41.0428 48.8003 41.4428 49.6003 41.0428 50.4003Z" fill="url(#paint6_linear_81_1547)"/>
<path d="M41.0428 50.4003C41.0428 50.8003 40.2428 51.2003 39.8428 51.2003H39.0428L29.253 47.2061L31.2 46.4004V44.5945L40.2428 48.4003C41.0428 48.8003 41.4428 49.6003 41.0428 50.4003Z" fill="url(#paint7_linear_81_1547)" fill-opacity="0.6"/>
<defs>
<linearGradient id="paint0_linear_81_1547" x1="29.2" y1="0.400391" x2="29.2" y2="51.2004" gradientUnits="userSpaceOnUse">
<stop stop-color="#5F5F77"/>
<stop offset="1" stop-color="#55474B" stop-opacity="0.35"/>
</linearGradient>
<linearGradient id="paint1_linear_81_1547" x1="51.9919" y1="25.3365" x2="6.38626" y2="10.7448" gradientUnits="userSpaceOnUse">
<stop offset="0.435709" stop-color="white" stop-opacity="0"/>
<stop offset="0.436454" stop-color="white" stop-opacity="0.609375"/>
<stop offset="1" stop-color="white" stop-opacity="0"/>
</linearGradient>
<linearGradient id="paint2_linear_81_1547" x1="29.2" y1="0.400391" x2="29.2" y2="51.2004" gradientUnits="userSpaceOnUse">
<stop stop-color="#5F5F77"/>
<stop offset="1" stop-color="#55474B" stop-opacity="0.35"/>
</linearGradient>
<linearGradient id="paint3_linear_81_1547" x1="51.9919" y1="25.3365" x2="6.38626" y2="10.7448" gradientUnits="userSpaceOnUse">
<stop offset="0.435709" stop-color="white" stop-opacity="0"/>
<stop offset="0.436454" stop-color="white" stop-opacity="0.609375"/>
<stop offset="1" stop-color="white" stop-opacity="0"/>
</linearGradient>
<linearGradient id="paint4_linear_81_1547" x1="29.2" y1="0.400391" x2="29.2" y2="51.2004" gradientUnits="userSpaceOnUse">
<stop stop-color="#5F5F77"/>
<stop offset="1" stop-color="#55474B" stop-opacity="0.35"/>
</linearGradient>
<linearGradient id="paint5_linear_81_1547" x1="51.9919" y1="25.3365" x2="6.38626" y2="10.7448" gradientUnits="userSpaceOnUse">
<stop offset="0.435709" stop-color="white" stop-opacity="0"/>
<stop offset="0.436454" stop-color="white" stop-opacity="0.609375"/>
<stop offset="1" stop-color="white" stop-opacity="0"/>
</linearGradient>
<linearGradient id="paint6_linear_81_1547" x1="29.2" y1="0.400391" x2="29.2" y2="51.2004" gradientUnits="userSpaceOnUse">
<stop stop-color="#5F5F77"/>
<stop offset="1" stop-color="#55474B" stop-opacity="0.35"/>
</linearGradient>
<linearGradient id="paint7_linear_81_1547" x1="51.9919" y1="25.3365" x2="6.38626" y2="10.7448" gradientUnits="userSpaceOnUse">
<stop offset="0.435709" stop-color="white" stop-opacity="0"/>
<stop offset="0.436454" stop-color="white" stop-opacity="0.609375"/>
<stop offset="1" stop-color="white" stop-opacity="0"/>
</linearGradient>
</defs>
</svg>
