<svg width="56" height="56" viewBox="0 0 56 56" fill="none" xmlns="http://www.w3.org/2000/svg">
<path d="M50.1335 45.3147H39.1917C38.2968 45.3147 37.1875 44.8851 37.1875 43.9628V38.2872C37.1875 37.3649 38.0426 36.75 38.9375 36.75H50.1335C51.0284 36.75 51.625 37.3649 51.625 38.2872V43.9628C51.625 44.8851 50.7301 45.3147 50.1335 45.3147Z" fill="#FFCD75"/>
<path d="M16.8836 48.8147H5.86654C4.97165 48.8147 4.37512 48.3851 4.37512 47.4628V41.7872C4.37512 40.8649 5.23024 40.25 6.12512 40.25H16.8836C17.7785 40.25 18.8126 40.8649 18.8126 41.7872V47.4628C18.8126 48.3851 17.4802 48.8147 16.8836 48.8147Z" fill="#FFCD75"/>
<path d="M34.7999 20.4004H21.1999C19.1999 20.4004 17.6 18.8004 17.6 16.8004V6.00039C17.6 4.00039 19.1999 2.40039 21.1999 2.40039H34.7999C36.7999 2.40039 38.4 4.00039 38.4 6.00039V16.8004C38.4 18.8004 36.7999 20.4004 34.7999 20.4004ZM21.1999 5.60039C20.7999 5.60039 20.8 5.60039 20.8 6.00039V16.8004C20.8 17.2004 20.7999 17.2004 21.1999 17.2004H34.7999C35.1999 17.2004 35.2 17.2004 35.2 16.8004V6.00039C35.2 5.60039 35.1999 5.60039 34.7999 5.60039H21.1999Z" fill="url(#paint0_linear_81_1556)"/>
<path d="M34.7999 20.4004H21.1999C19.1999 20.4004 17.6 18.8004 17.6 16.8004V6.00039C17.6 4.00039 19.1999 2.40039 21.1999 2.40039H34.7999C36.7999 2.40039 38.4 4.00039 38.4 6.00039V16.8004C38.4 18.8004 36.7999 20.4004 34.7999 20.4004ZM21.1999 5.60039C20.7999 5.60039 20.8 5.60039 20.8 6.00039V16.8004C20.8 17.2004 20.7999 17.2004 21.1999 17.2004H34.7999C35.1999 17.2004 35.2 17.2004 35.2 16.8004V6.00039C35.2 5.60039 35.1999 5.60039 34.7999 5.60039H21.1999Z" fill="url(#paint1_linear_81_1556)" fill-opacity="0.6"/>
<path d="M51.2 52.0004H37.5999C35.5999 52.0004 34 50.4004 34 48.4004V37.2004C34 35.2004 35.5999 33.6004 37.5999 33.6004H51.2C53.2 33.6004 54.8 35.2004 54.8 37.2004V48.0004C54.8 50.0004 53.2 52.0004 51.2 52.0004ZM37.5999 36.8004C37.2 36.8004 37.2 36.8004 37.2 37.2004V48.4004C37.2 48.8004 37.2 48.8004 37.5999 48.8004H51.2C51.6 48.8004 51.6 48.4004 51.6 48.0004V37.2004C51.6 36.8004 51.6 36.8004 51.2 36.8004H37.5999Z" fill="url(#paint2_linear_81_1556)"/>
<path d="M51.2 52.0004H37.5999C35.5999 52.0004 34 50.4004 34 48.4004V37.2004C34 35.2004 35.5999 33.6004 37.5999 33.6004H51.2C53.2 33.6004 54.8 35.2004 54.8 37.2004V48.0004C54.8 50.0004 53.2 52.0004 51.2 52.0004ZM37.5999 36.8004C37.2 36.8004 37.2 36.8004 37.2 37.2004V48.4004C37.2 48.8004 37.2 48.8004 37.5999 48.8004H51.2C51.6 48.8004 51.6 48.4004 51.6 48.0004V37.2004C51.6 36.8004 51.6 36.8004 51.2 36.8004H37.5999Z" fill="url(#paint3_linear_81_1556)" fill-opacity="0.6"/>
<path d="M18.4 52.0004H4.79995C2.79995 52.0004 1.19995 50.4004 1.19995 48.4004V37.6004C1.19995 35.6004 2.79995 34.0004 4.79995 34.0004H18.4C20.4 34.0004 22 35.6004 22 37.6004V48.4004C22 50.4004 20 52.0004 18.4 52.0004ZM4.79995 37.2004C4.39995 37.2004 4.39995 37.2004 4.39995 37.6004V48.4004C4.39995 48.8004 4.39995 48.8004 4.79995 48.8004H18.4L18.7999 48.4004V37.6004C18.7999 37.2004 18.8 37.2004 18.4 37.2004H4.79995ZM26.7999 19.2004H29.2V26.4004H26.7999V19.2004ZM43.5999 28.0004H45.5999V34.4004H43.5999V28.0004Z" fill="url(#paint4_linear_81_1556)"/>
<path d="M18.4 52.0004H4.79995C2.79995 52.0004 1.19995 50.4004 1.19995 48.4004V37.6004C1.19995 35.6004 2.79995 34.0004 4.79995 34.0004H18.4C20.4 34.0004 22 35.6004 22 37.6004V48.4004C22 50.4004 20 52.0004 18.4 52.0004ZM4.79995 37.2004C4.39995 37.2004 4.39995 37.2004 4.39995 37.6004V48.4004C4.39995 48.8004 4.39995 48.8004 4.79995 48.8004H18.4L18.7999 48.4004V37.6004C18.7999 37.2004 18.8 37.2004 18.4 37.2004H4.79995ZM26.7999 19.2004H29.2V26.4004H26.7999V19.2004ZM43.5999 28.0004H45.5999V34.4004H43.5999V28.0004Z" fill="url(#paint5_linear_81_1556)" fill-opacity="0.6"/>
<path d="M10.4 27.6004H12.8V34.8004H10.4V27.6004Z" fill="url(#paint6_linear_81_1556)"/>
<path d="M10.4 27.6004H12.8V34.8004H10.4V27.6004Z" fill="url(#paint7_linear_81_1556)" fill-opacity="0.6"/>
<path d="M10.4 25.6004H45.5999V28.0004L10.4 28.0004V25.6004Z" fill="url(#paint8_linear_81_1556)"/>
<path d="M10.4 25.6004H45.5999V28.0004L10.4 28.0004V25.6004Z" fill="url(#paint9_linear_81_1556)" fill-opacity="0.6"/>
<defs>
<linearGradient id="paint0_linear_81_1556" x1="28" y1="2.40039" x2="28" y2="52.0004" gradientUnits="userSpaceOnUse">
<stop stop-color="#5F5F77"/>
<stop offset="1" stop-color="#55474B" stop-opacity="0.35"/>
</linearGradient>
<linearGradient id="paint1_linear_81_1556" x1="54.3285" y1="26.7475" x2="3.53194" y2="7.51875" gradientUnits="userSpaceOnUse">
<stop offset="0.435709" stop-color="white" stop-opacity="0"/>
<stop offset="0.436454" stop-color="white" stop-opacity="0.609375"/>
<stop offset="1" stop-color="white" stop-opacity="0"/>
</linearGradient>
<linearGradient id="paint2_linear_81_1556" x1="28" y1="2.40039" x2="28" y2="52.0004" gradientUnits="userSpaceOnUse">
<stop stop-color="#5F5F77"/>
<stop offset="1" stop-color="#55474B" stop-opacity="0.35"/>
</linearGradient>
<linearGradient id="paint3_linear_81_1556" x1="54.3285" y1="26.7475" x2="3.53194" y2="7.51875" gradientUnits="userSpaceOnUse">
<stop offset="0.435709" stop-color="white" stop-opacity="0"/>
<stop offset="0.436454" stop-color="white" stop-opacity="0.609375"/>
<stop offset="1" stop-color="white" stop-opacity="0"/>
</linearGradient>
<linearGradient id="paint4_linear_81_1556" x1="28" y1="2.40039" x2="28" y2="52.0004" gradientUnits="userSpaceOnUse">
<stop stop-color="#5F5F77"/>
<stop offset="1" stop-color="#55474B" stop-opacity="0.35"/>
</linearGradient>
<linearGradient id="paint5_linear_81_1556" x1="54.3285" y1="26.7475" x2="3.53194" y2="7.51875" gradientUnits="userSpaceOnUse">
<stop offset="0.435709" stop-color="white" stop-opacity="0"/>
<stop offset="0.436454" stop-color="white" stop-opacity="0.609375"/>
<stop offset="1" stop-color="white" stop-opacity="0"/>
</linearGradient>
<linearGradient id="paint6_linear_81_1556" x1="28" y1="2.40039" x2="28" y2="52.0004" gradientUnits="userSpaceOnUse">
<stop stop-color="#5F5F77"/>
<stop offset="1" stop-color="#55474B" stop-opacity="0.35"/>
</linearGradient>
<linearGradient id="paint7_linear_81_1556" x1="54.3285" y1="26.7475" x2="3.53194" y2="7.51875" gradientUnits="userSpaceOnUse">
<stop offset="0.435709" stop-color="white" stop-opacity="0"/>
<stop offset="0.436454" stop-color="white" stop-opacity="0.609375"/>
<stop offset="1" stop-color="white" stop-opacity="0"/>
</linearGradient>
<linearGradient id="paint8_linear_81_1556" x1="28" y1="2.40039" x2="28" y2="52.0004" gradientUnits="userSpaceOnUse">
<stop stop-color="#5F5F77"/>
<stop offset="1" stop-color="#55474B" stop-opacity="0.35"/>
</linearGradient>
<linearGradient id="paint9_linear_81_1556" x1="54.3285" y1="26.7475" x2="3.53194" y2="7.51875" gradientUnits="userSpaceOnUse">
<stop offset="0.435709" stop-color="white" stop-opacity="0"/>
<stop offset="0.436454" stop-color="white" stop-opacity="0.609375"/>
<stop offset="1" stop-color="white" stop-opacity="0"/>
</linearGradient>
</defs>
</svg>
