<svg width="236" height="185" viewBox="0 0 236 185" fill="none" xmlns="http://www.w3.org/2000/svg">
<path d="M8.8 155H118L109.2 185H0L8.8 155Z" fill="url(#paint0_linear_130_94)" fill-opacity="0.15"/>
<path d="M33.8491 165.497H35.1235V176H33.4756V168.053H31.6006V166.925C32.2305 166.857 32.709 166.708 33.0361 166.479C33.3682 166.244 33.6392 165.917 33.8491 165.497ZM39.269 174.579C38.2046 173.534 37.6724 172.257 37.6724 170.749C37.6724 169.24 38.2046 167.963 39.269 166.918C40.3335 165.873 41.6494 165.351 43.2168 165.351C44.7891 165.351 46.1074 165.873 47.1719 166.918C48.2363 167.963 48.7686 169.24 48.7686 170.749C48.7686 171.408 48.666 172.023 48.4609 172.594C48.2559 173.166 48.0068 173.627 47.7139 173.979C47.4209 174.325 47.1255 174.625 46.8276 174.879C46.5347 175.128 46.2832 175.302 46.0732 175.399L45.7729 175.568C45.7925 175.607 45.8242 175.658 45.8682 175.722C45.9121 175.785 46.0195 175.9 46.1904 176.066C46.3613 176.232 46.5542 176.371 46.769 176.483C46.9839 176.601 47.2842 176.696 47.6699 176.769C48.0557 176.847 48.4731 176.867 48.9224 176.828V178.175C48.3022 178.244 47.7163 178.217 47.1646 178.095C46.6177 177.978 46.1709 177.809 45.8242 177.589C45.4775 177.37 45.1748 177.147 44.916 176.923C44.6572 176.698 44.4717 176.5 44.3594 176.33L44.1982 176.073C43.8467 176.122 43.522 176.146 43.2241 176.146C41.6519 176.146 40.3335 175.624 39.269 174.579ZM40.4482 167.987C39.6963 168.739 39.3203 169.66 39.3203 170.749C39.3203 171.837 39.6963 172.76 40.4482 173.517C41.2051 174.274 42.1279 174.652 43.2168 174.652C44.3105 174.652 45.2334 174.274 45.9854 173.517C46.7422 172.76 47.1206 171.837 47.1206 170.749C47.1206 169.66 46.7422 168.739 45.9854 167.987C45.2334 167.23 44.3105 166.852 43.2168 166.852C42.1279 166.852 41.2051 167.23 40.4482 167.987ZM60.3994 176H53.4268C53.4268 175.351 53.5244 174.762 53.7197 174.235C53.915 173.703 54.1689 173.261 54.4814 172.909C54.7988 172.558 55.1455 172.235 55.5215 171.942C55.9023 171.649 56.2808 171.383 56.6567 171.144C57.0327 170.9 57.377 170.661 57.6895 170.426C58.0068 170.192 58.2632 169.918 58.4585 169.606C58.6538 169.289 58.7515 168.944 58.7515 168.573C58.7515 168.041 58.5854 167.621 58.2534 167.313C57.9263 167.006 57.4673 166.852 56.8765 166.852C56.5884 166.852 56.3174 166.906 56.0635 167.013C55.8145 167.116 55.6191 167.24 55.4775 167.387C55.3408 167.528 55.2188 167.672 55.1113 167.819C55.0088 167.965 54.938 168.092 54.8989 168.2L54.8477 168.354L53.5 167.753C53.5195 167.685 53.5464 167.597 53.5806 167.489C53.6196 167.382 53.7222 167.191 53.8882 166.918C54.0591 166.645 54.2568 166.403 54.4814 166.193C54.7061 165.983 55.0308 165.79 55.4556 165.614C55.8804 165.438 56.354 165.351 56.8765 165.351C57.9067 165.351 58.7515 165.661 59.4106 166.281C60.0698 166.901 60.3994 167.665 60.3994 168.573C60.3994 169.052 60.3018 169.496 60.1064 169.906C59.9111 170.316 59.6621 170.661 59.3594 170.939C59.0615 171.212 58.7173 171.496 58.3267 171.789C57.9409 172.077 57.5649 172.34 57.1987 172.58C56.8325 172.819 56.4712 173.107 56.1147 173.444C55.7632 173.776 55.4922 174.127 55.3018 174.499H60.3994V176ZM63.4902 174.682C62.6357 173.7 62.2085 172.389 62.2085 170.749C62.2085 169.108 62.6357 167.799 63.4902 166.823C64.3447 165.841 65.3921 165.351 66.6323 165.351C67.8726 165.351 68.9199 165.841 69.7744 166.823C70.6289 167.799 71.0562 169.108 71.0562 170.749C71.0562 172.389 70.6289 173.7 69.7744 174.682C68.9199 175.658 67.8726 176.146 66.6323 176.146C65.3921 176.146 64.3447 175.658 63.4902 174.682ZM68.5879 173.612C69.1348 172.914 69.4082 171.959 69.4082 170.749C69.4082 169.538 69.1348 168.585 68.5879 167.892C68.0459 167.199 67.394 166.852 66.6323 166.852C65.8706 166.852 65.2163 167.199 64.6694 167.892C64.1274 168.585 63.8564 169.538 63.8564 170.749C63.8564 171.959 64.1274 172.914 64.6694 173.612C65.2163 174.306 65.8706 174.652 66.6323 174.652C67.394 174.652 68.0459 174.306 68.5879 173.612ZM79.5303 176H72.5576C72.5576 175.351 72.6553 174.762 72.8506 174.235C73.0459 173.703 73.2998 173.261 73.6123 172.909C73.9297 172.558 74.2764 172.235 74.6523 171.942C75.0332 171.649 75.4116 171.383 75.7876 171.144C76.1636 170.9 76.5078 170.661 76.8203 170.426C77.1377 170.192 77.394 169.918 77.5894 169.606C77.7847 169.289 77.8823 168.944 77.8823 168.573C77.8823 168.041 77.7163 167.621 77.3843 167.313C77.0571 167.006 76.5981 166.852 76.0073 166.852C75.7192 166.852 75.4482 166.906 75.1943 167.013C74.9453 167.116 74.75 167.24 74.6084 167.387C74.4717 167.528 74.3496 167.672 74.2422 167.819C74.1396 167.965 74.0688 168.092 74.0298 168.2L73.9785 168.354L72.6309 167.753C72.6504 167.685 72.6772 167.597 72.7114 167.489C72.7505 167.382 72.853 167.191 73.019 166.918C73.1899 166.645 73.3877 166.403 73.6123 166.193C73.8369 165.983 74.1616 165.79 74.5864 165.614C75.0112 165.438 75.4849 165.351 76.0073 165.351C77.0376 165.351 77.8823 165.661 78.5415 166.281C79.2007 166.901 79.5303 167.665 79.5303 168.573C79.5303 169.052 79.4326 169.496 79.2373 169.906C79.042 170.316 78.793 170.661 78.4902 170.939C78.1924 171.212 77.8481 171.496 77.4575 171.789C77.0718 172.077 76.6958 172.34 76.3296 172.58C75.9634 172.819 75.6021 173.107 75.2456 173.444C74.894 173.776 74.623 174.127 74.4326 174.499H79.5303V176ZM85.3896 169.027C86.4395 169.027 87.3013 169.359 87.9751 170.023C88.6489 170.688 88.9858 171.53 88.9858 172.55C88.9858 173.61 88.6416 174.474 87.9531 175.143C87.2646 175.812 86.3589 176.146 85.2358 176.146C84.7573 176.146 84.3032 176.09 83.8735 175.978C83.4438 175.861 83.0874 175.724 82.8042 175.568C82.5259 175.407 82.2842 175.246 82.0791 175.084C81.874 174.923 81.7275 174.789 81.6396 174.682L81.4858 174.499L82.5405 173.451C82.5601 173.48 82.5942 173.524 82.6431 173.583C82.6919 173.637 82.8018 173.734 82.9727 173.876C83.1436 174.013 83.3242 174.135 83.5146 174.242C83.7051 174.345 83.9541 174.44 84.2617 174.528C84.5742 174.611 84.8989 174.652 85.2358 174.652C85.8364 174.652 86.3369 174.452 86.7373 174.052C87.1377 173.651 87.3379 173.151 87.3379 172.55C87.3379 171.95 87.1377 171.449 86.7373 171.049C86.3369 170.648 85.8364 170.448 85.2358 170.448C84.7964 170.448 84.4009 170.529 84.0493 170.69C83.7026 170.851 83.4634 171.012 83.3315 171.173L83.1411 171.422H81.9399L82.2402 165.497H88.312V166.999H83.7417L83.5879 169.474C83.9883 169.176 84.5889 169.027 85.3896 169.027Z" fill="#DEB161"/>
<path d="M8.66667 155H13L4.33333 185H0L8.66667 155Z" fill="url(#paint1_linear_130_94)"/>
<rect width="218" height="1" transform="matrix(-1 0 0 1 227 154)" fill="url(#paint2_linear_130_94)" fill-opacity="0.5"/>
<path opacity="0.5" d="M235.349 1L199 124H236" stroke="url(#paint3_linear_130_94)"/>
<path d="M231.667 124H236L227.333 154H223L231.667 124Z" fill="url(#paint4_linear_130_94)"/>
<defs>
<linearGradient id="paint0_linear_130_94" x1="9.2197e-08" y1="170" x2="118" y2="170" gradientUnits="userSpaceOnUse">
<stop stop-color="#DEB161"/>
<stop offset="1" stop-color="#DEB161" stop-opacity="0"/>
</linearGradient>
<linearGradient id="paint1_linear_130_94" x1="13" y1="155" x2="13" y2="185" gradientUnits="userSpaceOnUse">
<stop stop-color="#FFCD75"/>
<stop offset="1" stop-color="#D0A45B"/>
</linearGradient>
<linearGradient id="paint2_linear_130_94" x1="1.7033e-07" y1="0.500002" x2="218" y2="0.49998" gradientUnits="userSpaceOnUse">
<stop stop-color="#DEB161"/>
<stop offset="1" stop-color="#DEB161" stop-opacity="0"/>
</linearGradient>
<linearGradient id="paint3_linear_130_94" x1="211" y1="1" x2="211" y2="124" gradientUnits="userSpaceOnUse">
<stop stop-color="#5F5F77" stop-opacity="0"/>
<stop offset="1" stop-color="#5F5F77"/>
</linearGradient>
<linearGradient id="paint4_linear_130_94" x1="236" y1="124" x2="236" y2="154" gradientUnits="userSpaceOnUse">
<stop stop-color="#FFCD75"/>
<stop offset="1" stop-color="#D0A45B"/>
</linearGradient>
</defs>
</svg>
