<svg width="227" height="184" viewBox="0 0 227 184" fill="none" xmlns="http://www.w3.org/2000/svg">
<path d="M8.8 0H118L109.2 30H0L8.8 0Z" fill="url(#paint0_linear_93_483)" fill-opacity="0.15"/>
<path d="M38.5732 21H31.6006C31.6006 20.3506 31.6982 19.7622 31.8936 19.2349C32.0889 18.7026 32.3428 18.2607 32.6553 17.9092C32.9727 17.5576 33.3193 17.2354 33.6953 16.9424C34.0762 16.6494 34.4546 16.3833 34.8306 16.144C35.2065 15.8999 35.5508 15.6606 35.8633 15.4263C36.1807 15.1919 36.437 14.9185 36.6323 14.606C36.8276 14.2886 36.9253 13.9443 36.9253 13.5732C36.9253 13.041 36.7593 12.6211 36.4272 12.3135C36.1001 12.0059 35.6411 11.8521 35.0503 11.8521C34.7622 11.8521 34.4912 11.9058 34.2373 12.0132C33.9883 12.1157 33.793 12.2402 33.6514 12.3867C33.5146 12.5283 33.3926 12.6724 33.2852 12.8188C33.1826 12.9653 33.1118 13.0923 33.0728 13.1997L33.0215 13.3535L31.6738 12.7529C31.6934 12.6846 31.7202 12.5967 31.7544 12.4893C31.7935 12.3818 31.896 12.1914 32.062 11.918C32.2329 11.6445 32.4307 11.4028 32.6553 11.1929C32.8799 10.9829 33.2046 10.79 33.6294 10.6143C34.0542 10.4385 34.5278 10.3506 35.0503 10.3506C36.0806 10.3506 36.9253 10.6606 37.5845 11.2808C38.2437 11.9009 38.5732 12.665 38.5732 13.5732C38.5732 14.0518 38.4756 14.4961 38.2803 14.9062C38.085 15.3164 37.8359 15.6606 37.5332 15.939C37.2354 16.2124 36.8911 16.4956 36.5005 16.7886C36.1147 17.0767 35.7388 17.3403 35.3726 17.5796C35.0063 17.8188 34.645 18.1069 34.2886 18.4438C33.937 18.7759 33.666 19.1274 33.4756 19.4985H38.5732V21ZM41.979 19.5791C40.9146 18.5342 40.3823 17.2573 40.3823 15.7485C40.3823 14.2397 40.9146 12.9629 41.979 11.918C43.0435 10.873 44.3594 10.3506 45.9268 10.3506C47.499 10.3506 48.8174 10.873 49.8818 11.918C50.9463 12.9629 51.4785 14.2397 51.4785 15.7485C51.4785 16.4077 51.376 17.0229 51.1709 17.5942C50.9658 18.1655 50.7168 18.627 50.4238 18.9785C50.1309 19.3252 49.8354 19.6255 49.5376 19.8794C49.2446 20.1284 48.9932 20.3018 48.7832 20.3994L48.4829 20.5679C48.5024 20.6069 48.5342 20.6582 48.5781 20.7217C48.6221 20.7852 48.7295 20.8999 48.9004 21.0659C49.0713 21.2319 49.2642 21.3711 49.479 21.4834C49.6938 21.6006 49.9941 21.6958 50.3799 21.769C50.7656 21.8472 51.1831 21.8667 51.6323 21.8276V23.1753C51.0122 23.2437 50.4263 23.2168 49.8745 23.0947C49.3276 22.9775 48.8809 22.8091 48.5342 22.5894C48.1875 22.3696 47.8848 22.1475 47.626 21.9229C47.3672 21.6982 47.1816 21.5005 47.0693 21.3296L46.9082 21.0732C46.5566 21.1221 46.2319 21.1465 45.9341 21.1465C44.3618 21.1465 43.0435 20.624 41.979 19.5791ZM43.1582 12.9873C42.4062 13.7393 42.0303 14.6597 42.0303 15.7485C42.0303 16.8374 42.4062 17.7603 43.1582 18.5171C43.915 19.2739 44.8379 19.6523 45.9268 19.6523C47.0205 19.6523 47.9434 19.2739 48.6953 18.5171C49.4521 17.7603 49.8306 16.8374 49.8306 15.7485C49.8306 14.6597 49.4521 13.7393 48.6953 12.9873C47.9434 12.2305 47.0205 11.8521 45.9268 11.8521C44.8379 11.8521 43.915 12.2305 43.1582 12.9873ZM63.1094 21H56.1367C56.1367 20.3506 56.2344 19.7622 56.4297 19.2349C56.625 18.7026 56.8789 18.2607 57.1914 17.9092C57.5088 17.5576 57.8555 17.2354 58.2314 16.9424C58.6123 16.6494 58.9907 16.3833 59.3667 16.144C59.7427 15.8999 60.0869 15.6606 60.3994 15.4263C60.7168 15.1919 60.9731 14.9185 61.1685 14.606C61.3638 14.2886 61.4614 13.9443 61.4614 13.5732C61.4614 13.041 61.2954 12.6211 60.9634 12.3135C60.6362 12.0059 60.1772 11.8521 59.5864 11.8521C59.2983 11.8521 59.0273 11.9058 58.7734 12.0132C58.5244 12.1157 58.3291 12.2402 58.1875 12.3867C58.0508 12.5283 57.9287 12.6724 57.8213 12.8188C57.7188 12.9653 57.6479 13.0923 57.6089 13.1997L57.5576 13.3535L56.21 12.7529C56.2295 12.6846 56.2563 12.5967 56.2905 12.4893C56.3296 12.3818 56.4321 12.1914 56.5981 11.918C56.769 11.6445 56.9668 11.4028 57.1914 11.1929C57.416 10.9829 57.7407 10.79 58.1655 10.6143C58.5903 10.4385 59.064 10.3506 59.5864 10.3506C60.6167 10.3506 61.4614 10.6606 62.1206 11.2808C62.7798 11.9009 63.1094 12.665 63.1094 13.5732C63.1094 14.0518 63.0117 14.4961 62.8164 14.9062C62.6211 15.3164 62.3721 15.6606 62.0693 15.939C61.7715 16.2124 61.4272 16.4956 61.0366 16.7886C60.6509 17.0767 60.2749 17.3403 59.9087 17.5796C59.5425 17.8188 59.1812 18.1069 58.8247 18.4438C58.4731 18.7759 58.2021 19.1274 58.0117 19.4985H63.1094V21ZM66.2002 19.6816C65.3457 18.7002 64.9185 17.3892 64.9185 15.7485C64.9185 14.1079 65.3457 12.7993 66.2002 11.8228C67.0547 10.8413 68.1021 10.3506 69.3423 10.3506C70.5825 10.3506 71.6299 10.8413 72.4844 11.8228C73.3389 12.7993 73.7661 14.1079 73.7661 15.7485C73.7661 17.3892 73.3389 18.7002 72.4844 19.6816C71.6299 20.6582 70.5825 21.1465 69.3423 21.1465C68.1021 21.1465 67.0547 20.6582 66.2002 19.6816ZM71.2979 18.6123C71.8447 17.9141 72.1182 16.9595 72.1182 15.7485C72.1182 14.5376 71.8447 13.5854 71.2979 12.8921C70.7559 12.1987 70.104 11.8521 69.3423 11.8521C68.5806 11.8521 67.9263 12.1987 67.3794 12.8921C66.8374 13.5854 66.5664 14.5376 66.5664 15.7485C66.5664 16.9595 66.8374 17.9141 67.3794 18.6123C67.9263 19.3057 68.5806 19.6523 69.3423 19.6523C70.104 19.6523 70.7559 19.3057 71.2979 18.6123ZM82.2402 21H75.2676C75.2676 20.3506 75.3652 19.7622 75.5605 19.2349C75.7559 18.7026 76.0098 18.2607 76.3223 17.9092C76.6396 17.5576 76.9863 17.2354 77.3623 16.9424C77.7432 16.6494 78.1216 16.3833 78.4976 16.144C78.8735 15.8999 79.2178 15.6606 79.5303 15.4263C79.8477 15.1919 80.104 14.9185 80.2993 14.606C80.4946 14.2886 80.5923 13.9443 80.5923 13.5732C80.5923 13.041 80.4263 12.6211 80.0942 12.3135C79.7671 12.0059 79.3081 11.8521 78.7173 11.8521C78.4292 11.8521 78.1582 11.9058 77.9043 12.0132C77.6553 12.1157 77.46 12.2402 77.3184 12.3867C77.1816 12.5283 77.0596 12.6724 76.9521 12.8188C76.8496 12.9653 76.7788 13.0923 76.7397 13.1997L76.6885 13.3535L75.3408 12.7529C75.3604 12.6846 75.3872 12.5967 75.4214 12.4893C75.4604 12.3818 75.563 12.1914 75.729 11.918C75.8999 11.6445 76.0977 11.4028 76.3223 11.1929C76.5469 10.9829 76.8716 10.79 77.2964 10.6143C77.7212 10.4385 78.1948 10.3506 78.7173 10.3506C79.7476 10.3506 80.5923 10.6606 81.2515 11.2808C81.9106 11.9009 82.2402 12.665 82.2402 13.5732C82.2402 14.0518 82.1426 14.4961 81.9473 14.9062C81.752 15.3164 81.5029 15.6606 81.2002 15.939C80.9023 16.2124 80.5581 16.4956 80.1675 16.7886C79.7817 17.0767 79.4058 17.3403 79.0396 17.5796C78.6733 17.8188 78.312 18.1069 77.9556 18.4438C77.604 18.7759 77.333 19.1274 77.1426 19.4985H82.2402V21ZM90.502 17.3965H91.8496V18.8979H90.502V21H88.8467V18.8979H83.749V17.1035L88.3999 10.4971H90.502V17.3965ZM88.8467 17.3965V12.3721L85.3237 17.3965H88.8467Z" fill="#DEB161"/>
<path d="M8.66667 0H13L4.33333 30H0L8.66667 0Z" fill="url(#paint1_linear_93_483)"/>
<rect width="218" height="1" transform="matrix(-1 0 0 1 227 30)" fill="url(#paint2_linear_93_483)" fill-opacity="0.5"/>
<path opacity="0.5" d="M145 184L181.349 61H218.349" stroke="url(#paint3_linear_93_483)"/>
<path d="M222.667 31H227L218.333 61H214L222.667 31Z" fill="url(#paint4_linear_93_483)"/>
<defs>
<linearGradient id="paint0_linear_93_483" x1="9.2197e-08" y1="15.0001" x2="118" y2="15.0001" gradientUnits="userSpaceOnUse">
<stop stop-color="#DEB161"/>
<stop offset="1" stop-color="#DEB161" stop-opacity="0"/>
</linearGradient>
<linearGradient id="paint1_linear_93_483" x1="13" y1="0" x2="13" y2="30" gradientUnits="userSpaceOnUse">
<stop stop-color="#FFCD75"/>
<stop offset="1" stop-color="#D0A45B"/>
</linearGradient>
<linearGradient id="paint2_linear_93_483" x1="1.7033e-07" y1="0.500002" x2="218" y2="0.49998" gradientUnits="userSpaceOnUse">
<stop stop-color="#DEB161"/>
<stop offset="1" stop-color="#DEB161" stop-opacity="0"/>
</linearGradient>
<linearGradient id="paint3_linear_93_483" x1="169.349" y1="184" x2="169.349" y2="61" gradientUnits="userSpaceOnUse">
<stop stop-color="#5F5F77" stop-opacity="0"/>
<stop offset="1" stop-color="#5F5F77"/>
</linearGradient>
<linearGradient id="paint4_linear_93_483" x1="227" y1="31" x2="227" y2="61" gradientUnits="userSpaceOnUse">
<stop stop-color="#FFCD75"/>
<stop offset="1" stop-color="#D0A45B"/>
</linearGradient>
</defs>
</svg>
