<svg width="236" height="185" viewBox="0 0 236 185" fill="none" xmlns="http://www.w3.org/2000/svg">
<path d="M8.8 155H118L109.2 185H0L8.8 155Z" fill="url(#paint0_linear_93_482)" fill-opacity="0.15"/>
<path d="M36.9253 170.448C36.9741 170.468 37.04 170.497 37.123 170.536C37.2109 170.57 37.3623 170.658 37.5771 170.8C37.792 170.937 37.9824 171.095 38.1484 171.276C38.3145 171.457 38.4634 171.708 38.5952 172.03C38.7319 172.348 38.8003 172.697 38.8003 173.078C38.8003 173.937 38.4561 174.665 37.7676 175.26C37.084 175.851 36.1782 176.146 35.0503 176.146C34.5718 176.146 34.1177 176.09 33.688 175.978C33.2583 175.861 32.9019 175.724 32.6187 175.568C32.3403 175.407 32.0986 175.246 31.8936 175.084C31.6885 174.923 31.5396 174.789 31.4468 174.682L31.3003 174.499L32.3477 173.451C32.3672 173.48 32.4014 173.524 32.4502 173.583C32.5039 173.637 32.6162 173.734 32.7871 173.876C32.958 174.013 33.1362 174.135 33.3218 174.242C33.5122 174.345 33.7612 174.44 34.0688 174.528C34.3813 174.611 34.7085 174.652 35.0503 174.652C35.6997 174.652 36.2124 174.496 36.5884 174.184C36.9644 173.866 37.1523 173.473 37.1523 173.004C37.1523 172.531 36.9644 172.138 36.5884 171.825C36.2124 171.508 35.6997 171.349 35.0503 171.349H34.0029V169.848H35.0503C35.5679 169.848 35.9707 169.713 36.2588 169.445C36.5518 169.176 36.6982 168.812 36.6982 168.354C36.6982 167.89 36.5518 167.523 36.2588 167.255C35.9707 166.986 35.5679 166.852 35.0503 166.852C34.6108 166.852 34.1958 166.947 33.8052 167.138C33.4146 167.328 33.1387 167.511 32.9775 167.687L32.7285 167.973L31.6738 166.925C31.7031 166.886 31.7471 166.833 31.8057 166.764C31.8691 166.691 32.0059 166.562 32.2158 166.376C32.4258 166.19 32.6504 166.032 32.8896 165.9C33.1289 165.763 33.4438 165.639 33.8345 165.526C34.2251 165.409 34.6304 165.351 35.0503 165.351C36.0806 165.351 36.8887 165.617 37.4746 166.149C38.0605 166.676 38.3535 167.36 38.3535 168.2C38.3535 168.488 38.3022 168.766 38.1997 169.035C38.1021 169.298 37.9824 169.513 37.8408 169.679C37.6992 169.845 37.5601 169.989 37.4233 170.111C37.2915 170.229 37.1743 170.312 37.0718 170.36L36.9253 170.448ZM42.0522 174.579C40.9878 173.534 40.4556 172.257 40.4556 170.749C40.4556 169.24 40.9878 167.963 42.0522 166.918C43.1167 165.873 44.4326 165.351 46 165.351C47.5723 165.351 48.8906 165.873 49.9551 166.918C51.0195 167.963 51.5518 169.24 51.5518 170.749C51.5518 171.408 51.4492 172.023 51.2441 172.594C51.0391 173.166 50.79 173.627 50.4971 173.979C50.2041 174.325 49.9087 174.625 49.6108 174.879C49.3179 175.128 49.0664 175.302 48.8564 175.399L48.5562 175.568C48.5757 175.607 48.6074 175.658 48.6514 175.722C48.6953 175.785 48.8027 175.9 48.9736 176.066C49.1445 176.232 49.3374 176.371 49.5522 176.483C49.7671 176.601 50.0674 176.696 50.4531 176.769C50.8389 176.847 51.2563 176.867 51.7056 176.828V178.175C51.0854 178.244 50.4995 178.217 49.9478 178.095C49.4009 177.978 48.9541 177.809 48.6074 177.589C48.2607 177.37 47.958 177.147 47.6992 176.923C47.4404 176.698 47.2549 176.5 47.1426 176.33L46.9814 176.073C46.6299 176.122 46.3052 176.146 46.0073 176.146C44.4351 176.146 43.1167 175.624 42.0522 174.579ZM43.2314 167.987C42.4795 168.739 42.1035 169.66 42.1035 170.749C42.1035 171.837 42.4795 172.76 43.2314 173.517C43.9883 174.274 44.9111 174.652 46 174.652C47.0938 174.652 48.0166 174.274 48.7686 173.517C49.5254 172.76 49.9038 171.837 49.9038 170.749C49.9038 169.66 49.5254 168.739 48.7686 167.987C48.0166 167.23 47.0938 166.852 46 166.852C44.9111 166.852 43.9883 167.23 43.2314 167.987ZM63.1826 176H56.21C56.21 175.351 56.3076 174.762 56.5029 174.235C56.6982 173.703 56.9521 173.261 57.2646 172.909C57.582 172.558 57.9287 172.235 58.3047 171.942C58.6855 171.649 59.064 171.383 59.4399 171.144C59.8159 170.9 60.1602 170.661 60.4727 170.426C60.79 170.192 61.0464 169.918 61.2417 169.606C61.437 169.289 61.5347 168.944 61.5347 168.573C61.5347 168.041 61.3687 167.621 61.0366 167.313C60.7095 167.006 60.2505 166.852 59.6597 166.852C59.3716 166.852 59.1006 166.906 58.8467 167.013C58.5977 167.116 58.4023 167.24 58.2607 167.387C58.124 167.528 58.002 167.672 57.8945 167.819C57.792 167.965 57.7212 168.092 57.6821 168.2L57.6309 168.354L56.2832 167.753C56.3027 167.685 56.3296 167.597 56.3638 167.489C56.4028 167.382 56.5054 167.191 56.6714 166.918C56.8423 166.645 57.04 166.403 57.2646 166.193C57.4893 165.983 57.814 165.79 58.2388 165.614C58.6636 165.438 59.1372 165.351 59.6597 165.351C60.6899 165.351 61.5347 165.661 62.1938 166.281C62.853 166.901 63.1826 167.665 63.1826 168.573C63.1826 169.052 63.085 169.496 62.8896 169.906C62.6943 170.316 62.4453 170.661 62.1426 170.939C61.8447 171.212 61.5005 171.496 61.1099 171.789C60.7241 172.077 60.3481 172.34 59.9819 172.58C59.6157 172.819 59.2544 173.107 58.8979 173.444C58.5464 173.776 58.2754 174.127 58.085 174.499H63.1826V176ZM66.2734 174.682C65.4189 173.7 64.9917 172.389 64.9917 170.749C64.9917 169.108 65.4189 167.799 66.2734 166.823C67.1279 165.841 68.1753 165.351 69.4155 165.351C70.6558 165.351 71.7031 165.841 72.5576 166.823C73.4121 167.799 73.8394 169.108 73.8394 170.749C73.8394 172.389 73.4121 173.7 72.5576 174.682C71.7031 175.658 70.6558 176.146 69.4155 176.146C68.1753 176.146 67.1279 175.658 66.2734 174.682ZM71.3711 173.612C71.918 172.914 72.1914 171.959 72.1914 170.749C72.1914 169.538 71.918 168.585 71.3711 167.892C70.8291 167.199 70.1772 166.852 69.4155 166.852C68.6538 166.852 67.9995 167.199 67.4526 167.892C66.9106 168.585 66.6396 169.538 66.6396 170.749C66.6396 171.959 66.9106 172.914 67.4526 173.612C67.9995 174.306 68.6538 174.652 69.4155 174.652C70.1772 174.652 70.8291 174.306 71.3711 173.612ZM82.3135 176H75.3408C75.3408 175.351 75.4385 174.762 75.6338 174.235C75.8291 173.703 76.083 173.261 76.3955 172.909C76.7129 172.558 77.0596 172.235 77.4355 171.942C77.8164 171.649 78.1948 171.383 78.5708 171.144C78.9468 170.9 79.291 170.661 79.6035 170.426C79.9209 170.192 80.1772 169.918 80.3726 169.606C80.5679 169.289 80.6655 168.944 80.6655 168.573C80.6655 168.041 80.4995 167.621 80.1675 167.313C79.8403 167.006 79.3813 166.852 78.7905 166.852C78.5024 166.852 78.2314 166.906 77.9775 167.013C77.7285 167.116 77.5332 167.24 77.3916 167.387C77.2549 167.528 77.1328 167.672 77.0254 167.819C76.9229 167.965 76.8521 168.092 76.813 168.2L76.7617 168.354L75.4141 167.753C75.4336 167.685 75.4604 167.597 75.4946 167.489C75.5337 167.382 75.6362 167.191 75.8022 166.918C75.9731 166.645 76.1709 166.403 76.3955 166.193C76.6201 165.983 76.9448 165.79 77.3696 165.614C77.7944 165.438 78.2681 165.351 78.7905 165.351C79.8208 165.351 80.6655 165.661 81.3247 166.281C81.9839 166.901 82.3135 167.665 82.3135 168.573C82.3135 169.052 82.2158 169.496 82.0205 169.906C81.8252 170.316 81.5762 170.661 81.2734 170.939C80.9756 171.212 80.6313 171.496 80.2407 171.789C79.855 172.077 79.479 172.34 79.1128 172.58C78.7466 172.819 78.3853 173.107 78.0288 173.444C77.6772 173.776 77.4062 174.127 77.2158 174.499H82.3135V176ZM90.5752 172.396H91.9229V173.898H90.5752V176H88.9199V173.898H83.8223V172.104L88.4731 165.497H90.5752V172.396ZM88.9199 172.396V167.372L85.397 172.396H88.9199Z" fill="#DEB161"/>
<path d="M8.66667 155H13L4.33333 185H0L8.66667 155Z" fill="url(#paint1_linear_93_482)"/>
<rect width="218" height="1" transform="matrix(-1 0 0 1 227 154)" fill="url(#paint2_linear_93_482)" fill-opacity="0.5"/>
<path opacity="0.5" d="M235.349 1L199 124H236" stroke="url(#paint3_linear_93_482)"/>
<path d="M231.667 124H236L227.333 154H223L231.667 124Z" fill="url(#paint4_linear_93_482)"/>
<defs>
<linearGradient id="paint0_linear_93_482" x1="9.2197e-08" y1="170" x2="118" y2="170" gradientUnits="userSpaceOnUse">
<stop stop-color="#DEB161"/>
<stop offset="1" stop-color="#DEB161" stop-opacity="0"/>
</linearGradient>
<linearGradient id="paint1_linear_93_482" x1="13" y1="155" x2="13" y2="185" gradientUnits="userSpaceOnUse">
<stop stop-color="#FFCD75"/>
<stop offset="1" stop-color="#D0A45B"/>
</linearGradient>
<linearGradient id="paint2_linear_93_482" x1="1.7033e-07" y1="0.500002" x2="218" y2="0.49998" gradientUnits="userSpaceOnUse">
<stop stop-color="#DEB161"/>
<stop offset="1" stop-color="#DEB161" stop-opacity="0"/>
</linearGradient>
<linearGradient id="paint3_linear_93_482" x1="211" y1="1" x2="211" y2="124" gradientUnits="userSpaceOnUse">
<stop stop-color="#5F5F77" stop-opacity="0"/>
<stop offset="1" stop-color="#5F5F77"/>
</linearGradient>
<linearGradient id="paint4_linear_93_482" x1="236" y1="124" x2="236" y2="154" gradientUnits="userSpaceOnUse">
<stop stop-color="#FFCD75"/>
<stop offset="1" stop-color="#D0A45B"/>
</linearGradient>
</defs>
</svg>
