<svg width="227" height="184" viewBox="0 0 227 184" fill="none" xmlns="http://www.w3.org/2000/svg">
<path d="M8.8 0H118L109.2 30H0L8.8 0Z" fill="url(#paint0_linear_93_483)" fill-opacity="0.15"/>
<path d="M38.3535 17.3965H39.7012V18.8979H38.3535V21H36.6982V18.8979H31.6006V17.1035L36.2515 10.4971H38.3535V17.3965ZM36.6982 17.3965V12.3721L33.1753 17.3965H36.6982ZM42.6528 19.5791C41.5884 18.5342 41.0562 17.2573 41.0562 15.7485C41.0562 14.2397 41.5884 12.9629 42.6528 11.918C43.7173 10.873 45.0332 10.3506 46.6006 10.3506C48.1729 10.3506 49.4912 10.873 50.5557 11.918C51.6201 12.9629 52.1523 14.2397 52.1523 15.7485C52.1523 16.4077 52.0498 17.0229 51.8447 17.5942C51.6396 18.1655 51.3906 18.627 51.0977 18.9785C50.8047 19.3252 50.5093 19.6255 50.2114 19.8794C49.9185 20.1284 49.667 20.3018 49.457 20.3994L49.1567 20.5679C49.1763 20.6069 49.208 20.6582 49.252 20.7217C49.2959 20.7852 49.4033 20.8999 49.5742 21.0659C49.7451 21.2319 49.938 21.3711 50.1528 21.4834C50.3677 21.6006 50.668 21.6958 51.0537 21.769C51.4395 21.8472 51.8569 21.8667 52.3062 21.8276V23.1753C51.686 23.2437 51.1001 23.2168 50.5483 23.0947C50.0015 22.9775 49.5547 22.8091 49.208 22.5894C48.8613 22.3696 48.5586 22.1475 48.2998 21.9229C48.041 21.6982 47.8555 21.5005 47.7432 21.3296L47.582 21.0732C47.2305 21.1221 46.9058 21.1465 46.6079 21.1465C45.0356 21.1465 43.7173 20.624 42.6528 19.5791ZM43.832 12.9873C43.0801 13.7393 42.7041 14.6597 42.7041 15.7485C42.7041 16.8374 43.0801 17.7603 43.832 18.5171C44.5889 19.2739 45.5117 19.6523 46.6006 19.6523C47.6943 19.6523 48.6172 19.2739 49.3691 18.5171C50.126 17.7603 50.5044 16.8374 50.5044 15.7485C50.5044 14.6597 50.126 13.7393 49.3691 12.9873C48.6172 12.2305 47.6943 11.8521 46.6006 11.8521C45.5117 11.8521 44.5889 12.2305 43.832 12.9873ZM63.7832 21H56.8105C56.8105 20.3506 56.9082 19.7622 57.1035 19.2349C57.2988 18.7026 57.5527 18.2607 57.8652 17.9092C58.1826 17.5576 58.5293 17.2354 58.9053 16.9424C59.2861 16.6494 59.6646 16.3833 60.0405 16.144C60.4165 15.8999 60.7607 15.6606 61.0732 15.4263C61.3906 15.1919 61.647 14.9185 61.8423 14.606C62.0376 14.2886 62.1353 13.9443 62.1353 13.5732C62.1353 13.041 61.9692 12.6211 61.6372 12.3135C61.3101 12.0059 60.8511 11.8521 60.2603 11.8521C59.9722 11.8521 59.7012 11.9058 59.4473 12.0132C59.1982 12.1157 59.0029 12.2402 58.8613 12.3867C58.7246 12.5283 58.6025 12.6724 58.4951 12.8188C58.3926 12.9653 58.3218 13.0923 58.2827 13.1997L58.2314 13.3535L56.8838 12.7529C56.9033 12.6846 56.9302 12.5967 56.9644 12.4893C57.0034 12.3818 57.106 12.1914 57.272 11.918C57.4429 11.6445 57.6406 11.4028 57.8652 11.1929C58.0898 10.9829 58.4146 10.79 58.8394 10.6143C59.2642 10.4385 59.7378 10.3506 60.2603 10.3506C61.2905 10.3506 62.1353 10.6606 62.7944 11.2808C63.4536 11.9009 63.7832 12.665 63.7832 13.5732C63.7832 14.0518 63.6855 14.4961 63.4902 14.9062C63.2949 15.3164 63.0459 15.6606 62.7432 15.939C62.4453 16.2124 62.1011 16.4956 61.7104 16.7886C61.3247 17.0767 60.9487 17.3403 60.5825 17.5796C60.2163 17.8188 59.855 18.1069 59.4985 18.4438C59.147 18.7759 58.876 19.1274 58.6855 19.4985H63.7832V21ZM66.874 19.6816C66.0195 18.7002 65.5923 17.3892 65.5923 15.7485C65.5923 14.1079 66.0195 12.7993 66.874 11.8228C67.7285 10.8413 68.7759 10.3506 70.0161 10.3506C71.2563 10.3506 72.3037 10.8413 73.1582 11.8228C74.0127 12.7993 74.4399 14.1079 74.4399 15.7485C74.4399 17.3892 74.0127 18.7002 73.1582 19.6816C72.3037 20.6582 71.2563 21.1465 70.0161 21.1465C68.7759 21.1465 67.7285 20.6582 66.874 19.6816ZM71.9717 18.6123C72.5186 17.9141 72.792 16.9595 72.792 15.7485C72.792 14.5376 72.5186 13.5854 71.9717 12.8921C71.4297 12.1987 70.7778 11.8521 70.0161 11.8521C69.2544 11.8521 68.6001 12.1987 68.0532 12.8921C67.5112 13.5854 67.2402 14.5376 67.2402 15.7485C67.2402 16.9595 67.5112 17.9141 68.0532 18.6123C68.6001 19.3057 69.2544 19.6523 70.0161 19.6523C70.7778 19.6523 71.4297 19.3057 71.9717 18.6123ZM82.9141 21H75.9414C75.9414 20.3506 76.0391 19.7622 76.2344 19.2349C76.4297 18.7026 76.6836 18.2607 76.9961 17.9092C77.3135 17.5576 77.6602 17.2354 78.0361 16.9424C78.417 16.6494 78.7954 16.3833 79.1714 16.144C79.5474 15.8999 79.8916 15.6606 80.2041 15.4263C80.5215 15.1919 80.7778 14.9185 80.9731 14.606C81.1685 14.2886 81.2661 13.9443 81.2661 13.5732C81.2661 13.041 81.1001 12.6211 80.7681 12.3135C80.4409 12.0059 79.9819 11.8521 79.3911 11.8521C79.103 11.8521 78.832 11.9058 78.5781 12.0132C78.3291 12.1157 78.1338 12.2402 77.9922 12.3867C77.8555 12.5283 77.7334 12.6724 77.626 12.8188C77.5234 12.9653 77.4526 13.0923 77.4136 13.1997L77.3623 13.3535L76.0146 12.7529C76.0342 12.6846 76.061 12.5967 76.0952 12.4893C76.1343 12.3818 76.2368 12.1914 76.4028 11.918C76.5737 11.6445 76.7715 11.4028 76.9961 11.1929C77.2207 10.9829 77.5454 10.79 77.9702 10.6143C78.395 10.4385 78.8687 10.3506 79.3911 10.3506C80.4214 10.3506 81.2661 10.6606 81.9253 11.2808C82.5845 11.9009 82.9141 12.665 82.9141 13.5732C82.9141 14.0518 82.8164 14.4961 82.6211 14.9062C82.4258 15.3164 82.1768 15.6606 81.874 15.939C81.5762 16.2124 81.2319 16.4956 80.8413 16.7886C80.4556 17.0767 80.0796 17.3403 79.7134 17.5796C79.3472 17.8188 78.9858 18.1069 78.6294 18.4438C78.2778 18.7759 78.0068 19.1274 77.8164 19.4985H82.9141V21ZM91.1758 17.3965H92.5234V18.8979H91.1758V21H89.5205V18.8979H84.4229V17.1035L89.0737 10.4971H91.1758V17.3965ZM89.5205 17.3965V12.3721L85.9976 17.3965H89.5205Z" fill="#DEB161"/>
<path d="M8.66667 0H13L4.33333 30H0L8.66667 0Z" fill="url(#paint1_linear_93_483)"/>
<rect width="218" height="1" transform="matrix(-1 0 0 1 227 30)" fill="url(#paint2_linear_93_483)" fill-opacity="0.5"/>
<path opacity="0.5" d="M145 184L181.349 61H218.349" stroke="url(#paint3_linear_93_483)"/>
<path d="M222.667 31H227L218.333 61H214L222.667 31Z" fill="url(#paint4_linear_93_483)"/>
<defs>
<linearGradient id="paint0_linear_93_483" x1="9.2197e-08" y1="15.0001" x2="118" y2="15.0001" gradientUnits="userSpaceOnUse">
<stop stop-color="#DEB161"/>
<stop offset="1" stop-color="#DEB161" stop-opacity="0"/>
</linearGradient>
<linearGradient id="paint1_linear_93_483" x1="13" y1="0" x2="13" y2="30" gradientUnits="userSpaceOnUse">
<stop stop-color="#FFCD75"/>
<stop offset="1" stop-color="#D0A45B"/>
</linearGradient>
<linearGradient id="paint2_linear_93_483" x1="1.7033e-07" y1="0.500002" x2="218" y2="0.49998" gradientUnits="userSpaceOnUse">
<stop stop-color="#DEB161"/>
<stop offset="1" stop-color="#DEB161" stop-opacity="0"/>
</linearGradient>
<linearGradient id="paint3_linear_93_483" x1="169.349" y1="184" x2="169.349" y2="61" gradientUnits="userSpaceOnUse">
<stop stop-color="#5F5F77" stop-opacity="0"/>
<stop offset="1" stop-color="#5F5F77"/>
</linearGradient>
<linearGradient id="paint4_linear_93_483" x1="227" y1="31" x2="227" y2="61" gradientUnits="userSpaceOnUse">
<stop stop-color="#FFCD75"/>
<stop offset="1" stop-color="#D0A45B"/>
</linearGradient>
</defs>
</svg>
