<svg width="35" height="35" viewBox="0 0 35 35" fill="none" xmlns="http://www.w3.org/2000/svg">
<circle cx="17.5" cy="17.5" r="17" stroke="#5F5F77" stroke-opacity="0.2"/>
<g clip-path="url(#clip0_70_361)">
<path d="M10 17.5001C10.0001 16.038 10.4276 14.6079 11.2298 13.3856C12.032 12.1633 13.1739 11.2021 14.5152 10.6203C15.8564 10.0384 17.3385 9.86127 18.7791 10.1106C20.2197 10.36 21.5561 11.0249 22.6237 12.0237C23.6914 13.0226 24.4439 14.3116 24.7886 15.7324C25.1333 17.1533 25.0552 18.6438 24.5639 20.0209C24.0727 21.3979 23.1896 22.6013 22.0234 23.4831C20.8573 24.3649 19.4588 24.8866 18 24.9841V19.0001H20V18.0001H18V16.5001C18 16.1022 18.158 15.7207 18.4393 15.4394C18.7206 15.1581 19.1022 15.0001 19.5 15.0001H20V14.0001H19.5C18.837 14.0001 18.2011 14.2634 17.7322 14.7323C17.2634 15.2011 17 15.837 17 16.5001V18.0001H15V19.0001H17V24.9841C15.1015 24.8572 13.3223 24.0135 12.0225 22.624C10.7228 21.2344 9.99983 19.4027 10 17.5001Z" fill="#5F5F77"/>
</g>
<defs>
<clipPath id="clip0_70_361">
<rect width="15" height="15" fill="white" transform="translate(10 10)"/>
</clipPath>
</defs>
</svg>
