<svg width="176" height="27" viewBox="0 0 176 27" fill="none" xmlns="http://www.w3.org/2000/svg">
<path d="M16.793 26H0.603516V0.792969H4.55859V22.3965H16.793V26ZM26.707 6.76953C24.9023 8.57422 24 10.7832 24 13.3965C24 16.0098 24.9023 18.2246 26.707 20.041C28.5234 21.8574 30.7383 22.7656 33.3516 22.7656C35.9766 22.7656 38.1914 21.8574 39.9961 20.041C41.8125 18.2246 42.7207 16.0098 42.7207 13.3965C42.7207 10.7832 41.8125 8.57422 39.9961 6.76953C38.1914 4.95313 35.9766 4.04492 33.3516 4.04492C30.7383 4.04492 28.5234 4.95313 26.707 6.76953ZM23.877 22.5898C21.3223 20.082 20.0449 17.0176 20.0449 13.3965C20.0449 9.77539 21.3223 6.71094 23.877 4.20312C26.4316 1.69531 29.5898 0.441406 33.3516 0.441406C37.125 0.441406 40.2891 1.69531 42.8438 4.20312C45.3984 6.71094 46.6758 9.77539 46.6758 13.3965C46.6758 17.0176 45.3984 20.082 42.8438 22.5898C40.2891 25.0977 37.125 26.3516 33.3516 26.3516C29.5898 26.3516 26.4316 25.0977 23.877 22.5898ZM66.3105 12.6758H75.1348V21.6758C75.041 21.793 74.8945 21.9629 74.6953 22.1855C74.5078 22.3965 74.0742 22.7773 73.3945 23.3281C72.7266 23.8672 72.0059 24.3418 71.2324 24.752C70.4707 25.1504 69.4629 25.5195 68.209 25.8594C66.9668 26.1875 65.6777 26.3516 64.3418 26.3516C60.5684 26.3516 57.4043 25.0977 54.8496 22.5898C52.2949 20.082 51.0176 17.0176 51.0176 13.3965C51.0176 9.77539 52.2949 6.71094 54.8496 4.20312C57.4043 1.69531 60.5684 0.441406 64.3418 0.441406C65.6191 0.441406 66.8438 0.611328 68.0156 0.951172C69.1875 1.2793 70.1543 1.68359 70.916 2.16406C71.6895 2.64453 72.3633 3.11914 72.9375 3.58789C73.5117 4.05664 73.9336 4.46094 74.2031 4.80078L74.5898 5.29297L72.0762 7.82422C72.0059 7.73047 71.9004 7.60156 71.7598 7.4375C71.6309 7.26172 71.3262 6.95117 70.8457 6.50586C70.3652 6.06055 69.8496 5.67969 69.2988 5.36328C68.748 5.03516 68.0273 4.73633 67.1367 4.4668C66.2578 4.18555 65.3262 4.04492 64.3418 4.04492C61.7285 4.04492 59.5137 4.95313 57.6973 6.76953C55.8809 8.57422 54.9727 10.7832 54.9727 13.3965C54.9727 16.0098 55.875 18.2246 57.6797 20.041C59.4961 21.8574 61.7168 22.7656 64.3418 22.7656C65.209 22.7656 66.0352 22.6836 66.8203 22.5195C67.6172 22.3438 68.2676 22.1328 68.7715 21.8867C69.2754 21.6289 69.7148 21.377 70.0898 21.1309C70.4766 20.873 70.752 20.6621 70.916 20.498L71.1797 20.2344V16.2793H66.3105V12.6758ZM86.8242 6.76953C85.0195 8.57422 84.1172 10.7832 84.1172 13.3965C84.1172 16.0098 85.0195 18.2246 86.8242 20.041C88.6406 21.8574 90.8555 22.7656 93.4688 22.7656C96.0938 22.7656 98.3086 21.8574 100.113 20.041C101.93 18.2246 102.838 16.0098 102.838 13.3965C102.838 10.7832 101.93 8.57422 100.113 6.76953C98.3086 4.95313 96.0938 4.04492 93.4688 4.04492C90.8555 4.04492 88.6406 4.95313 86.8242 6.76953ZM83.9941 22.5898C81.4395 20.082 80.1621 17.0176 80.1621 13.3965C80.1621 9.77539 81.4395 6.71094 83.9941 4.20312C86.5488 1.69531 89.707 0.441406 93.4688 0.441406C97.2422 0.441406 100.406 1.69531 102.961 4.20312C105.516 6.71094 106.793 9.77539 106.793 13.3965C106.793 17.0176 105.516 20.082 102.961 22.5898C100.406 25.0977 97.2422 26.3516 93.4688 26.3516C89.707 26.3516 86.5488 25.0977 83.9941 22.5898ZM109.693 0.792969H128.766V4.39648H121.207V26H117.252V4.39648H109.693V0.792969ZM134.549 0.792969L141.387 12.8516L148.225 0.792969H152.549L143.355 17V26H139.4V17L130.225 0.792969H134.549ZM156.873 0.792969H166.945C169.348 0.792969 171.357 1.58398 172.975 3.16602C174.604 4.73633 175.418 6.65234 175.418 8.91406C175.418 11.1641 174.604 13.0742 172.975 14.6445C171.357 16.2148 169.348 17 166.945 17H160.828V26H156.873V0.792969ZM166.945 4.39648H160.828V13.3965H166.945C168.188 13.3965 169.248 12.9688 170.127 12.1133C171.006 11.2461 171.445 10.1797 171.445 8.91406C171.445 7.63672 171.006 6.56445 170.127 5.69727C169.248 4.83008 168.188 4.39648 166.945 4.39648Z" fill="white"/>
</svg>
