<svg width="35" height="35" viewBox="0 0 35 35" fill="none" xmlns="http://www.w3.org/2000/svg">
<circle cx="17.5" cy="17.5" r="17" stroke="#5F5F77" stroke-opacity="0.2"/>
<g clip-path="url(#clip0_70_366)">
<path d="M24.9929 11.582C25.0072 11.4961 24.9988 11.408 24.9686 11.3263C24.9383 11.2447 24.8873 11.1724 24.8205 11.1165C24.7538 11.0606 24.6736 11.0232 24.5879 11.0078C24.5022 10.9925 24.414 10.9998 24.3319 11.029L10.3319 16.029C10.2397 16.0619 10.1591 16.1212 10.1002 16.1995C10.0413 16.2778 10.0068 16.3717 10.0008 16.4695C9.99484 16.5673 10.0177 16.6647 10.0667 16.7496C10.1156 16.8345 10.1883 16.9031 10.2759 16.947L14.2759 18.947C14.3548 18.9864 14.4426 19.0044 14.5306 18.9989C14.6186 18.9935 14.7036 18.9649 14.7769 18.916L18.0969 16.702L16.1099 19.188C16.0667 19.2421 16.0352 19.3046 16.0174 19.3715C15.9995 19.4385 15.9958 19.5084 16.0065 19.5768C16.0171 19.6453 16.0418 19.7108 16.0791 19.7691C16.1163 19.8275 16.1653 19.8775 16.2229 19.916L22.2229 23.916C22.2924 23.9622 22.3724 23.9903 22.4555 23.9976C22.5386 24.005 22.6222 23.9915 22.6987 23.9583C22.7753 23.9251 22.8423 23.8733 22.8937 23.8076C22.9451 23.7418 22.9792 23.6643 22.9929 23.582L24.9929 11.582Z" fill="#5F5F77"/>
</g>
<defs>
<clipPath id="clip0_70_366">
<rect width="15" height="15" fill="white" transform="translate(10 10)"/>
</clipPath>
</defs>
</svg>
