<svg width="35" height="35" viewBox="0 0 35 35" fill="none" xmlns="http://www.w3.org/2000/svg">
<circle cx="17.5" cy="17.5" r="17" stroke="#5F5F77" stroke-opacity="0.2"/>
<g clip-path="url(#clip0_70_357)">
<path d="M24.977 11.4669C24.9703 11.3689 24.935 11.2751 24.8753 11.1972C24.8157 11.1192 24.7344 11.0605 24.6416 11.0284C24.5489 10.9963 24.4487 10.9922 24.3536 11.0167C24.2586 11.0411 24.1728 11.093 24.107 11.1659C23.7801 11.5326 23.3544 11.7975 22.881 11.9289C22.2426 11.3312 21.4005 10.999 20.526 10.9999C20.0613 11.0001 19.6011 11.0919 19.1718 11.27C18.7426 11.4481 18.3526 11.709 18.0241 12.0378C17.6957 12.3667 17.4352 12.7569 17.2576 13.1864C17.08 13.6159 16.9887 14.0761 16.989 14.5409V14.9809C13.998 14.7499 12.4 12.4769 11.967 11.3249C11.9329 11.2336 11.8729 11.1542 11.7943 11.0966C11.7158 11.039 11.6221 11.0055 11.5247 11.0004C11.4274 10.9953 11.3308 11.0188 11.2466 11.0679C11.1624 11.117 11.0944 11.1897 11.051 11.2769C10.004 13.3729 9.843 15.4069 10.604 17.1389C11.27 18.6559 12.61 19.8639 14.51 20.6649C13.647 21.2759 12.194 21.9999 10.5 21.9999C10.3926 21.9997 10.2881 22.0342 10.2018 22.0981C10.1155 22.162 10.0521 22.2519 10.0209 22.3547C9.98976 22.4574 9.99248 22.5674 10.0287 22.6685C10.0649 22.7696 10.1327 22.8563 10.222 22.9159C11.847 23.9999 13.55 23.9999 15.132 23.9999H15.18C20.041 23.9999 23.98 20.0539 23.98 15.1879V14.7089C24.343 14.3389 24.626 13.9619 24.8 13.4729C24.993 12.9269 25.032 12.2949 24.977 11.4669Z" fill="#5F5F77"/>
</g>
<defs>
<clipPath id="clip0_70_357">
<rect width="15" height="15" fill="white" transform="translate(10 10)"/>
</clipPath>
</defs>
</svg>
